<svg width="440" height="956" viewBox="0 0 440 956" fill="none" xmlns="http://www.w3.org/2000/svg">
<g clip-path="url(#clip0_6_22)">
<rect width="440" height="956" fill="white"/>
<g clip-path="url(#clip1_6_22)">
<rect y="1" width="440" height="955" fill="#FBF2D2"/>
<mask id="path-2-inside-1_6_22" fill="white">
<path fill-rule="evenodd" clip-rule="evenodd" d="M440 -1.5H0V957.5H440V-1.5ZM46 145C29.4315 145 16 158.431 16 175V770C16 786.569 29.4315 800 46 800H394C410.569 800 424 786.569 424 770V175C424 158.431 410.569 145 394 145H46Z"/>
</mask>
<path fill-rule="evenodd" clip-rule="evenodd" d="M440 -1.5H0V957.5H440V-1.5ZM46 145C29.4315 145 16 158.431 16 175V770C16 786.569 29.4315 800 46 800H394C410.569 800 424 786.569 424 770V175C424 158.431 410.569 145 394 145H46Z" fill="url(#paint0_linear_6_22)"/>
<path d="M0 -1.5H-1V-2.5H0V-1.5ZM440 -1.5V-2.5H441V-1.5H440ZM0 957.5V958.5H-1V957.5H0ZM440 957.5H441V958.5H440V957.5ZM0 -2.5H440V-0.5H0V-2.5ZM-1 957.5V-1.5H1V957.5H-1ZM440 958.5H0V956.5H440V958.5ZM441 -1.5V957.5H439V-1.5H441ZM15 175C15 157.879 28.8792 144 46 144V146C29.9837 146 17 158.984 17 175H15ZM15 770V175H17V770H15ZM46 801C28.8792 801 15 787.121 15 770H17C17 786.016 29.9837 799 46 799V801ZM394 801H46V799H394V801ZM425 770C425 787.121 411.121 801 394 801V799C410.016 799 423 786.016 423 770H425ZM425 175V770H423V175H425ZM394 144C411.121 144 425 157.879 425 175H423C423 158.984 410.016 146 394 146V144ZM46 144H394V146H46V144Z" fill="#25225B" mask="url(#path-2-inside-1_6_22)"/>
<path fill-rule="evenodd" clip-rule="evenodd" d="M410.333 844C412.075 844 413.557 845.113 414.107 846.667H415.667C416.02 846.667 416.359 846.807 416.609 847.057C416.86 847.307 417 847.646 417 848C417 848.354 416.86 848.693 416.609 848.943C416.359 849.193 416.02 849.333 415.667 849.333H414.107C413.831 850.114 413.32 850.79 412.645 851.268C411.969 851.746 411.161 852.003 410.333 852.003C409.505 852.003 408.698 851.746 408.022 851.268C407.346 850.79 406.835 850.114 406.56 849.333H394.333C393.98 849.333 393.641 849.193 393.391 848.943C393.14 848.693 393 848.354 393 848C393 847.646 393.14 847.307 393.391 847.057C393.641 846.807 393.98 846.667 394.333 846.667H406.56C406.836 845.886 407.347 845.211 408.023 844.733C408.698 844.256 409.506 844 410.333 844ZM410.333 846.667C409.98 846.667 409.641 846.807 409.391 847.057C409.14 847.307 409 847.646 409 848C409 848.354 409.14 848.693 409.391 848.943C409.641 849.193 409.98 849.333 410.333 849.333C410.687 849.333 411.026 849.193 411.276 848.943C411.526 848.693 411.667 848.354 411.667 848C411.667 847.646 411.526 847.307 411.276 847.057C411.026 846.807 410.687 846.667 410.333 846.667ZM399.667 836C400.452 836 401.22 836.231 401.875 836.664C402.53 837.098 403.043 837.714 403.349 838.437L403.439 838.667H415.667C416.007 838.667 416.333 838.797 416.58 839.03C416.828 839.264 416.976 839.583 416.996 839.922C417.016 840.261 416.906 840.595 416.688 840.856C416.47 841.116 416.16 841.284 415.823 841.324L415.667 841.333H403.44C403.171 842.094 402.679 842.755 402.028 843.231C401.376 843.707 400.597 843.974 399.79 843.999C398.984 844.024 398.19 843.805 397.51 843.37C396.831 842.935 396.299 842.305 395.984 841.563L395.893 841.333H394.333C393.993 841.333 393.667 841.203 393.42 840.97C393.172 840.736 393.024 840.417 393.004 840.078C392.984 839.739 393.094 839.405 393.312 839.144C393.53 838.884 393.84 838.716 394.177 838.676L394.333 838.667H395.893C396.169 837.886 396.68 837.211 397.356 836.733C398.032 836.256 398.839 836 399.667 836ZM399.667 838.667C399.313 838.667 398.974 838.807 398.724 839.057C398.474 839.307 398.333 839.646 398.333 840C398.333 840.354 398.474 840.693 398.724 840.943C398.974 841.193 399.313 841.333 399.667 841.333C400.02 841.333 400.359 841.193 400.609 840.943C400.86 840.693 401 840.354 401 840C401 839.646 400.86 839.307 400.609 839.057C400.359 838.807 400.02 838.667 399.667 838.667ZM410.333 828C412.075 828 413.557 829.113 414.107 830.667H415.667C416.02 830.667 416.359 830.807 416.609 831.057C416.86 831.307 417 831.646 417 832C417 832.354 416.86 832.693 416.609 832.943C416.359 833.193 416.02 833.333 415.667 833.333H414.107C413.831 834.114 413.32 834.79 412.645 835.268C411.969 835.746 411.161 836.003 410.333 836.003C409.505 836.003 408.698 835.746 408.022 835.268C407.346 834.79 406.835 834.114 406.56 833.333H394.333C393.98 833.333 393.641 833.193 393.391 832.943C393.14 832.693 393 832.354 393 832C393 831.646 393.14 831.307 393.391 831.057C393.641 830.807 393.98 830.667 394.333 830.667H406.56C406.836 829.886 407.347 829.211 408.023 828.733C408.698 828.256 409.506 828 410.333 828ZM410.333 830.667C409.98 830.667 409.641 830.807 409.391 831.057C409.14 831.307 409 831.646 409 832C409 832.354 409.14 832.693 409.391 832.943C409.641 833.193 409.98 833.333 410.333 833.333C410.687 833.333 411.026 833.193 411.276 832.943C411.526 832.693 411.667 832.354 411.667 832C411.667 831.646 411.526 831.307 411.276 831.057C411.026 830.807 410.687 830.667 410.333 830.667Z" fill="#25225B"/>
<rect x="388" y="822" width="32" height="32" stroke="#25225B"/>
<path d="M308.774 852.704C308.39 852.704 308.091 852.683 307.878 852.64C307.686 852.619 307.472 852.555 307.238 852.448C306.982 852.32 306.79 852.139 306.662 851.904C306.662 851.648 306.779 851.52 307.014 851.52C307.248 851.52 307.547 851.595 307.91 851.744C308.251 851.915 308.539 852 308.774 852C309.243 852 309.67 851.808 310.054 851.424C310.459 851.04 310.768 850.539 310.982 849.92C311.408 848.704 311.622 847.627 311.622 846.688C311.622 845.643 311.472 844.587 311.174 843.52C310.875 842.453 310.48 841.451 309.99 840.512C309.883 840.277 309.702 839.925 309.446 839.456C308.912 838.389 308.507 837.557 308.23 836.96C307.952 836.363 307.707 835.701 307.494 834.976C307.195 834.016 307.046 832.981 307.046 831.872C307.046 831.168 307.152 830.496 307.366 829.856C307.6 829.195 307.963 828.629 308.454 828.16C308.987 827.669 309.584 827.424 310.246 827.424C310.502 827.424 310.811 827.531 311.174 827.744C311.536 827.936 311.718 828.128 311.718 828.32C311.718 828.491 311.654 828.576 311.526 828.576C311.398 828.576 311.227 828.523 311.014 828.416C310.822 828.309 310.64 828.256 310.47 828.256C309.979 828.256 309.542 828.437 309.158 828.8C308.795 829.163 308.528 829.611 308.358 830.144C308.208 830.592 308.134 831.083 308.134 831.616C308.134 832.448 308.24 833.312 308.454 834.208C308.667 835.083 308.955 835.904 309.318 836.672L310.438 839.008L310.758 839.68C311.206 840.597 311.547 841.355 311.782 841.952C312.038 842.549 312.251 843.221 312.422 843.968C312.656 844.971 312.774 845.931 312.774 846.848C312.774 848.085 312.454 849.344 311.814 850.624C311.494 851.243 311.067 851.744 310.534 852.128C310 852.512 309.414 852.704 308.774 852.704ZM317.693 852.416C317.309 852.416 317.096 852.192 317.053 851.744V851.328C317.075 851.221 317.085 851.093 317.085 850.944L316.957 850.816C317.128 850.368 317.213 849.931 317.213 849.504C317.213 849.013 317.181 848.309 317.117 847.392L317.053 845.28C317.053 844.213 317.085 842.613 317.149 840.48C317.235 838.581 317.277 836.971 317.277 835.648L317.213 833.728C317.171 833.152 317.149 832.512 317.149 831.808C317.149 831.488 317.224 831.264 317.373 831.136C317.523 830.987 317.757 830.912 318.077 830.912C318.291 830.912 318.461 830.976 318.589 831.104C318.632 831.125 318.941 831.168 319.517 831.232C320.051 831.296 320.509 831.392 320.893 831.52C321.299 831.648 321.501 831.808 321.501 832C321.501 832.213 321.299 832.427 320.893 832.64C319.677 832.235 318.813 832.032 318.301 832.032L318.141 832.224C318.163 832.416 318.173 832.875 318.173 833.6C318.173 834.517 318.152 835.339 318.109 836.064C318.088 836.811 318.077 837.643 318.077 838.56C318.077 839.157 318.227 839.456 318.525 839.456L319.037 839.424C319.208 839.403 319.389 839.392 319.581 839.392C320.413 839.392 320.829 839.584 320.829 839.968C320.829 840.203 320.776 840.405 320.669 840.576C320.563 840.725 320.403 840.8 320.189 840.8C319.869 840.8 319.624 840.715 319.453 840.544L318.429 840.384H318.269L318.109 840.544V840.64C318.152 841.003 318.173 841.845 318.173 843.168C318.173 844 318.163 844.757 318.141 845.44L318.109 847.712C318.109 848.544 318.141 849.397 318.205 850.272C318.227 850.763 318.333 851.093 318.525 851.264C318.717 851.413 319.069 851.488 319.581 851.488L320.157 851.456C320.349 851.435 320.563 851.424 320.797 851.424C321.416 851.424 321.725 851.563 321.725 851.84C321.725 852.224 321.256 852.416 320.317 852.416H317.693ZM327.385 851.552L327.353 850.368C327.331 850.027 327.321 849.643 327.321 849.216C327.321 849.003 327.331 848.821 327.353 848.672L327.385 848.096C327.385 847.883 327.342 847.627 327.257 847.328C327.257 845.899 327.15 843.243 326.937 839.36C326.723 835.605 326.606 833.056 326.585 831.712C325.262 831.712 324.377 831.68 323.929 831.616C323.502 831.509 323.289 831.339 323.289 831.104C323.395 830.869 323.598 830.752 323.897 830.752C324.537 830.752 325.465 830.795 326.681 830.88C327.79 830.987 328.718 831.04 329.465 831.04H330.137L330.809 831.008C331.193 831.008 331.385 831.147 331.385 831.424C331.385 831.552 331.31 831.659 331.161 831.744C331.033 831.808 330.873 831.84 330.681 831.84C330.254 831.84 329.806 831.819 329.337 831.776L327.961 831.712C327.875 831.712 327.833 831.744 327.833 831.808C327.811 831.872 327.801 832.075 327.801 832.416C327.801 834.485 327.929 837.621 328.185 841.824C328.419 846.176 328.537 849.301 328.537 851.2C328.537 851.349 328.441 851.488 328.249 851.616C328.078 851.744 327.907 851.808 327.737 851.808L327.385 851.552ZM336.885 851.552L336.853 850.368C336.831 850.027 336.821 849.643 336.821 849.216C336.821 849.003 336.831 848.821 336.853 848.672L336.885 848.096C336.885 847.883 336.842 847.627 336.757 847.328C336.757 845.899 336.65 843.243 336.437 839.36C336.223 835.605 336.106 833.056 336.085 831.712C334.762 831.712 333.877 831.68 333.429 831.616C333.002 831.509 332.789 831.339 332.789 831.104C332.895 830.869 333.098 830.752 333.397 830.752C334.037 830.752 334.965 830.795 336.181 830.88C337.29 830.987 338.218 831.04 338.965 831.04H339.637L340.309 831.008C340.693 831.008 340.885 831.147 340.885 831.424C340.885 831.552 340.81 831.659 340.661 831.744C340.533 831.808 340.373 831.84 340.181 831.84C339.754 831.84 339.306 831.819 338.837 831.776L337.461 831.712C337.375 831.712 337.333 831.744 337.333 831.808C337.311 831.872 337.301 832.075 337.301 832.416C337.301 834.485 337.429 837.621 337.685 841.824C337.919 846.176 338.037 849.301 338.037 851.2C338.037 851.349 337.941 851.488 337.749 851.616C337.578 851.744 337.407 851.808 337.237 851.808L336.885 851.552ZM346.001 852C345.51 852 345.222 851.893 345.137 851.68C345.03 851.68 344.945 851.691 344.881 851.712H344.625C344.155 851.712 343.857 851.605 343.729 851.392C343.729 851.243 343.814 851.115 343.985 851.008L344.145 850.848H345.073L345.201 850.72L345.265 850.432L345.297 850.048C345.297 848.747 345.265 847.584 345.201 846.56L345.137 845.376L345.073 843.04C345.073 842.208 345.105 840.96 345.169 839.296L345.233 835.584C345.233 833.963 345.179 832.725 345.073 831.872C344.881 831.808 344.561 831.776 344.113 831.776L343.761 831.808C343.633 831.829 343.494 831.84 343.345 831.84C342.939 831.84 342.737 831.659 342.737 831.296C342.737 831.211 342.833 831.125 343.025 831.04C343.217 830.955 343.377 830.912 343.505 830.912C344.315 830.912 345.126 830.955 345.937 831.04C346.427 831.061 346.918 831.157 347.409 831.328C347.793 831.456 347.985 831.637 347.985 831.872C347.985 831.915 347.953 832 347.889 832.128L347.153 832.192C347.003 832.064 346.694 832 346.225 832L346.065 832.096C346.129 832.288 346.161 832.853 346.161 833.792C346.161 835.2 346.15 836.469 346.129 837.6L346.065 841.408C346.065 842.368 346.107 843.531 346.193 844.896C346.257 846.453 346.289 847.627 346.289 848.416V848.832C346.267 848.981 346.257 849.173 346.257 849.408C346.257 849.899 346.289 850.197 346.353 850.304L346.321 850.368C346.321 850.581 346.555 850.688 347.025 850.688C347.217 850.688 347.377 850.677 347.505 850.656H347.985C348.603 850.656 348.913 850.805 348.913 851.104C348.913 851.296 348.849 851.456 348.721 851.584C348.593 851.691 348.422 851.744 348.209 851.744C348.017 851.744 347.846 851.723 347.697 851.68C347.526 851.659 347.345 851.648 347.153 851.648C347.025 851.648 346.833 851.701 346.577 851.808C346.321 851.936 346.129 852 346.001 852ZM360.027 852.128C359.856 852.128 359.728 852.064 359.643 851.936C359.579 851.808 359.515 851.616 359.451 851.36C359.429 851.189 359.387 851.04 359.323 850.912L359.355 850.816C359.184 849.813 358.821 848.587 358.267 847.136L357.691 845.472C357.648 845.429 357.445 844.885 357.083 843.84L356.827 843.072C354.907 837.141 353.701 833.931 353.211 833.44C353.04 834.016 352.955 834.763 352.955 835.68C352.955 836.171 352.965 836.597 352.987 836.96L353.019 838.208L352.987 838.976C352.965 839.211 352.955 839.467 352.955 839.744C352.955 840.213 352.976 840.619 353.019 840.96C353.061 841.643 353.083 841.984 353.083 841.984H352.987C352.987 845.547 353.061 847.509 353.211 847.872V850.752C353.296 850.923 353.339 851.147 353.339 851.424C353.339 851.595 353.275 851.744 353.147 851.872C353.04 852 352.901 852.064 352.731 852.064C352.283 852.064 352.059 851.488 352.059 850.336L352.123 849.312C352.165 848.992 352.187 848.64 352.187 848.256C352.187 847.232 352.155 845.696 352.091 843.648C352.027 841.6 351.995 840.064 351.995 839.04C351.995 838.421 352.027 837.472 352.091 836.192C352.155 834.933 352.187 833.995 352.187 833.376V832.96C352.187 831.915 352.379 831.232 352.763 830.912L352.859 831.008L353.179 830.944C353.264 830.965 353.36 831.029 353.467 831.136C353.552 831.221 353.595 831.317 353.595 831.424L353.659 831.616C353.659 831.659 353.659 831.701 353.659 831.744C353.68 831.765 353.691 831.776 353.691 831.776C354.032 833.291 354.8 835.413 355.995 838.144C357.211 841.024 357.968 842.933 358.267 843.872C358.48 844.619 358.651 845.28 358.779 845.856C359.184 847.669 359.664 849.067 360.219 850.048L360.283 849.952C360.773 845.216 361.019 839.403 361.019 832.512L360.987 832.128C360.965 832.021 360.955 831.883 360.955 831.712C360.955 831.264 361.104 831.04 361.403 831.04C361.595 831.04 361.755 831.136 361.883 831.328C362.032 831.52 362.107 831.733 362.107 831.968V834.112L361.947 834.368C361.947 836.395 361.829 839.723 361.595 844.352C361.36 848.981 361.136 851.499 360.923 851.904L360.379 852.032V852.064L360.347 852.032L360.027 852.128ZM370.361 852.224C369.38 852.224 368.655 852.107 368.185 851.872C367.716 851.637 367.364 851.189 367.129 850.528C366.916 849.845 366.724 848.768 366.553 847.296C366.297 845.141 366.169 843.467 366.169 842.272C366.169 841.547 366.212 840.715 366.297 839.776L366.489 837.76C366.596 836.16 366.713 834.955 366.841 834.144C366.991 833.312 367.3 832.587 367.769 831.968C368.26 831.328 369.007 830.955 370.009 830.848C370.116 830.827 370.287 830.816 370.521 830.816C371.183 830.816 371.513 830.965 371.513 831.264C371.513 831.392 371.439 831.509 371.289 831.616C371.161 831.701 371.023 831.744 370.873 831.744L370.553 831.712L370.265 831.68C369.903 831.68 369.572 831.797 369.273 832.032C368.996 832.267 368.761 832.608 368.569 833.056C368.121 834.123 367.833 835.168 367.705 836.192C367.535 837.536 367.428 838.709 367.385 839.712L367.353 842.176C367.353 843.221 367.385 844 367.449 844.512C367.599 844.747 367.695 845.109 367.737 845.6C367.801 846.069 367.855 846.72 367.897 847.552C367.94 848.299 368.036 848.939 368.185 849.472C368.335 849.984 368.601 850.411 368.985 850.752C369.412 851.115 369.999 851.296 370.745 851.296C371.364 851.296 371.801 850.955 372.057 850.272C372.356 849.547 372.527 848.8 372.569 848.032C372.633 847.072 372.665 846.261 372.665 845.6V843.84C372.452 843.627 372.079 843.52 371.545 843.52H371.289C371.183 843.541 371.065 843.552 370.937 843.552C370.425 843.552 370.169 843.424 370.169 843.168C370.169 842.805 370.425 842.624 370.937 842.624C371.3 842.624 371.599 842.635 371.833 842.656L372.537 842.688C372.943 842.752 373.263 842.827 373.497 842.912C373.753 842.997 373.881 843.115 373.881 843.264C373.881 843.541 373.817 843.936 373.689 844.448C373.583 845.045 373.529 845.451 373.529 845.664C373.529 846.56 373.551 847.371 373.593 848.096C373.615 848.843 373.625 849.664 373.625 850.56C372.537 851.669 371.449 852.224 370.361 852.224ZM377.781 852.384C377.546 852.341 377.322 852.245 377.109 852.096C376.896 851.968 376.778 851.808 376.757 851.616L376.917 851.36C377.002 851.36 377.194 851.392 377.493 851.456C377.728 851.541 377.92 851.584 378.069 851.584C378.538 851.584 378.954 851.403 379.317 851.04C379.68 850.656 379.957 850.165 380.149 849.568C380.448 848.459 380.597 847.413 380.597 846.432C380.597 844.96 380.149 843.381 379.253 841.696C378.698 840.715 378.272 839.936 377.973 839.36C377.674 838.784 377.408 838.123 377.173 837.376C376.896 836.501 376.757 835.659 376.757 834.848C376.757 834.08 376.949 833.173 377.333 832.128C377.525 831.637 377.792 831.243 378.133 830.944C378.496 830.624 378.88 830.464 379.285 830.464C379.562 830.464 379.829 830.56 380.085 830.752C380.362 830.944 380.501 831.147 380.501 831.36C380.501 831.531 380.362 831.616 380.085 831.616C380 831.616 379.893 831.584 379.765 831.52C379.637 831.456 379.52 831.424 379.413 831.424C379.093 831.424 378.805 831.552 378.549 831.808C378.293 832.064 378.101 832.395 377.973 832.8C377.717 833.589 377.589 834.315 377.589 834.976C377.589 835.381 377.642 835.797 377.749 836.224C377.77 836.352 377.792 836.459 377.813 836.544C377.834 836.629 377.845 836.693 377.845 836.736L378.037 837.376L378.197 837.952L378.453 838.528C378.517 838.677 378.581 838.816 378.645 838.944C378.73 839.051 378.805 839.157 378.869 839.264L379.253 839.936C379.338 840.064 379.52 840.373 379.797 840.864C380.074 841.333 380.33 841.835 380.565 842.368C380.778 842.816 380.938 843.243 381.045 843.648C381.152 844.032 381.248 844.501 381.333 845.056C381.397 845.589 381.429 846.176 381.429 846.816C381.429 847.84 381.29 848.8 381.013 849.696C380.629 850.763 380.074 851.509 379.349 851.936C378.944 852.192 378.474 852.32 377.941 852.32L377.781 852.384ZM380.341 831.52C380.341 831.499 380.33 831.488 380.309 831.488V831.52H380.341Z" fill="#25225B"/>
</g>
<path d="M58.936 337.968C57.1013 337.968 56.184 337.648 56.184 337.008C56.184 336.496 56.504 336.24 57.144 336.24H57.528C57.6133 336.261 57.7093 336.272 57.816 336.272C57.9867 336.272 58.104 336.219 58.168 336.112C58.2533 336.005 58.296 335.813 58.296 335.536C58.296 333.723 58.1893 331.248 57.976 328.112C57.784 324.848 57.688 322.384 57.688 320.72C57.688 320.123 57.6987 319.579 57.72 319.088L57.752 317.456C57.752 316.752 57.72 316.165 57.656 315.696C57.4213 315.781 57.176 315.824 56.92 315.824C56.4293 315.824 56.184 315.568 56.184 315.056C56.184 314.8 56.3333 314.576 56.632 314.384C56.952 314.192 57.3573 314.053 57.848 313.968C58.744 313.819 59.5013 313.744 60.12 313.744C60.376 313.744 60.5893 313.829 60.76 314C60.952 314.171 61.048 314.373 61.048 314.608C61.048 314.843 60.9733 315.045 60.824 315.216C60.696 315.387 60.5253 315.472 60.312 315.472C60.184 315.472 60.0773 315.461 59.992 315.44H59.736C59.5227 315.44 59.3627 315.493 59.256 315.6C59.1707 315.685 59.128 315.856 59.128 316.112C59.128 318.373 59.2667 321.488 59.544 325.456C59.8 329.616 59.928 332.741 59.928 334.832V336.048C60.0773 336.027 60.2907 336.016 60.568 336.016C61.464 336.016 61.912 336.389 61.912 337.136V337.328L61.112 337.872C61.0907 337.872 61.0267 337.883 60.92 337.904C60.8133 337.904 60.6 337.904 60.28 337.904C59.5547 337.947 59.1067 337.968 58.936 337.968ZM73.0428 338.48C72.6161 338.48 71.7414 336.283 70.4188 331.888C68.9254 326.747 67.6348 322.021 66.5468 317.712V328.208C66.5468 329.104 66.6321 330.629 66.8028 332.784C66.9521 335.131 67.0268 336.645 67.0268 337.328C67.0268 337.52 66.9094 337.691 66.6748 337.84C66.4401 337.968 66.1734 338.032 65.8748 338.032C65.4268 338.032 65.2028 337.861 65.2028 337.52L65.2668 336.592C65.3094 335.909 65.3307 335.461 65.3307 335.248C65.3307 334.117 65.2668 332.325 65.1388 329.872C65.0108 327.376 64.9468 325.861 64.9468 325.328V321.232C64.9468 320.571 64.9788 319.589 65.0428 318.288C65.1281 317.157 65.1708 316.176 65.1708 315.344V315.152C65.1708 314.085 65.4054 313.552 65.8748 313.552C66.1521 313.552 66.5041 314.021 66.9308 314.96C67.6348 316.496 68.5308 319.248 69.6188 323.216C70.2374 325.52 70.9628 328.485 71.7948 332.112C71.7734 332.027 71.9441 332.763 72.3068 334.32L72.3388 334.48C72.3388 332.411 72.3601 330.555 72.4028 328.912L72.4668 323.344V313.872C72.5521 313.339 72.8934 313.072 73.4908 313.072C74.0668 313.072 74.3548 313.488 74.3548 314.32V314.512C74.2268 314.768 74.1628 315.077 74.1628 315.44C74.1628 316.741 74.1308 318.704 74.0668 321.328C74.0028 323.973 73.9708 325.957 73.9708 327.28V337.04C73.9708 337.381 73.8748 337.701 73.6828 338C73.5121 338.32 73.2988 338.48 73.0428 338.48ZM80.0223 338.032C79.4036 338.032 79.0943 337.349 79.0943 335.984C79.0943 333.509 78.9769 329.552 78.7423 324.112C78.5289 318.672 78.3263 315.803 78.1343 315.504C78.1343 314.907 78.3689 314.448 78.8383 314.128C79.0089 314.021 79.2436 313.936 79.5423 313.872C79.8623 313.787 80.1503 313.744 80.4062 313.744C80.5343 313.723 80.8009 313.712 81.2063 313.712C81.6969 313.712 82.0489 313.797 82.2623 313.968C82.4756 314.117 82.5823 314.395 82.5823 314.8C82.5823 315.035 82.4969 315.216 82.3263 315.344C82.1556 315.451 81.9423 315.504 81.6863 315.504L81.3663 315.472H80.9183C80.3209 315.472 80.0223 315.589 80.0223 315.824C80.0223 316.933 80.0969 318.384 80.2463 320.176C80.3743 321.669 80.4596 323.088 80.5023 324.432C80.6516 324.389 80.9289 324.325 81.3343 324.24C81.7609 324.133 82.0809 324.08 82.2943 324.08C82.5289 324.08 82.7316 324.187 82.9023 324.4C83.0729 324.592 83.1583 324.816 83.1583 325.072C83.1583 325.371 83.0196 325.584 82.7423 325.712C82.6996 325.733 82.5929 325.787 82.4223 325.872C82.2729 325.936 82.0703 325.979 81.8143 326C81.6223 326.021 81.3023 326.053 80.8543 326.096H80.5023C80.5023 327.376 80.6089 329.115 80.8223 331.312C81.0143 333.616 81.1102 335.355 81.1102 336.528L81.0783 336.656L81.0463 336.72C81.0676 336.805 81.0783 336.944 81.0783 337.136C81.0783 337.413 80.9823 337.637 80.7903 337.808C80.5983 337.957 80.3423 338.032 80.0223 338.032ZM90.987 338.896C90.411 338.896 89.8883 338.704 89.419 338.32C88.9497 337.936 88.5443 337.413 88.203 336.752C87.5843 335.6 87.1257 334.021 86.827 332.016C86.6137 330.629 86.4537 329.029 86.347 327.216L86.315 325.52V323.792C86.2937 323.237 86.283 322.565 86.283 321.776C86.283 320.496 86.3363 319.365 86.443 318.384C86.5283 317.36 86.7417 316.347 87.083 315.344C87.4243 314.469 87.915 313.851 88.555 313.488C88.939 313.317 89.323 313.232 89.707 313.232C90.8377 313.232 91.7337 313.68 92.395 314.576C93.1203 315.579 93.6003 316.699 93.835 317.936C94.1763 319.429 94.3683 320.859 94.411 322.224C94.4963 323.739 94.539 325.168 94.539 326.512V328.336C94.539 328.699 94.4857 329.381 94.379 330.384C94.2937 331.173 94.251 331.845 94.251 332.4V332.528C94.123 333.125 94.059 333.829 94.059 334.64C94.059 335.237 93.931 335.856 93.675 336.496C93.419 337.136 93.0563 337.68 92.587 338.128C92.1177 338.64 91.5843 338.896 90.987 338.896ZM91.051 337.136C91.4777 337.136 91.8403 336.741 92.139 335.952C92.395 335.248 92.5763 334.395 92.683 333.392C92.811 332.368 92.9177 331.216 93.003 329.936C93.0457 329.381 93.067 328.667 93.067 327.792L93.035 324.848C92.9923 323.696 92.8643 322.256 92.651 320.528C92.4803 319.056 92.1603 317.755 91.691 316.624C91.4777 316.091 91.211 315.675 90.891 315.376C90.571 315.077 90.2297 314.928 89.867 314.928C89.3337 314.928 88.939 315.344 88.683 316.176C88.363 317.051 88.1497 318.011 88.043 319.056C87.915 320.187 87.8403 321.264 87.819 322.288L87.787 323.344C87.7657 323.643 87.755 324.048 87.755 324.56V324.688C87.755 326.117 87.9043 327.877 88.203 329.968C88.5443 332.805 89.0457 334.821 89.707 336.016C90.1337 336.763 90.5817 337.136 91.051 337.136Z" fill="#25225B"/>
<path d="M57.496 370.144C57.384 370.144 57.288 370.096 57.208 370C57.144 369.904 57.112 369.784 57.112 369.64V369.256V368.68C57.112 367.672 57.072 366.536 56.992 365.272C56.928 363.928 56.896 362.792 56.896 361.864C56.896 361 56.856 359.328 56.776 356.848C56.68 354.608 56.632 352.936 56.632 351.832C56.632 351.752 56.664 351.688 56.728 351.64C56.808 351.576 56.896 351.544 56.992 351.544C57.28 351.544 57.424 351.664 57.424 351.904C57.424 354.864 57.448 357.08 57.496 358.552L57.616 362.848C57.616 363.52 57.664 364.616 57.76 366.136L57.904 369.112C57.904 369.16 57.928 369.184 57.976 369.184C57.992 369.2 58.096 369.208 58.288 369.208H59.776C59.984 369.208 60.088 369.352 60.088 369.64C60.088 369.768 60.064 369.88 60.016 369.976C59.968 370.056 59.896 370.096 59.8 370.096L59.632 370.12H59.44C59.104 370.136 58.456 370.144 57.496 370.144ZM65.1537 370.456C63.2817 370.456 62.3457 367.512 62.3457 361.624V360.784C62.3457 356.32 62.9217 354.088 64.0737 354.088C64.1537 354.088 64.2657 354.112 64.4097 354.16C64.9217 354.336 65.4257 354.448 65.9217 354.496C66.2257 354.56 66.5297 354.872 66.8337 355.432C67.1697 356.008 67.4177 356.768 67.5777 357.712C67.7537 358.656 67.8417 359.624 67.8417 360.616L67.7937 360.736C67.7937 361.264 67.8017 361.736 67.8177 362.152L67.8417 363.592C67.8417 364.408 67.8097 365.144 67.7457 365.8C67.6497 366.792 67.4897 367.648 67.2657 368.368C67.1217 368.8 66.9537 369.16 66.7617 369.448C66.5857 369.736 66.3617 369.976 66.0897 370.168C65.8337 370.36 65.5217 370.456 65.1537 370.456ZM65.0577 369.76C65.6817 369.76 66.1457 369.32 66.4497 368.44C66.7537 367.544 66.9377 366.632 67.0017 365.704C67.0657 364.744 67.0977 363.976 67.0977 363.4C67.0977 362.76 67.0497 361.816 66.9537 360.568C66.8737 359.176 66.8337 358.232 66.8337 357.736L66.7377 357.544L66.7857 357.424C66.7857 356.72 66.5857 356.112 66.1857 355.6C65.8017 355.088 65.3297 354.832 64.7697 354.832C64.0337 354.832 63.5937 355.184 63.4497 355.888C63.4177 356.128 63.3857 356.472 63.3537 356.92C63.3537 358.104 63.3057 358.912 63.2097 359.344C63.2097 359.584 63.1857 359.96 63.1377 360.472L63.0897 361.6C63.0897 361.952 63.0977 362.264 63.1137 362.536L63.1377 363.496C63.1377 364.248 63.2017 365.112 63.3297 366.088C63.4257 366.808 63.5377 367.416 63.6657 367.912C63.7937 368.408 63.9777 368.832 64.2177 369.184C64.4577 369.568 64.7377 369.76 65.0577 369.76ZM77.0746 370.096C76.9466 370.096 76.8506 370.048 76.7866 369.952C76.7386 369.856 76.6906 369.712 76.6426 369.52C76.6266 369.392 76.5946 369.28 76.5466 369.184L76.5706 369.112C76.4426 368.36 76.1706 367.44 75.7546 366.352L75.3226 365.104C75.2906 365.072 75.1386 364.664 74.8666 363.88L74.6746 363.304C73.2346 358.856 72.3306 356.448 71.9626 356.08C71.8346 356.512 71.7706 357.072 71.7706 357.76C71.7706 358.128 71.7786 358.448 71.7946 358.72L71.8186 359.656L71.7946 360.232C71.7786 360.408 71.7706 360.6 71.7706 360.808C71.7706 361.16 71.7866 361.464 71.8186 361.72C71.8506 362.232 71.8666 362.488 71.8666 362.488H71.7946C71.7946 365.16 71.8506 366.632 71.9626 366.904V369.064C72.0266 369.192 72.0586 369.36 72.0586 369.568C72.0586 369.696 72.0106 369.808 71.9146 369.904C71.8346 370 71.7306 370.048 71.6026 370.048C71.2666 370.048 71.0986 369.616 71.0986 368.752L71.1466 367.984C71.1786 367.744 71.1946 367.48 71.1946 367.192C71.1946 366.424 71.1706 365.272 71.1226 363.736C71.0746 362.2 71.0506 361.048 71.0506 360.28C71.0506 359.816 71.0746 359.104 71.1226 358.144C71.1706 357.2 71.1946 356.496 71.1946 356.032V355.72C71.1946 354.936 71.3386 354.424 71.6266 354.184L71.6986 354.256L71.9386 354.208C72.0026 354.224 72.0746 354.272 72.1546 354.352C72.2186 354.416 72.2506 354.488 72.2506 354.568L72.2986 354.712C72.2986 354.744 72.2986 354.776 72.2986 354.808C72.3146 354.824 72.3226 354.832 72.3226 354.832C72.5786 355.968 73.1546 357.56 74.0506 359.608C74.9626 361.768 75.5306 363.2 75.7546 363.904C75.9146 364.464 76.0426 364.96 76.1386 365.392C76.4426 366.752 76.8026 367.8 77.2186 368.536L77.2666 368.464C77.6346 364.912 77.8186 360.552 77.8186 355.384L77.7946 355.096C77.7786 355.016 77.7706 354.912 77.7706 354.784C77.7706 354.448 77.8826 354.28 78.1066 354.28C78.2506 354.28 78.3706 354.352 78.4666 354.496C78.5786 354.64 78.6346 354.8 78.6346 354.976V356.584L78.5146 356.776C78.5146 358.296 78.4266 360.792 78.2506 364.264C78.0746 367.736 77.9066 369.624 77.7466 369.928L77.3386 370.024V370.048L77.3146 370.024L77.0746 370.096ZM84.8256 370.168C84.0896 370.168 83.5456 370.08 83.1936 369.904C82.8416 369.728 82.5776 369.392 82.4016 368.896C82.2416 368.384 82.0976 367.576 81.9696 366.472C81.7776 364.856 81.6816 363.6 81.6816 362.704C81.6816 362.16 81.7136 361.536 81.7776 360.832L81.9216 359.32C82.0016 358.12 82.0896 357.216 82.1856 356.608C82.2976 355.984 82.5296 355.44 82.8816 354.976C83.2496 354.496 83.8096 354.216 84.5616 354.136C84.6416 354.12 84.7696 354.112 84.9456 354.112C85.4416 354.112 85.6896 354.224 85.6896 354.448C85.6896 354.544 85.6336 354.632 85.5216 354.712C85.4256 354.776 85.3216 354.808 85.2096 354.808L84.9696 354.784L84.7536 354.76C84.4816 354.76 84.2336 354.848 84.0096 355.024C83.8016 355.2 83.6256 355.456 83.4816 355.792C83.1456 356.592 82.9296 357.376 82.8336 358.144C82.7056 359.152 82.6256 360.032 82.5936 360.784L82.5696 362.632C82.5696 363.416 82.5936 364 82.6416 364.384C82.7536 364.56 82.8256 364.832 82.8576 365.2C82.9056 365.552 82.9456 366.04 82.9776 366.664C83.0096 367.224 83.0816 367.704 83.1936 368.104C83.3056 368.488 83.5056 368.808 83.7936 369.064C84.1136 369.336 84.5536 369.472 85.1136 369.472C85.5776 369.472 85.9056 369.216 86.0976 368.704C86.3216 368.16 86.4496 367.6 86.4816 367.024C86.5296 366.304 86.5536 365.696 86.5536 365.2V363.88C86.3936 363.72 86.1136 363.64 85.7136 363.64H85.5216C85.4416 363.656 85.3536 363.664 85.2576 363.664C84.8736 363.664 84.6816 363.568 84.6816 363.376C84.6816 363.104 84.8736 362.968 85.2576 362.968C85.5296 362.968 85.7536 362.976 85.9296 362.992L86.4576 363.016C86.7616 363.064 87.0016 363.12 87.1776 363.184C87.3696 363.248 87.4656 363.336 87.4656 363.448C87.4656 363.656 87.4176 363.952 87.3216 364.336C87.2416 364.784 87.2016 365.088 87.2016 365.248C87.2016 365.92 87.2176 366.528 87.2496 367.072C87.2656 367.632 87.2736 368.248 87.2736 368.92C86.4576 369.752 85.6416 370.168 84.8256 370.168ZM95.812 369.664L95.788 368.776C95.772 368.52 95.764 368.232 95.764 367.912C95.764 367.752 95.772 367.616 95.788 367.504L95.812 367.072C95.812 366.912 95.78 366.72 95.716 366.496C95.716 365.424 95.636 363.432 95.476 360.52C95.316 357.704 95.228 355.792 95.212 354.784C94.22 354.784 93.556 354.76 93.22 354.712C92.9 354.632 92.74 354.504 92.74 354.328C92.82 354.152 92.972 354.064 93.196 354.064C93.676 354.064 94.372 354.096 95.284 354.16C96.116 354.24 96.812 354.28 97.372 354.28H97.876L98.38 354.256C98.668 354.256 98.812 354.36 98.812 354.568C98.812 354.664 98.756 354.744 98.644 354.808C98.548 354.856 98.428 354.88 98.284 354.88C97.964 354.88 97.628 354.864 97.276 354.832L96.244 354.784C96.18 354.784 96.148 354.808 96.148 354.856C96.132 354.904 96.124 355.056 96.124 355.312C96.124 356.864 96.22 359.216 96.412 362.368C96.588 365.632 96.676 367.976 96.676 369.4C96.676 369.512 96.604 369.616 96.46 369.712C96.332 369.808 96.204 369.856 96.076 369.856L95.812 369.664ZM101.809 370.312C101.521 370.312 101.361 370.144 101.329 369.808V369.496C101.345 369.416 101.353 369.32 101.353 369.208L101.257 369.112C101.385 368.776 101.449 368.448 101.449 368.128C101.449 367.76 101.425 367.232 101.377 366.544L101.329 364.96C101.329 364.16 101.353 362.96 101.401 361.36C101.465 359.936 101.497 358.728 101.497 357.736L101.449 356.296C101.417 355.864 101.401 355.384 101.401 354.856C101.401 354.616 101.457 354.448 101.569 354.352C101.681 354.24 101.857 354.184 102.097 354.184C102.257 354.184 102.385 354.232 102.481 354.328C102.513 354.344 102.745 354.376 103.177 354.424C103.577 354.472 103.921 354.544 104.209 354.64C104.513 354.736 104.665 354.856 104.665 355C104.665 355.16 104.513 355.32 104.209 355.48C103.297 355.176 102.649 355.024 102.265 355.024L102.145 355.168C102.161 355.312 102.169 355.656 102.169 356.2C102.169 356.888 102.153 357.504 102.121 358.048C102.105 358.608 102.097 359.232 102.097 359.92C102.097 360.368 102.209 360.592 102.433 360.592L102.817 360.568C102.945 360.552 103.081 360.544 103.225 360.544C103.849 360.544 104.161 360.688 104.161 360.976C104.161 361.152 104.121 361.304 104.041 361.432C103.961 361.544 103.841 361.6 103.681 361.6C103.441 361.6 103.257 361.536 103.129 361.408L102.361 361.288H102.241L102.121 361.408V361.48C102.153 361.752 102.169 362.384 102.169 363.376C102.169 364 102.161 364.568 102.145 365.08L102.121 366.784C102.121 367.408 102.145 368.048 102.193 368.704C102.209 369.072 102.289 369.32 102.433 369.448C102.577 369.56 102.841 369.616 103.225 369.616L103.657 369.592C103.801 369.576 103.961 369.568 104.137 369.568C104.601 369.568 104.833 369.672 104.833 369.88C104.833 370.168 104.481 370.312 103.777 370.312H101.809ZM107.518 370.072C107.214 370.072 107.062 369.976 107.062 369.784C107.062 368.984 107.286 367.736 107.734 366.04C108.182 364.36 108.406 363.104 108.406 362.272C108.406 361.824 108.19 360.608 107.758 358.624C107.326 356.64 107.038 355.56 106.894 355.384V355.288C106.91 355.272 106.918 355.256 106.918 355.24C106.918 355.224 106.918 355.216 106.918 355.216C106.918 355.12 106.878 355.008 106.798 354.88C106.734 354.688 106.702 354.592 106.702 354.592C106.702 354.528 106.75 354.472 106.846 354.424C106.958 354.376 107.054 354.352 107.134 354.352C107.262 354.352 107.366 354.448 107.446 354.64C107.542 354.832 107.606 355.032 107.638 355.24L107.662 355.792C107.886 356.448 108.086 357.248 108.262 358.192C108.47 359.248 108.638 359.992 108.766 360.424C108.862 360.232 108.982 359.608 109.126 358.552C109.286 357.496 109.39 356.704 109.438 356.176C109.534 354.88 109.638 354.216 109.75 354.184C109.75 354.184 109.814 354.168 109.942 354.136L110.134 354.112L110.35 354.4C110.094 354.768 109.966 355.472 109.966 356.512V356.656L109.99 356.8L109.966 356.824C109.902 357.4 109.742 358.28 109.486 359.464C109.214 360.776 109.078 361.768 109.078 362.44C109.078 362.696 109.286 363.76 109.702 365.632C110.118 367.504 110.39 368.6 110.518 368.92C110.518 368.936 110.558 369 110.638 369.112C110.75 369.32 110.806 369.488 110.806 369.616C110.806 369.712 110.766 369.792 110.686 369.856C110.622 369.92 110.542 369.952 110.446 369.952C110.334 369.952 110.23 369.928 110.134 369.88L109.702 368.056C109.318 366.616 109.014 365.28 108.79 364.048C108.598 364.336 108.422 365.168 108.262 366.544C108.102 367.968 107.958 368.848 107.83 369.184C107.862 369.248 107.878 369.344 107.878 369.472C107.878 369.632 107.846 369.776 107.782 369.904C107.734 370.016 107.646 370.072 107.518 370.072ZM115.054 369.664L115.03 368.776C115.014 368.52 115.006 368.232 115.006 367.912C115.006 367.752 115.014 367.616 115.03 367.504L115.054 367.072C115.054 366.912 115.022 366.72 114.958 366.496C114.958 365.424 114.878 363.432 114.718 360.52C114.558 357.704 114.47 355.792 114.454 354.784C113.462 354.784 112.798 354.76 112.462 354.712C112.142 354.632 111.982 354.504 111.982 354.328C112.062 354.152 112.214 354.064 112.438 354.064C112.918 354.064 113.614 354.096 114.526 354.16C115.358 354.24 116.054 354.28 116.614 354.28H117.118L117.622 354.256C117.91 354.256 118.054 354.36 118.054 354.568C118.054 354.664 117.998 354.744 117.886 354.808C117.79 354.856 117.67 354.88 117.526 354.88C117.206 354.88 116.87 354.864 116.518 354.832L115.486 354.784C115.422 354.784 115.39 354.808 115.39 354.856C115.374 354.904 115.366 355.056 115.366 355.312C115.366 356.864 115.462 359.216 115.654 362.368C115.83 365.632 115.918 367.976 115.918 369.4C115.918 369.512 115.846 369.616 115.702 369.712C115.574 369.808 115.446 369.856 115.318 369.856L115.054 369.664Z" fill="#25225B"/>
<path d="M57.496 430.144C57.384 430.144 57.288 430.096 57.208 430C57.144 429.904 57.112 429.784 57.112 429.64V429.256V428.68C57.112 427.672 57.072 426.536 56.992 425.272C56.928 423.928 56.896 422.792 56.896 421.864C56.896 421 56.856 419.328 56.776 416.848C56.68 414.608 56.632 412.936 56.632 411.832C56.632 411.752 56.664 411.688 56.728 411.64C56.808 411.576 56.896 411.544 56.992 411.544C57.28 411.544 57.424 411.664 57.424 411.904C57.424 414.864 57.448 417.08 57.496 418.552L57.616 422.848C57.616 423.52 57.664 424.616 57.76 426.136L57.904 429.112C57.904 429.16 57.928 429.184 57.976 429.184C57.992 429.2 58.096 429.208 58.288 429.208H59.776C59.984 429.208 60.088 429.352 60.088 429.64C60.088 429.768 60.064 429.88 60.016 429.976C59.968 430.056 59.896 430.096 59.8 430.096L59.632 430.12H59.44C59.104 430.136 58.456 430.144 57.496 430.144ZM65.1537 430.456C63.2817 430.456 62.3457 427.512 62.3457 421.624V420.784C62.3457 416.32 62.9217 414.088 64.0737 414.088C64.1537 414.088 64.2657 414.112 64.4097 414.16C64.9217 414.336 65.4257 414.448 65.9217 414.496C66.2257 414.56 66.5297 414.872 66.8337 415.432C67.1697 416.008 67.4177 416.768 67.5777 417.712C67.7537 418.656 67.8417 419.624 67.8417 420.616L67.7937 420.736C67.7937 421.264 67.8017 421.736 67.8177 422.152L67.8417 423.592C67.8417 424.408 67.8097 425.144 67.7457 425.8C67.6497 426.792 67.4897 427.648 67.2657 428.368C67.1217 428.8 66.9537 429.16 66.7617 429.448C66.5857 429.736 66.3617 429.976 66.0897 430.168C65.8337 430.36 65.5217 430.456 65.1537 430.456ZM65.0577 429.76C65.6817 429.76 66.1457 429.32 66.4497 428.44C66.7537 427.544 66.9377 426.632 67.0017 425.704C67.0657 424.744 67.0977 423.976 67.0977 423.4C67.0977 422.76 67.0497 421.816 66.9537 420.568C66.8737 419.176 66.8337 418.232 66.8337 417.736L66.7377 417.544L66.7857 417.424C66.7857 416.72 66.5857 416.112 66.1857 415.6C65.8017 415.088 65.3297 414.832 64.7697 414.832C64.0337 414.832 63.5937 415.184 63.4497 415.888C63.4177 416.128 63.3857 416.472 63.3537 416.92C63.3537 418.104 63.3057 418.912 63.2097 419.344C63.2097 419.584 63.1857 419.96 63.1377 420.472L63.0897 421.6C63.0897 421.952 63.0977 422.264 63.1137 422.536L63.1377 423.496C63.1377 424.248 63.2017 425.112 63.3297 426.088C63.4257 426.808 63.5377 427.416 63.6657 427.912C63.7937 428.408 63.9777 428.832 64.2177 429.184C64.4577 429.568 64.7377 429.76 65.0577 429.76ZM77.0746 430.096C76.9466 430.096 76.8506 430.048 76.7866 429.952C76.7386 429.856 76.6906 429.712 76.6426 429.52C76.6266 429.392 76.5946 429.28 76.5466 429.184L76.5706 429.112C76.4426 428.36 76.1706 427.44 75.7546 426.352L75.3226 425.104C75.2906 425.072 75.1386 424.664 74.8666 423.88L74.6746 423.304C73.2346 418.856 72.3306 416.448 71.9626 416.08C71.8346 416.512 71.7706 417.072 71.7706 417.76C71.7706 418.128 71.7786 418.448 71.7946 418.72L71.8186 419.656L71.7946 420.232C71.7786 420.408 71.7706 420.6 71.7706 420.808C71.7706 421.16 71.7866 421.464 71.8186 421.72C71.8506 422.232 71.8666 422.488 71.8666 422.488H71.7946C71.7946 425.16 71.8506 426.632 71.9626 426.904V429.064C72.0266 429.192 72.0586 429.36 72.0586 429.568C72.0586 429.696 72.0106 429.808 71.9146 429.904C71.8346 430 71.7306 430.048 71.6026 430.048C71.2666 430.048 71.0986 429.616 71.0986 428.752L71.1466 427.984C71.1786 427.744 71.1946 427.48 71.1946 427.192C71.1946 426.424 71.1706 425.272 71.1226 423.736C71.0746 422.2 71.0506 421.048 71.0506 420.28C71.0506 419.816 71.0746 419.104 71.1226 418.144C71.1706 417.2 71.1946 416.496 71.1946 416.032V415.72C71.1946 414.936 71.3386 414.424 71.6266 414.184L71.6986 414.256L71.9386 414.208C72.0026 414.224 72.0746 414.272 72.1546 414.352C72.2186 414.416 72.2506 414.488 72.2506 414.568L72.2986 414.712C72.2986 414.744 72.2986 414.776 72.2986 414.808C72.3146 414.824 72.3226 414.832 72.3226 414.832C72.5786 415.968 73.1546 417.56 74.0506 419.608C74.9626 421.768 75.5306 423.2 75.7546 423.904C75.9146 424.464 76.0426 424.96 76.1386 425.392C76.4426 426.752 76.8026 427.8 77.2186 428.536L77.2666 428.464C77.6346 424.912 77.8186 420.552 77.8186 415.384L77.7946 415.096C77.7786 415.016 77.7706 414.912 77.7706 414.784C77.7706 414.448 77.8826 414.28 78.1066 414.28C78.2506 414.28 78.3706 414.352 78.4666 414.496C78.5786 414.64 78.6346 414.8 78.6346 414.976V416.584L78.5146 416.776C78.5146 418.296 78.4266 420.792 78.2506 424.264C78.0746 427.736 77.9066 429.624 77.7466 429.928L77.3386 430.024V430.048L77.3146 430.024L77.0746 430.096ZM84.8256 430.168C84.0896 430.168 83.5456 430.08 83.1936 429.904C82.8416 429.728 82.5776 429.392 82.4016 428.896C82.2416 428.384 82.0976 427.576 81.9696 426.472C81.7776 424.856 81.6816 423.6 81.6816 422.704C81.6816 422.16 81.7136 421.536 81.7776 420.832L81.9216 419.32C82.0016 418.12 82.0896 417.216 82.1856 416.608C82.2976 415.984 82.5296 415.44 82.8816 414.976C83.2496 414.496 83.8096 414.216 84.5616 414.136C84.6416 414.12 84.7696 414.112 84.9456 414.112C85.4416 414.112 85.6896 414.224 85.6896 414.448C85.6896 414.544 85.6336 414.632 85.5216 414.712C85.4256 414.776 85.3216 414.808 85.2096 414.808L84.9696 414.784L84.7536 414.76C84.4816 414.76 84.2336 414.848 84.0096 415.024C83.8016 415.2 83.6256 415.456 83.4816 415.792C83.1456 416.592 82.9296 417.376 82.8336 418.144C82.7056 419.152 82.6256 420.032 82.5936 420.784L82.5696 422.632C82.5696 423.416 82.5936 424 82.6416 424.384C82.7536 424.56 82.8256 424.832 82.8576 425.2C82.9056 425.552 82.9456 426.04 82.9776 426.664C83.0096 427.224 83.0816 427.704 83.1936 428.104C83.3056 428.488 83.5056 428.808 83.7936 429.064C84.1136 429.336 84.5536 429.472 85.1136 429.472C85.5776 429.472 85.9056 429.216 86.0976 428.704C86.3216 428.16 86.4496 427.6 86.4816 427.024C86.5296 426.304 86.5536 425.696 86.5536 425.2V423.88C86.3936 423.72 86.1136 423.64 85.7136 423.64H85.5216C85.4416 423.656 85.3536 423.664 85.2576 423.664C84.8736 423.664 84.6816 423.568 84.6816 423.376C84.6816 423.104 84.8736 422.968 85.2576 422.968C85.5296 422.968 85.7536 422.976 85.9296 422.992L86.4576 423.016C86.7616 423.064 87.0016 423.12 87.1776 423.184C87.3696 423.248 87.4656 423.336 87.4656 423.448C87.4656 423.656 87.4176 423.952 87.3216 424.336C87.2416 424.784 87.2016 425.088 87.2016 425.248C87.2016 425.92 87.2176 426.528 87.2496 427.072C87.2656 427.632 87.2736 428.248 87.2736 428.92C86.4576 429.752 85.6416 430.168 84.8256 430.168ZM96.46 430.144C96.3 430.144 96.18 430.088 96.1 429.976C96.02 429.848 95.98 429.696 95.98 429.52V427.384V425.248L95.932 421.408C95.884 419.696 95.86 418.416 95.86 417.568L95.884 416.872V415.312C95.884 413.584 95.868 412.72 95.836 412.72H93.124C92.996 412.72 92.876 412.688 92.764 412.624C92.668 412.56 92.62 412.472 92.62 412.36C92.62 412.232 92.644 412.144 92.692 412.096C92.74 412.048 92.868 412.008 93.076 411.976C93.3 411.928 93.62 411.904 94.036 411.904H96.436L99.076 411.88C99.268 411.88 99.396 411.912 99.46 411.976C99.54 412.04 99.58 412.144 99.58 412.288C99.58 412.528 99.428 412.648 99.124 412.648H98.044H96.988L96.772 412.672L96.796 414.064V415.936V425.68V427.672L96.82 429.448V429.496C96.82 429.624 96.812 429.736 96.796 429.832C96.78 429.912 96.748 429.976 96.7 430.024C96.652 430.104 96.572 430.144 96.46 430.144ZM102.348 430.312C102.06 430.312 101.9 430.144 101.868 429.808V429.496C101.884 429.416 101.892 429.32 101.892 429.208L101.796 429.112C101.924 428.776 101.988 428.448 101.988 428.128C101.988 427.76 101.964 427.232 101.916 426.544L101.868 424.96C101.868 424.16 101.892 422.96 101.94 421.36C102.004 419.936 102.036 418.728 102.036 417.736L101.988 416.296C101.956 415.864 101.94 415.384 101.94 414.856C101.94 414.616 101.996 414.448 102.108 414.352C102.22 414.24 102.396 414.184 102.636 414.184C102.796 414.184 102.924 414.232 103.02 414.328C103.052 414.344 103.284 414.376 103.716 414.424C104.116 414.472 104.46 414.544 104.748 414.64C105.052 414.736 105.204 414.856 105.204 415C105.204 415.16 105.052 415.32 104.748 415.48C103.836 415.176 103.188 415.024 102.804 415.024L102.684 415.168C102.7 415.312 102.708 415.656 102.708 416.2C102.708 416.888 102.692 417.504 102.66 418.048C102.644 418.608 102.636 419.232 102.636 419.92C102.636 420.368 102.748 420.592 102.972 420.592L103.356 420.568C103.484 420.552 103.62 420.544 103.764 420.544C104.388 420.544 104.7 420.688 104.7 420.976C104.7 421.152 104.66 421.304 104.58 421.432C104.5 421.544 104.38 421.6 104.22 421.6C103.98 421.6 103.796 421.536 103.668 421.408L102.9 421.288H102.78L102.66 421.408V421.48C102.692 421.752 102.708 422.384 102.708 423.376C102.708 424 102.7 424.568 102.684 425.08L102.66 426.784C102.66 427.408 102.684 428.048 102.732 428.704C102.748 429.072 102.828 429.32 102.972 429.448C103.116 429.56 103.38 429.616 103.764 429.616L104.196 429.592C104.34 429.576 104.5 429.568 104.676 429.568C105.14 429.568 105.372 429.672 105.372 429.88C105.372 430.168 105.02 430.312 104.316 430.312H102.348ZM108.057 430.072C107.753 430.072 107.601 429.976 107.601 429.784C107.601 428.984 107.825 427.736 108.273 426.04C108.721 424.36 108.945 423.104 108.945 422.272C108.945 421.824 108.729 420.608 108.297 418.624C107.865 416.64 107.577 415.56 107.433 415.384V415.288C107.449 415.272 107.457 415.256 107.457 415.24C107.457 415.224 107.457 415.216 107.457 415.216C107.457 415.12 107.417 415.008 107.337 414.88C107.273 414.688 107.241 414.592 107.241 414.592C107.241 414.528 107.289 414.472 107.385 414.424C107.497 414.376 107.593 414.352 107.673 414.352C107.801 414.352 107.905 414.448 107.985 414.64C108.081 414.832 108.145 415.032 108.177 415.24L108.201 415.792C108.425 416.448 108.625 417.248 108.801 418.192C109.009 419.248 109.177 419.992 109.305 420.424C109.401 420.232 109.521 419.608 109.665 418.552C109.825 417.496 109.929 416.704 109.977 416.176C110.073 414.88 110.177 414.216 110.289 414.184C110.289 414.184 110.353 414.168 110.481 414.136L110.673 414.112L110.889 414.4C110.633 414.768 110.505 415.472 110.505 416.512V416.656L110.529 416.8L110.505 416.824C110.441 417.4 110.281 418.28 110.025 419.464C109.753 420.776 109.617 421.768 109.617 422.44C109.617 422.696 109.825 423.76 110.241 425.632C110.657 427.504 110.929 428.6 111.057 428.92C111.057 428.936 111.097 429 111.177 429.112C111.289 429.32 111.345 429.488 111.345 429.616C111.345 429.712 111.305 429.792 111.225 429.856C111.161 429.92 111.081 429.952 110.985 429.952C110.873 429.952 110.769 429.928 110.673 429.88L110.241 428.056C109.857 426.616 109.553 425.28 109.329 424.048C109.137 424.336 108.961 425.168 108.801 426.544C108.641 427.968 108.497 428.848 108.369 429.184C108.401 429.248 108.417 429.344 108.417 429.472C108.417 429.632 108.385 429.776 108.321 429.904C108.273 430.016 108.185 430.072 108.057 430.072ZM115.593 429.664L115.569 428.776C115.553 428.52 115.545 428.232 115.545 427.912C115.545 427.752 115.553 427.616 115.569 427.504L115.593 427.072C115.593 426.912 115.561 426.72 115.497 426.496C115.497 425.424 115.417 423.432 115.257 420.52C115.097 417.704 115.009 415.792 114.993 414.784C114.001 414.784 113.337 414.76 113.001 414.712C112.681 414.632 112.521 414.504 112.521 414.328C112.601 414.152 112.753 414.064 112.977 414.064C113.457 414.064 114.153 414.096 115.065 414.16C115.897 414.24 116.593 414.28 117.153 414.28H117.657L118.161 414.256C118.449 414.256 118.593 414.36 118.593 414.568C118.593 414.664 118.537 414.744 118.425 414.808C118.329 414.856 118.209 414.88 118.065 414.88C117.745 414.88 117.409 414.864 117.057 414.832L116.025 414.784C115.961 414.784 115.929 414.808 115.929 414.856C115.913 414.904 115.905 415.056 115.905 415.312C115.905 416.864 116.001 419.216 116.193 422.368C116.369 425.632 116.457 427.976 116.457 429.4C116.457 429.512 116.385 429.616 116.241 429.712C116.113 429.808 115.985 429.856 115.857 429.856L115.593 429.664Z" fill="#25225B"/>
<path d="M188.592 250C188.059 250 187.659 249.9 187.392 249.7C187.159 249.5 187.042 249.167 187.042 248.7V242.15C186.609 241.85 185.792 241.583 184.592 241.35C183.392 241.117 182.259 240.967 181.192 240.9C180.826 241.6 180.559 242.45 180.392 243.45L180.192 244.45C180.159 244.683 180.059 245.2 179.892 246C179.726 246.8 179.542 247.5 179.342 248.1C179.142 248.667 178.942 249.117 178.742 249.45C177.476 249.45 176.742 249.117 176.542 248.45C176.909 247.917 177.326 246.35 177.792 243.75L179.442 234.6C180.176 230.267 180.842 226.567 181.442 223.5C182.076 220.433 182.742 217.867 183.442 215.8C184.209 213.5 184.942 212.35 185.642 212.35C186.342 212.35 186.876 212.483 187.242 212.75C187.242 214.083 187.559 217.3 188.192 222.4C188.859 227.4 189.192 230.817 189.192 232.65C189.192 234.417 189.376 236.95 189.742 240.25C190.076 243.617 190.242 246.3 190.242 248.3C190.242 249.433 189.692 250 188.592 250ZM185.992 239.25C186.259 239.25 186.592 239.2 186.992 239.1C186.892 237.633 186.726 235.817 186.492 233.65C185.726 226.117 185.342 221.5 185.342 219.8V219.4C185.009 219.733 184.542 221.25 183.942 223.95C183.376 226.617 182.842 229.483 182.342 232.55C181.842 235.617 181.576 237.65 181.542 238.65C182.942 239.05 184.426 239.25 185.992 239.25ZM197.673 250.5C196.94 250.5 196.49 250.183 196.323 249.55C196.19 249.15 196.123 248.583 196.123 247.85C196.123 246.417 196.19 244.65 196.323 242.55C196.49 240.55 196.573 238.767 196.573 237.2C196.573 235.433 196.623 232.783 196.723 229.25L196.823 221.35C196.823 221.05 196.773 220.6 196.673 220L196.523 218.75V218.5C196.523 217.733 196.64 217.167 196.873 216.8C197.106 216.433 197.54 216.25 198.173 216.25C199.04 216.25 199.99 216.5 201.023 217C202.056 217.5 202.806 218.133 203.273 218.9C204.24 220.5 204.723 222.5 204.723 224.9C204.723 226.7 204.573 228.217 204.273 229.45C203.973 230.65 203.456 231.767 202.723 232.8C203.623 233.667 204.223 234.783 204.523 236.15C204.856 237.483 205.023 239.167 205.023 241.2C205.023 243.233 204.673 245 203.973 246.5C203.173 248.2 202.006 249.367 200.473 250C199.54 250.333 198.606 250.5 197.673 250.5ZM199.273 231.35C201.006 231.317 201.873 229.3 201.873 225.3C201.873 221 201.19 218.75 199.823 218.55C199.456 219.317 199.273 221.117 199.273 223.95V231.35ZM198.973 247.95C200.04 247.717 200.873 247.083 201.473 246.05C202.073 245.017 202.373 243.833 202.373 242.5C202.373 241.1 202.29 239.867 202.123 238.8C201.99 237.967 201.806 237.283 201.573 236.75C201.373 236.183 201.09 235.667 200.723 235.2C200.323 234.7 199.856 234.4 199.323 234.3C199.19 236.2 199.123 238.717 199.123 241.85C199.123 242.05 199.09 242.683 199.023 243.75L198.923 245.45C198.923 245.517 198.94 245.567 198.973 245.6V245.7V247.95ZM216.331 250.95C215.464 250.95 214.664 250.667 213.931 250.1C213.197 249.567 212.597 248.833 212.131 247.9C211.164 245.867 210.564 243.65 210.331 241.25C210.031 238.983 209.881 236.8 209.881 234.7C209.881 234.3 209.897 233.967 209.931 233.7V232.8C209.931 232.633 209.914 232.55 209.881 232.55V231.65L209.931 228.15C209.964 227.083 210.097 225.383 210.331 223.05C210.497 221.45 210.881 219.9 211.481 218.4C211.714 217.733 212.014 217.233 212.381 216.9C212.747 216.533 213.164 216.35 213.631 216.35C214.964 216.35 216.164 216.6 217.231 217.1C218.297 217.567 219.197 218.233 219.931 219.1C220.597 219.933 221.164 220.967 221.631 222.2C222.097 223.4 222.431 224.683 222.631 226.05C222.831 227.45 222.931 228.933 222.931 230.5V230.9C222.931 231.933 222.947 232.867 222.981 233.7L223.031 236.55C223.031 246.15 220.797 250.95 216.331 250.95ZM216.131 248.85C216.731 248.85 217.281 248.617 217.781 248.15C218.281 247.65 218.664 246.983 218.931 246.15C219.564 244.45 219.947 242.617 220.081 240.65C220.247 238.95 220.331 237.483 220.331 236.25C220.331 234.75 220.214 232.783 219.981 230.35C219.781 227.783 219.681 225.867 219.681 224.6V223.7C219.614 222.433 219.181 221.333 218.381 220.4C217.614 219.467 216.664 219 215.531 219C214.397 219 213.647 219.65 213.281 220.95C212.947 221.983 212.781 223.317 212.781 224.95C212.781 225.583 212.797 226.117 212.831 226.55V227.9L212.731 230.2C212.664 230.9 212.631 231.667 212.631 232.5C212.631 234.3 212.681 236.083 212.781 237.85C212.914 240.35 213.247 242.783 213.781 245.15C214.314 247.617 215.097 248.85 216.131 248.85ZM233.848 250.75C233.048 250.75 232.332 250.567 231.698 250.2C231.065 249.867 230.548 249.367 230.148 248.7C229.348 247.3 228.832 245.717 228.598 243.95C228.365 242.417 228.248 240.583 228.248 238.45C228.148 234.85 228.098 230.45 228.098 225.25L228.048 221.4C228.015 221.2 227.998 220.867 227.998 220.4C227.932 219.133 227.898 218.367 227.898 218.1C228.198 217.4 228.548 217.05 228.948 217.05C229.348 217.05 229.698 217.35 229.998 217.95C230.332 218.55 230.498 219.2 230.498 219.9V233.5C230.498 234.833 230.615 236.6 230.848 238.8C231.082 241.533 231.198 243.3 231.198 244.1C231.198 246.567 232.248 247.8 234.348 247.8C236.748 247.8 237.948 238.833 237.948 220.9V218.1V217.65C237.915 217.55 237.898 217.417 237.898 217.25C237.898 216.85 237.982 216.567 238.148 216.4C238.348 216.2 238.715 216.1 239.248 216.1C239.682 216.1 240.015 216.233 240.248 216.5C240.515 216.733 240.682 217.017 240.748 217.35C240.782 217.55 240.798 217.933 240.798 218.5C240.798 219.033 240.748 219.883 240.648 221.05C240.515 222.017 240.448 222.85 240.448 223.55C240.448 224.317 240.415 225 240.348 225.6L240.248 227.7V228.1C240.282 228.233 240.298 228.383 240.298 228.55C240.298 243.35 238.148 250.75 233.848 250.75ZM249.365 249.2L249.315 247.25C249.281 246.683 249.265 246.05 249.265 245.35L249.315 243.65C249.215 243.283 248.965 239.633 248.565 232.7C248.165 225.767 247.931 221.317 247.865 219.35C245.931 219.283 244.698 219.083 244.165 218.75C243.798 218.483 243.615 218.183 243.615 217.85C243.615 217.583 243.781 217.35 244.115 217.15C244.481 216.917 244.848 216.8 245.215 216.8C246.148 216.8 247.281 216.867 248.615 217C249.881 217.167 251.015 217.25 252.015 217.25H252.415H252.815C253.848 217.25 254.365 217.65 254.365 218.45C254.365 218.85 254.198 219.183 253.865 219.45C253.531 219.683 253.148 219.8 252.715 219.8C252.415 219.8 251.981 219.75 251.415 219.65L250.415 219.45L250.365 219.7L250.315 219.95C250.315 222.917 250.598 227.65 251.165 234.15C251.698 240.25 251.965 244.983 251.965 248.35C251.965 248.75 251.781 249.1 251.415 249.4C251.081 249.7 250.698 249.85 250.265 249.85L249.365 249.2Z" fill="#25225B"/>
<path d="M44.2604 826.808C44.7251 826.446 45.2909 826.239 45.8792 826.214C46.4674 826.188 47.0489 826.347 47.5428 826.668L47.7397 826.809L59.617 836.046C60.6384 836.841 60.1412 838.443 58.9101 838.575L58.7458 838.583H57.3334V849.917C57.3336 850.631 57.0636 851.32 56.5776 851.844C56.0915 852.368 55.4253 852.689 54.7125 852.743L54.5 852.75H37.5C36.7854 852.75 36.0973 852.48 35.5735 851.994C35.0496 851.508 34.7288 850.842 34.6752 850.129L34.6667 849.917V838.583H33.2543C31.9609 838.583 31.3673 837.014 32.2584 836.154L32.383 836.046L44.2604 826.808ZM46 829.045L36.9688 836.069C37.2932 836.331 37.5 836.732 37.5 837.181V849.917H41.75V842.833C41.75 841.706 42.1978 840.625 42.9948 839.828C43.7918 839.031 44.8728 838.583 46 838.583C47.1272 838.583 48.2082 839.031 49.0052 839.828C49.8023 840.625 50.25 841.706 50.25 842.833V849.917H54.5V837.181C54.5 836.732 54.7069 836.331 55.0313 836.069L46 829.045ZM46 841.417C45.6243 841.417 45.264 841.566 44.9983 841.832C44.7326 842.097 44.5834 842.458 44.5834 842.833V849.917H47.4167V842.833C47.4167 842.458 47.2674 842.097 47.0018 841.832C46.7361 841.566 46.3757 841.417 46 841.417Z" fill="#25225B"/>
<path d="M74.416 854.552L74.384 853.368C74.3627 853.027 74.352 852.643 74.352 852.216C74.352 852.003 74.3627 851.821 74.384 851.672L74.416 851.096C74.416 850.883 74.3733 850.627 74.288 850.328C74.288 848.899 74.1813 846.243 73.968 842.36C73.7547 838.605 73.6373 836.056 73.616 834.712C72.2933 834.712 71.408 834.68 70.96 834.616C70.5333 834.509 70.32 834.339 70.32 834.104C70.4267 833.869 70.6293 833.752 70.928 833.752C71.568 833.752 72.496 833.795 73.712 833.88C74.8213 833.987 75.7493 834.04 76.496 834.04H77.168L77.84 834.008C78.224 834.008 78.416 834.147 78.416 834.424C78.416 834.552 78.3413 834.659 78.192 834.744C78.064 834.808 77.904 834.84 77.712 834.84C77.2853 834.84 76.8373 834.819 76.368 834.776L74.992 834.712C74.9067 834.712 74.864 834.744 74.864 834.808C74.8427 834.872 74.832 835.075 74.832 835.416C74.832 837.485 74.96 840.621 75.216 844.824C75.4507 849.176 75.568 852.301 75.568 854.2C75.568 854.349 75.472 854.488 75.28 854.616C75.1093 854.744 74.9387 854.808 74.768 854.808L74.416 854.552ZM85.132 855.608C82.636 855.608 81.388 851.683 81.388 843.832V842.712C81.388 836.76 82.156 833.784 83.692 833.784C83.7987 833.784 83.948 833.816 84.14 833.88C84.8227 834.115 85.4947 834.264 86.156 834.328C86.5613 834.413 86.9667 834.829 87.372 835.576C87.82 836.344 88.1507 837.357 88.364 838.616C88.5987 839.875 88.716 841.165 88.716 842.488L88.652 842.648C88.652 843.352 88.6627 843.981 88.684 844.536L88.716 846.456C88.716 847.544 88.6733 848.525 88.588 849.4C88.46 850.723 88.2467 851.864 87.948 852.824C87.756 853.4 87.532 853.88 87.276 854.264C87.0413 854.648 86.7427 854.968 86.38 855.224C86.0387 855.48 85.6227 855.608 85.132 855.608ZM85.004 854.68C85.836 854.68 86.4547 854.093 86.86 852.92C87.2653 851.725 87.5107 850.509 87.596 849.272C87.6813 847.992 87.724 846.968 87.724 846.2C87.724 845.347 87.66 844.088 87.532 842.424C87.4253 840.568 87.372 839.309 87.372 838.648L87.244 838.392L87.308 838.232C87.308 837.293 87.0413 836.483 86.508 835.8C85.996 835.117 85.3667 834.776 84.62 834.776C83.6387 834.776 83.052 835.245 82.86 836.184C82.8173 836.504 82.7747 836.963 82.732 837.56C82.732 839.139 82.668 840.216 82.54 840.792C82.54 841.112 82.508 841.613 82.444 842.296L82.38 843.8C82.38 844.269 82.3907 844.685 82.412 845.048L82.444 846.328C82.444 847.331 82.5293 848.483 82.7 849.784C82.828 850.744 82.9773 851.555 83.148 852.216C83.3187 852.877 83.564 853.443 83.884 853.912C84.204 854.424 84.5773 854.68 85.004 854.68ZM102.687 855.512C101.087 855.512 99.9033 854.36 99.1353 852.056C98.3673 849.752 97.9833 846.168 97.9833 841.304C97.9833 840.259 98.0046 839.331 98.0473 838.52C98.0899 837.539 98.2393 836.483 98.4953 835.352C98.6019 834.776 98.7299 834.275 98.8793 833.848C99.0499 833.421 99.2739 832.973 99.5513 832.504C100.042 831.651 100.725 831.053 101.599 830.712C102.069 830.541 102.559 830.456 103.071 830.456C103.711 830.456 104.031 830.637 104.031 831C104.031 831.256 103.871 831.384 103.551 831.384C103.466 831.384 103.317 831.352 103.103 831.288L102.655 831.224C101.951 831.224 101.343 831.512 100.831 832.088C100.469 832.515 100.117 833.251 99.7753 834.296C99.5406 835.149 99.3806 836.099 99.2953 837.144C99.2313 837.72 99.1673 838.659 99.1033 839.96L99.0713 842.072V843.832C99.0713 845.901 99.2206 847.789 99.5193 849.496C99.7326 850.563 99.9779 851.448 100.255 852.152C100.554 852.856 100.949 853.432 101.439 853.88C101.973 854.371 102.549 854.616 103.167 854.616C104.298 854.616 105.205 854.083 105.887 853.016C105.887 852.44 105.845 851.683 105.759 850.744C105.695 850.275 105.61 849.837 105.503 849.432C105.375 849.069 105.226 848.888 105.055 848.888L104.447 848.952L103.775 849.016C103.285 849.016 103.039 848.835 103.039 848.472C103.039 848.301 103.338 848.141 103.935 847.992C104.533 847.843 105.034 847.768 105.439 847.768C105.781 847.768 106.026 847.896 106.175 848.152C106.346 848.387 106.431 848.707 106.431 849.112C106.431 849.581 106.538 850.531 106.751 851.96C106.965 853.155 107.071 854.104 107.071 854.808C107.071 855.149 106.933 855.32 106.655 855.32C106.143 855.32 105.887 855.085 105.887 854.616L105.919 854.52V854.456C104.703 855.16 103.626 855.512 102.687 855.512ZM115.513 855.384C115.257 855.107 114.979 854.371 114.681 853.176C114.382 851.981 114.105 850.637 113.849 849.144C113.678 847.928 113.433 846.723 113.113 845.528C112.857 844.461 112.611 843.928 112.377 843.928H112.281C111.811 843.928 111.577 844.077 111.577 844.376C111.577 845.912 111.662 848.248 111.833 851.384C111.918 853.304 112.014 854.424 112.121 854.744L111.865 855.288H111.417L111.161 855.032C110.819 845.176 110.649 838.456 110.649 834.872C110.649 834.637 110.659 834.445 110.681 834.296C110.723 834.147 110.798 834.008 110.905 833.88C110.99 833.731 111.139 833.656 111.353 833.656C112.441 833.656 113.315 833.923 113.977 834.456C114.638 834.989 114.969 835.757 114.969 836.76V839.096C114.969 839.501 114.83 840.045 114.553 840.728C114.297 841.411 114.009 842.04 113.689 842.616L113.273 843.416C113.507 844.504 113.966 846.467 114.649 849.304C115.353 852.12 115.737 853.613 115.801 853.784C115.822 853.805 115.843 853.859 115.865 853.944C115.907 854.029 115.982 854.157 116.089 854.328C116.238 854.627 116.312 854.883 116.312 855.096C116.312 855.395 116.195 855.544 115.961 855.544L115.513 855.384ZM111.737 843.128C112.142 843.128 112.505 842.925 112.825 842.52C113.145 842.115 113.401 841.592 113.593 840.952C113.934 839.651 114.105 838.616 114.105 837.848C114.105 837.357 114.073 836.952 114.009 836.632C113.966 836.312 113.881 835.971 113.753 835.608C113.497 834.861 112.889 834.488 111.929 834.488C111.822 834.488 111.737 834.584 111.673 834.776C111.609 834.947 111.577 835.128 111.577 835.32C111.577 836.749 111.598 838.04 111.641 839.192C111.662 840.344 111.673 841.635 111.673 843.064L111.737 843.128ZM126.202 855.288C125.882 855.288 125.679 855.245 125.594 855.16C125.508 855.096 125.444 854.904 125.402 854.584C125.21 853.027 125.092 852.056 125.05 851.672L124.89 850.392C124.42 850.285 123.887 850.232 123.29 850.232L122.138 850.168C121.626 850.104 121.252 850.072 121.018 850.072C120.89 850.072 120.815 850.125 120.794 850.232C120.794 850.296 120.783 850.328 120.762 850.328L120.698 850.968C120.676 851.352 120.559 852.12 120.346 853.272C120.239 853.848 120.111 854.296 119.962 854.616C119.791 854.979 119.631 855.16 119.482 855.16C119.354 855.16 119.215 855.107 119.066 855C118.916 854.872 118.842 854.744 118.842 854.616L118.874 854.52L118.906 854.424C119.29 852.909 119.61 851.405 119.866 849.912L120.25 847.928L120.634 845.496C120.634 845.496 120.751 844.792 120.986 843.384C121.092 842.808 121.284 841.88 121.562 840.6C121.86 839.149 122.042 838.157 122.106 837.624C122.127 837.56 122.17 837.165 122.234 836.44C122.319 835.629 122.394 835.032 122.458 834.648C122.522 834.093 122.586 833.773 122.65 833.688H122.874C122.938 833.709 123.012 833.72 123.098 833.72C123.354 833.72 123.546 833.656 123.674 833.528C123.823 833.528 123.951 833.581 124.058 833.688C124.186 833.773 124.25 833.88 124.25 834.008C124.25 835.032 124.324 836.205 124.474 837.528C124.559 838.211 124.623 838.776 124.666 839.224C124.9 841.976 125.498 847.139 126.458 854.712V854.808C126.458 855.021 126.372 855.181 126.202 855.288ZM124.73 849.528C124.516 846.456 124.111 841.923 123.514 835.928L121.786 844.472C121.295 846.925 121.05 848.472 121.05 849.112C121.05 849.219 121.455 849.315 122.266 849.4C123.076 849.485 123.791 849.528 124.41 849.528H124.73ZM138.089 855.128C137.918 855.128 137.79 855.064 137.705 854.936C137.641 854.808 137.577 854.616 137.513 854.36C137.492 854.189 137.449 854.04 137.385 853.912L137.417 853.816C137.246 852.813 136.884 851.587 136.329 850.136L135.753 848.472C135.71 848.429 135.508 847.885 135.145 846.84L134.889 846.072C132.969 840.141 131.764 836.931 131.273 836.44C131.102 837.016 131.017 837.763 131.017 838.68C131.017 839.171 131.028 839.597 131.049 839.96L131.081 841.208L131.049 841.976C131.028 842.211 131.017 842.467 131.017 842.744C131.017 843.213 131.038 843.619 131.081 843.96C131.124 844.643 131.145 844.984 131.145 844.984H131.049C131.049 848.547 131.124 850.509 131.273 850.872V853.752C131.358 853.923 131.401 854.147 131.401 854.424C131.401 854.595 131.337 854.744 131.209 854.872C131.102 855 130.964 855.064 130.793 855.064C130.345 855.064 130.121 854.488 130.121 853.336L130.185 852.312C130.228 851.992 130.249 851.64 130.249 851.256C130.249 850.232 130.217 848.696 130.153 846.648C130.089 844.6 130.057 843.064 130.057 842.04C130.057 841.421 130.089 840.472 130.153 839.192C130.217 837.933 130.249 836.995 130.249 836.376V835.96C130.249 834.915 130.441 834.232 130.825 833.912L130.921 834.008L131.241 833.944C131.326 833.965 131.422 834.029 131.529 834.136C131.614 834.221 131.657 834.317 131.657 834.424L131.721 834.616C131.721 834.659 131.721 834.701 131.721 834.744C131.742 834.765 131.753 834.776 131.753 834.776C132.094 836.291 132.862 838.413 134.057 841.144C135.273 844.024 136.03 845.933 136.329 846.872C136.542 847.619 136.713 848.28 136.841 848.856C137.246 850.669 137.726 852.067 138.281 853.048L138.345 852.952C138.836 848.216 139.081 842.403 139.081 835.512L139.049 835.128C139.028 835.021 139.017 834.883 139.017 834.712C139.017 834.264 139.166 834.04 139.465 834.04C139.657 834.04 139.817 834.136 139.945 834.328C140.094 834.52 140.169 834.733 140.169 834.968V837.112L140.009 837.368C140.009 839.395 139.892 842.723 139.657 847.352C139.422 851.981 139.198 854.499 138.985 854.904L138.441 855.032V855.064L138.409 855.032L138.089 855.128ZM152.808 855.128C152.637 855.128 152.509 855.064 152.424 854.936C152.36 854.808 152.296 854.616 152.232 854.36C152.21 854.189 152.168 854.04 152.104 853.912L152.136 853.816C151.965 852.813 151.602 851.587 151.048 850.136L150.472 848.472C150.429 848.429 150.226 847.885 149.864 846.84L149.608 846.072C147.688 840.141 146.482 836.931 145.992 836.44C145.821 837.016 145.736 837.763 145.736 838.68C145.736 839.171 145.746 839.597 145.768 839.96L145.8 841.208L145.768 841.976C145.746 842.211 145.736 842.467 145.736 842.744C145.736 843.213 145.757 843.619 145.8 843.96C145.842 844.643 145.864 844.984 145.864 844.984H145.768C145.768 848.547 145.842 850.509 145.992 850.872V853.752C146.077 853.923 146.12 854.147 146.12 854.424C146.12 854.595 146.056 854.744 145.928 854.872C145.821 855 145.682 855.064 145.512 855.064C145.064 855.064 144.84 854.488 144.84 853.336L144.904 852.312C144.946 851.992 144.968 851.64 144.968 851.256C144.968 850.232 144.936 848.696 144.872 846.648C144.808 844.6 144.776 843.064 144.776 842.04C144.776 841.421 144.808 840.472 144.872 839.192C144.936 837.933 144.968 836.995 144.968 836.376V835.96C144.968 834.915 145.16 834.232 145.544 833.912L145.64 834.008L145.96 833.944C146.045 833.965 146.141 834.029 146.248 834.136C146.333 834.221 146.376 834.317 146.376 834.424L146.44 834.616C146.44 834.659 146.44 834.701 146.44 834.744C146.461 834.765 146.472 834.776 146.472 834.776C146.813 836.291 147.581 838.413 148.776 841.144C149.992 844.024 150.749 845.933 151.048 846.872C151.261 847.619 151.432 848.28 151.56 848.856C151.965 850.669 152.445 852.067 153 853.048L153.064 852.952C153.554 848.216 153.8 842.403 153.8 835.512L153.768 835.128C153.746 835.021 153.736 834.883 153.736 834.712C153.736 834.264 153.885 834.04 154.184 834.04C154.376 834.04 154.536 834.136 154.664 834.328C154.813 834.52 154.888 834.733 154.888 834.968V837.112L154.728 837.368C154.728 839.395 154.61 842.723 154.376 847.352C154.141 851.981 153.917 854.499 153.704 854.904L153.16 855.032V855.064L153.128 855.032L152.808 855.128ZM161.479 855.48C161.415 855.48 161.329 855.437 161.223 855.352C161.116 855.267 161.052 855.192 161.031 855.128C161.223 854.616 161.319 852.749 161.319 849.528C161.319 848.909 161.287 848.024 161.223 846.872L161.062 844.6L160.871 844.184L160.967 843.8C160.839 843.501 160.647 843 160.391 842.296C160.135 841.592 159.879 840.877 159.623 840.152C158.855 838.125 158.353 836.664 158.118 835.768C157.991 835.341 157.895 834.947 157.831 834.584L158.279 834.232C158.492 834.275 158.801 834.957 159.207 836.28C159.527 837.219 159.815 838.147 160.071 839.064L160.455 840.28C160.839 841.603 161.116 842.285 161.286 842.328L161.415 841.752L161.351 841.592C161.521 841.379 161.735 840.621 161.991 839.32C162.268 837.827 162.535 836.568 162.791 835.544C163.068 834.349 163.345 833.752 163.623 833.752C163.729 833.752 163.825 833.784 163.911 833.848C163.996 833.912 164.039 833.987 164.039 834.072C164.039 834.392 163.719 835.651 163.079 837.848C162.759 838.893 162.492 839.875 162.279 840.792C162.023 841.88 161.895 842.851 161.895 843.704C162.001 843.917 162.055 844.099 162.055 844.248C162.055 844.355 162.023 844.504 161.959 844.696C161.895 844.888 161.863 845.048 161.863 845.176C161.863 845.283 161.905 845.763 161.991 846.616C162.076 847.192 162.119 847.683 162.119 848.088C162.119 849.027 162.129 849.869 162.151 850.616V853.176V853.304C162.151 854.755 161.927 855.48 161.479 855.48Z" fill="#25225B"/>
</g>
<defs>
<linearGradient id="paint0_linear_6_22" x1="220" y1="1210.5" x2="220" y2="-1.5" gradientUnits="userSpaceOnUse">
<stop stop-color="#563500"/>
<stop offset="0.367967" stop-color="#FBF2D2"/>
<stop offset="0.795" stop-color="#FBF2D2"/>
<stop offset="1" stop-color="#C0E5FF" stop-opacity="0.43"/>
</linearGradient>
<clipPath id="clip0_6_22">
<rect width="440" height="956" fill="white"/>
</clipPath>
<clipPath id="clip1_6_22">
<rect width="440" height="956" fill="white"/>
</clipPath>
</defs>
</svg>
