<svg width="439" height="783" viewBox="0 0 439 783" fill="none" xmlns="http://www.w3.org/2000/svg">
<mask id="mask0_1_60" style="mask-type:luminance" maskUnits="userSpaceOnUse" x="0" y="0" width="440" height="783">
<path d="M0 0H440V782.222H0V0Z" fill="white"/>
</mask>
<g mask="url(#mask0_1_60)">
<path d="M367.475 449.961C367.475 449.961 387.263 489.153 387.447 489.524C387.63 489.895 389.186 492.084 387.93 493.952C387.52 494.561 383.584 499.293 383.584 499.293L375.813 506.724L357.751 516.886L352.258 505.854L366.714 494.623L363.918 484.576L354.228 464.401L352.877 436.601L367.475 449.961Z" fill="#F8C3B1"/>
<path d="M334.447 327.96C336.126 330.638 336.566 335.037 335.999 338.048C335.525 340.566 334.703 341.239 333.283 343.092L333.477 339.6C329.915 347.095 322.554 350.468 315.823 354.344C309.33 355.841 292.204 357.86 288.275 362.88C284.495 363.134 279.883 370.428 279.739 373.744C277.738 373.361 281.236 366.042 281.679 365.402C283.696 362.491 293.516 355.59 297.005 355.121C299.725 354.755 296.959 355.504 297.393 356.672C306.677 353.522 316.495 353.763 323.971 346.39L313.689 350.464C305.193 351.806 295.611 351.997 288.275 357.06C293.293 350.814 302.765 351.104 309.809 348.913C312.764 347.993 320.405 345.081 322.613 343.481C324.728 341.948 326.745 339.281 328.433 337.272C328.389 340.553 322.576 342.171 324.941 345.032C326.442 342.151 329.551 339.549 330.955 336.69C332.357 333.836 332.292 329.93 334.447 327.96Z" fill="white"/>
<path d="M328.239 313.216C328.186 315.056 327.949 317.613 328.627 319.037C327.681 320.184 326.731 321.253 325.523 322.14C324.544 321.802 323.4 321.636 322.419 321.364C319.594 320.583 314.653 319.673 311.749 319.424C311.645 319.415 311.323 320.608 310.973 320.588C310.814 320.58 310.36 319.824 310.197 319.812C308.292 319.675 305.596 320.466 304.959 317.872C304.86 317.468 304.38 317.249 304.571 316.902C304.704 316.661 305.611 316.716 306.123 316.32C306.489 316.038 308.156 315.614 308.451 314.962C309.192 313.324 308.467 308.521 311.361 307.008L311.555 314.186C312.181 315.331 312.931 313.991 313.107 313.992C314.201 313.998 315.003 314.201 316.211 313.992C316.538 313.936 317.256 314.935 318.151 313.41L317.763 306.814C323.452 305.39 322.172 313.13 322.807 314.186C324.4 316.839 325.353 306.792 321.837 306.232C327.055 306.897 326.984 312.146 325.135 316.126C327.282 318.416 327.518 314.967 328.239 313.216Z" fill="#C7D5D4"/>
<path d="M315.047 305.068C313.324 307.164 313.443 311.25 313.107 313.992C312.931 313.991 312.181 315.331 311.555 314.187L311.361 307.008C308.467 308.521 309.192 313.324 308.451 314.962C308.156 315.614 306.489 316.038 306.123 316.32C304.165 313.045 306.146 309.528 307.287 306.426C302.87 309.157 303.449 313.331 303.213 317.872C301.249 316.733 301.254 314.699 301.467 312.634C301.627 311.084 304.625 308.798 301.079 309.336C301.67 308.517 302.78 307.163 303.601 306.62C305.836 305.142 313.712 302.786 315.047 305.068Z" fill="white"/>
<path d="M306.123 316.32C305.611 316.715 304.704 316.661 304.571 316.902C304.38 317.249 304.86 317.468 304.959 317.873L303.601 320.2C299.619 316.308 297.435 314.39 301.079 309.336C304.625 308.798 301.626 311.083 301.467 312.634C301.254 314.699 301.249 316.733 303.213 317.873C303.448 313.331 302.87 309.157 307.287 306.426C306.147 309.528 304.165 313.044 306.123 316.32Z" fill="white"/>
<path d="M328.627 323.304C328.462 323.223 325.972 322.296 325.523 322.14C326.73 321.253 327.681 320.184 328.627 319.036C328.707 318.939 329.517 319.242 329.791 318.842C330.875 317.259 330.112 314.282 331.343 312.828C332.411 316.495 331.727 320.783 328.627 323.304Z" fill="#C7D5D4"/>
<path d="M316.211 313.992C315.003 314.2 314.2 313.998 313.107 313.992C313.443 311.25 313.324 307.164 315.047 305.068C315.975 306.654 316.684 312.16 316.211 313.992Z" fill="#C7D5D4"/>
<path d="M331.343 312.828C330.112 314.282 330.875 317.259 329.791 318.842C329.517 319.242 328.707 318.939 328.627 319.036C327.949 317.612 328.187 315.056 328.239 313.216C328.277 311.875 327.51 310.286 328.433 309.336C329.294 309.072 331.114 312.043 331.343 312.828Z" fill="white"/>
<path d="M295.841 314.768C296.958 314.082 299.926 319.686 300.885 320.976C298.677 321.856 294.824 315.393 295.841 314.768Z" fill="#C7D5D4"/>
<path d="M295.065 319.424L297.393 322.141C296.499 322.546 294.086 319.908 295.065 319.424Z" fill="#C7D5D4"/>
<path d="M279.739 373.744C279.722 374.129 279.749 374.523 279.739 374.908C279.518 375.013 278.244 375.241 278.187 375.296C277.992 374.477 277.296 376.062 277.023 374.715C274.925 364.357 283.683 352.709 291.185 346.584C292.34 346.73 291.626 347.103 291.379 347.554C290.355 349.423 286.157 352.547 284.395 355.315C282.565 358.187 281.493 361.529 280.127 364.626L281.097 365.208C283.12 362.388 285.378 359.059 288.275 357.06C295.611 351.997 305.193 351.806 313.689 350.464L323.971 346.39C316.496 353.763 306.677 353.522 297.393 356.672C296.959 355.504 299.725 354.754 297.005 355.12C293.516 355.59 283.696 362.491 281.679 365.402C281.236 366.042 277.738 373.361 279.739 373.744Z" fill="#C7D5D4"/>
<path d="M322.419 321.364C323.4 321.636 324.544 321.802 325.523 322.14C325.972 322.296 328.462 323.223 328.627 323.304C329.835 323.897 333.715 326.793 334.447 327.96C332.292 329.93 332.357 333.836 330.955 336.69C329.551 339.549 326.442 342.151 324.941 345.032C322.576 342.171 328.389 340.553 328.433 337.272C326.746 339.281 324.727 341.948 322.613 343.48C320.405 345.081 312.763 347.993 309.809 348.912C302.764 351.104 293.293 350.814 288.275 357.061C285.378 359.059 283.12 362.388 281.097 365.208L280.127 364.627C281.492 361.529 282.566 358.187 284.395 355.314C286.157 352.547 290.356 349.423 291.379 347.555C291.626 347.104 292.341 346.73 291.185 346.584C283.682 352.709 274.925 364.357 277.023 374.714C277.296 376.062 277.992 374.477 278.187 375.297C278.137 375.345 277.876 375.894 277.799 376.073C277.71 376.278 277.382 380.313 277.411 380.535C277.745 383.093 280.531 394.03 281.679 396.443C282.191 397.519 284.604 399.439 284.783 399.935C285.266 401.272 284.984 404.678 285.947 406.919C288.53 412.929 303.462 418.68 304.183 421.274C304.641 422.92 303.314 423.99 303.407 425.349C303.623 428.493 311.472 434.358 314.659 435.049C312.257 435.577 308.394 443.377 307.093 445.525C303.184 442.252 298.676 437.971 296.811 433.108C296.56 432.456 296.576 430.641 295.647 430.004C295.876 428.947 295.469 426.449 296.811 425.155C296.755 424.294 293.897 425.241 293.319 425.349C291.446 425.699 289.234 426.474 287.499 427.289C287.178 426.026 283.22 415.915 282.649 415.649C280.504 414.646 273.394 418.124 272.367 420.693C270.622 420.304 270.97 418.58 270.427 416.425C270.403 416.331 270.867 416.134 270.427 414.485C270.283 413.944 269.967 414.441 269.651 413.321C269.324 412.162 269.037 411.853 268.875 411.381C268.808 411.186 268.944 410.79 268.875 410.604C268.778 410.343 268.933 409.797 268.875 409.441C271.624 409.698 269.069 407.079 268.099 406.336C267.779 403.749 266.082 398.208 266.547 395.86C278.111 400.453 277.884 392.381 277.023 383.25C276.474 377.424 276.103 373.004 269.651 375.297C268.202 375.812 267.211 377.219 265.771 377.624C268.963 374.905 269.853 374.094 274.307 373.55C273.595 369.416 273.181 363.5 273.531 359.195C273.542 359.063 275.357 358.735 273.531 358.031C278.511 336.642 292.248 320.401 316.017 321.364C317.903 321.441 320.858 322.961 322.419 321.364Z" fill="white"/>
<path d="M323.777 336.496C324.756 336.331 323.252 338.166 323.195 338.243C314.625 349.713 298.698 345.469 288.275 354.151C297.137 342.016 313.862 346.913 323.777 336.496Z" fill="#C7D5D4"/>
<path d="M333.283 343.092C331.121 345.915 327.382 347.701 325.911 349.494C325.855 349.562 326.728 351.189 325.717 351.241C325.57 351.248 325.172 350.228 324.165 350.464C322.478 350.86 323.61 352.173 323.389 352.405C323.147 352.659 320.443 352.634 320.091 353.568C318.453 354.009 317.182 354.031 315.823 354.345C322.554 350.468 329.915 347.095 333.477 339.601L333.283 343.092Z" fill="#C7D5D4"/>
<path d="M346.087 366.76C341.485 360.831 329.972 358.49 332.507 346.972C332.55 346.95 332.767 346.313 333.089 346.197L334.059 346.778C333.906 356.238 343.355 360.622 348.609 366.76H346.087Z" fill="white"/>
<path d="M349.967 377.236C350.132 376.51 350.474 375.884 350.355 375.102C349.71 374.946 349.257 374.402 348.803 374.132C348.789 372.346 347.977 371.01 347.251 369.477C346.86 368.65 346.678 367.522 346.087 366.76H348.609C343.355 360.622 333.906 356.238 334.059 346.778L333.089 346.197C332.767 346.313 332.55 346.95 332.507 346.972C326.988 349.873 327.989 351.441 320.091 353.569C320.443 352.634 323.147 352.659 323.389 352.405C323.61 352.173 322.478 350.861 324.165 350.465C325.172 350.228 325.57 351.248 325.717 351.24C326.728 351.189 325.855 349.563 325.911 349.494C327.382 347.701 331.121 345.915 333.283 343.092C334.703 341.239 335.525 340.567 335.999 338.048C337.267 338.071 338.235 338.455 339.103 339.406C341.552 342.09 352.277 362.867 352.683 366.179C352.95 368.354 352.642 376.675 349.967 377.236Z" fill="white"/>
<path d="M336.969 341.152L348.609 361.328C344.005 354.977 336.12 349.995 336.969 341.152Z" fill="white"/>
<path d="M266.547 401.681C262.277 402.425 257.704 403.771 255.295 407.695C259.343 404.886 261.896 402.992 266.935 405.561C266.997 405.592 268.027 406.282 268.099 406.336C269.069 407.079 271.624 409.698 268.875 409.44L268.681 408.665C263.46 408.942 259.139 407.294 255.683 412.351L262.473 409.053C264.868 409.907 266.837 408.758 268.875 410.604C268.944 410.79 268.808 411.186 268.875 411.38C265.447 410.884 260.381 409.95 258.399 413.514C258.169 413.928 258.855 414.151 258.787 414.485C258.774 414.548 257.5 414.955 258.205 415.648C261.734 413.07 266.342 413.25 270.427 414.485C270.867 416.134 270.403 416.33 270.427 416.425H270.039C270.422 415.134 265.792 416.363 265.577 416.425C255.836 419.206 260.349 420.834 259.563 428.259C259.491 428.943 257.823 436.427 257.429 436.601C256.312 437.092 250.919 435.939 249.863 434.661C250.141 432.428 251.21 429.704 251.415 427.095C251.724 423.17 251.378 418.586 251.803 414.678C251.927 413.533 253.19 411.281 253.355 410.41C253.427 410.03 252.116 409.979 252.191 409.246C252.27 408.471 257.378 401.336 258.011 400.904C258.061 400.87 258.8 400.694 259.175 400.517C259.594 400.318 261.203 399.754 261.503 399.74C263.231 399.661 265.811 400.001 266.547 401.681Z" fill="#F7D1B0"/>
<path d="M268.875 411.381C269.037 411.853 269.324 412.162 269.651 413.321C265.963 412.756 262.059 412.408 258.787 414.485C258.855 414.151 258.169 413.927 258.399 413.515C260.381 409.951 265.447 410.884 268.875 411.381Z" fill="#F5AE92"/>
<path d="M268.875 409.441C268.933 409.797 268.777 410.343 268.875 410.605C266.837 408.759 264.868 409.907 262.473 409.053L255.683 412.351C259.139 407.294 263.46 408.942 268.681 408.664L268.875 409.441Z" fill="#AC6D5F"/>
<path d="M269.651 413.321C269.967 414.44 270.282 413.944 270.427 414.484C266.342 413.25 261.734 413.07 258.205 415.648C257.5 414.955 258.774 414.548 258.787 414.484C262.059 412.408 265.963 412.756 269.651 413.321Z" fill="#AC6D5F"/>
<path d="M266.547 401.681C266.762 402.172 266.797 404.791 266.935 405.561C261.896 402.992 259.343 404.886 255.295 407.695C257.704 403.771 262.277 402.425 266.547 401.681Z" fill="#AC6D5F"/>
<path d="M346.087 366.76C346.679 367.522 346.86 368.65 347.251 369.477L344.729 366.373C338.374 363.24 330.066 359.045 330.373 350.852C323.192 358.475 293.151 356.253 288.275 364.626C286.955 366.893 287.369 369.094 286.529 371.416C285.944 369.072 286.778 364.794 288.275 362.88C292.204 357.86 309.33 355.842 315.823 354.344C317.182 354.031 318.453 354.009 320.091 353.569C327.989 351.442 326.988 349.873 332.507 346.972C329.972 358.49 341.485 360.831 346.087 366.76Z" fill="#D89079"/>
<path d="M270.039 416.425L264.995 418.171C264.616 419.06 268.351 426.713 270.233 426.901C272.028 425.237 272.351 422.473 273.919 420.693C274.204 420.369 276.614 418.352 276.829 418.365C279.747 423.318 281.025 430.091 283.619 435.631C278.43 437.231 272.174 435.312 268.875 431.169C267.387 429.299 263.472 418.702 262.085 419.141C261.694 419.264 262.002 420.026 261.891 420.305C261.156 422.149 262.163 424.92 261.891 427.095C261.43 430.786 258.406 433.735 259.563 437.959C258.84 438.983 251.345 436.399 250.057 435.825C248.925 434.903 249.855 434.719 249.863 434.661C250.919 435.939 256.312 437.092 257.429 436.601C257.823 436.427 259.49 428.943 259.563 428.259C260.349 420.834 255.836 419.206 265.577 416.425C265.791 416.363 270.422 415.134 270.039 416.425Z" fill="#CF962A"/>
<path d="M268.875 431.169L268.487 431.945C265.47 428.602 263.717 424.358 261.891 420.305C262.002 420.026 261.693 419.264 262.085 419.141C263.472 418.702 267.387 429.299 268.875 431.169Z" fill="#665231"/>
<path d="M270.039 416.425H270.427C270.97 418.579 270.622 420.304 272.367 420.693C273.055 420.846 273.182 420.059 273.919 420.693C272.351 422.473 272.028 425.237 270.233 426.901C268.351 426.713 264.616 419.06 264.995 418.171L270.039 416.425Z" fill="#665231"/>
<path d="M267.323 394.697C267.243 395.208 266.649 395.346 266.547 395.86C266.082 398.207 267.779 403.75 268.099 406.337C268.027 406.282 266.997 405.592 266.935 405.56C266.797 404.791 266.762 402.172 266.547 401.681C265.811 400.001 263.231 399.66 261.503 399.741C260.996 398.276 260.617 392.49 262.085 391.98C264.24 392.042 265.334 394.02 267.323 394.697Z" fill="#665231"/>
<path d="M270.039 378.4C265.446 379.237 262.384 382.818 260.339 386.743C261.004 388.027 267.785 378.777 270.039 379.953C270.078 385.055 270.01 390.171 270.039 395.279C269.835 395.666 267.794 394.856 267.323 394.696C265.334 394.02 264.24 392.042 262.085 391.981C260.618 392.49 260.996 398.276 261.503 399.74C261.203 399.754 259.594 400.318 259.175 400.517C258.956 400.167 258.816 394.743 257.623 396.636C257.443 387.344 258.622 383.715 265.771 377.624C267.211 377.219 268.202 375.811 269.651 375.296C270.27 376.251 270.02 377.351 270.039 378.4Z" fill="#CF962A"/>
<path d="M259.175 400.517C258.8 400.694 258.061 400.87 258.011 400.904C257.47 399.497 257.651 398.094 257.623 396.636C258.816 394.743 258.956 400.167 259.175 400.517Z" fill="#665231"/>
<path d="M270.039 378.4C270.048 378.914 270.035 379.439 270.039 379.953C267.785 378.777 261.004 388.027 260.339 386.743C262.384 382.818 265.446 379.237 270.039 378.4Z" fill="#F4DB91"/>
<path d="M260.145 387.325L259.369 396.637C258.777 393.612 259.031 390.316 260.145 387.325Z" fill="#D7BC78"/>
<path d="M287.499 427.289C288.184 429.984 288.799 432.807 288.663 435.631L279.739 437.376C279.306 437.289 277.851 437.15 277.411 437.376C274.819 436.06 271.938 435.414 269.651 433.497C269.355 433.249 268.802 432.294 268.487 431.944L268.875 431.169C272.174 435.313 278.43 437.231 283.619 435.631C281.025 430.09 279.747 423.318 276.829 418.365C276.614 418.352 274.204 420.369 273.919 420.693C273.182 420.058 273.055 420.846 272.367 420.693C273.394 418.124 280.504 414.646 282.649 415.649C283.22 415.915 287.178 426.026 287.499 427.289Z" fill="#3F2816"/>
<path d="M282.455 428.841C282.144 427.589 280.437 418.338 280.515 417.783C280.763 415.998 281.364 417.384 282.067 416.424C283.498 417.321 288.698 433.211 287.887 434.855C287.727 435.179 285.001 436.023 284.589 435.825C284.26 435.667 282.682 429.753 282.455 428.841Z" fill="#CF962A"/>
<path d="M282.067 416.425C281.364 417.384 280.763 415.998 280.515 417.782C280.437 418.339 282.144 427.589 282.455 428.841L278.187 417.395C278.407 416.737 281.474 416.053 282.067 416.425Z" fill="#F4DB91"/>
<path d="M266.547 395.861C266.649 395.346 267.243 395.208 267.323 394.697C267.794 394.857 269.835 395.666 270.039 395.278C270.009 390.171 270.079 385.056 270.039 379.952C270.035 379.438 270.048 378.914 270.039 378.4C270.02 377.35 270.27 376.251 269.651 375.297C276.103 373.003 276.473 377.424 277.023 383.25C277.884 392.381 278.111 400.453 266.547 395.861Z" fill="#3F2816"/>
<path d="M275.083 378.788C276.088 381.457 277.3 395.233 274.889 396.248C271.165 397.817 271.379 395.332 271.203 393.145C272.37 393.313 271.955 392.108 271.979 391.399C272.029 389.932 271.635 375.714 273.725 376.072C274.283 376.846 274.755 377.918 275.083 378.788Z" fill="#CF962A"/>
<path d="M275.083 378.789C274.755 377.918 274.283 376.846 273.725 376.072C271.635 375.714 272.029 389.932 271.979 391.399C271.955 392.108 272.37 393.313 271.203 393.145C271.046 391.2 270.304 376.211 270.815 375.491C271.859 374.018 276.182 375.931 275.083 378.789Z" fill="#F4DB91"/>
<path d="M317.375 381.892C315.672 388.589 321.488 394.396 310.779 393.92C310.27 393.898 309.64 392.897 308.839 394.115C309.255 394.938 310.024 394.538 310.391 394.696C313.367 395.98 321.111 396.656 320.673 392.369L318.927 393.339L319.703 386.548C330.793 401.775 345.02 393.604 349.579 378.401C351.554 378.634 349.212 380.034 349.191 380.146C349.141 380.418 350.046 380.079 349.967 380.922C349.761 383.135 348.178 392.521 346.475 394.503C345.955 395.107 344.783 396.082 343.953 395.86C342.369 395.438 343.716 392.589 342.207 392.95C341.926 403.187 338.404 408.361 331.537 415.261C330.526 416.277 324.998 419.974 324.747 420.887C324.378 422.225 325.257 423.646 325.135 424.961C319.436 435.714 310.024 434.471 303.407 425.349C303.314 423.99 304.641 422.92 304.183 421.275C303.462 418.68 288.531 412.929 285.947 406.919C284.984 404.678 285.266 401.272 284.783 399.935C284.604 399.439 282.191 397.519 281.679 396.443C280.531 394.03 277.745 383.093 277.411 380.535C277.382 380.313 277.71 376.278 277.799 376.073C280.952 379.844 281.82 385.015 285.171 388.682C291.532 395.645 302.536 396.211 308.063 387.907C308.88 386.679 310.584 381.597 311.361 381.116C313.072 380.058 316.111 380.54 317.375 381.892Z" fill="#F7D1B0"/>
<path d="M315.435 435.049C315.187 435.073 314.89 434.998 314.659 435.049C311.471 434.359 303.623 428.493 303.407 425.349C310.024 434.471 319.436 435.714 325.135 424.96C324.674 429.924 319.004 432.447 315.435 435.049Z" fill="#D7A378"/>
<path d="M324.359 402.845C324.016 403.046 320.465 402.991 323.195 404.785C321.712 407.962 320.392 410.757 316.017 410.993C311.189 411.252 309.871 408.277 307.287 405.561L308.451 405.172C310.183 406.3 312.602 407.01 314.659 407.113C313.483 411.284 321.891 407.649 321.643 406.143C320.806 406.813 320.437 406.299 320.091 406.336C321.073 405.381 322.709 405.438 321.837 403.621C317.311 405.485 312.701 404.14 308.063 404.396C307.406 403.818 306.681 401.989 305.735 403.232C304.838 402.321 303.202 402.376 302.825 401.293C309.254 402.116 316.344 402.552 323.001 402.068C325.238 401.906 329.791 399.658 324.359 402.845Z" fill="#AF8A85"/>
<path d="M306.123 418.365C310.492 426.384 317.941 427.231 322.419 418.752C323.391 421.898 318.345 426.487 315.241 426.901C308.189 427.841 305.757 422.711 305.153 416.812C305.681 417.204 305.829 417.826 306.123 418.365Z" fill="#D07C42"/>
<path d="M319.703 386.548L318.927 393.338L320.673 392.369C321.111 396.655 313.367 395.98 310.391 394.697L310.779 393.921C321.488 394.396 315.671 388.589 317.375 381.893C318.402 382.991 318.753 385.244 319.703 386.548Z" fill="#D7A378"/>
<path d="M322.419 418.753C317.941 427.231 310.492 426.384 306.123 418.365C310.892 422.9 318.296 423.706 322.225 417.589C322.599 417.673 322.324 418.447 322.419 418.753Z" fill="#F7D1B0"/>
<path d="M322.613 393.145C327.489 394.681 332.275 401.105 330.761 406.336C328.616 404.737 329.249 400.684 328.627 399.159C327.782 397.086 324.121 394.778 322.613 393.145Z" fill="#D7A378"/>
<path d="M306.317 391.593C304.768 395.938 299.377 400.094 299.139 404.979C299.123 405.318 300.31 405.026 300.303 405.367C300.3 405.515 299.522 406.003 299.527 406.143C299.562 407.204 300.441 408.929 299.721 410.217C296.233 402.873 301.762 396.786 306.317 391.593Z" fill="#D7A378"/>
<path d="M308.063 404.397C308.114 404.441 308.415 405.149 308.451 405.173L307.287 405.561C306.679 404.922 306.348 403.856 305.735 403.233C306.681 401.989 307.405 403.818 308.063 404.397Z" fill="#571A15"/>
<path d="M324.359 402.845C324.511 403.658 323.455 404.227 323.195 404.785C320.465 402.991 324.016 403.046 324.359 402.845Z" fill="#571A15"/>
<path d="M310.779 393.921L310.391 394.697C310.024 394.539 309.254 394.939 308.839 394.114C309.64 392.897 310.27 393.898 310.779 393.921Z" fill="#654332"/>
<path d="M320.091 406.337C318.133 406.547 316.831 407.221 314.659 407.113C312.602 407.01 310.183 406.3 308.451 405.173C308.415 405.149 308.113 404.441 308.063 404.396C312.701 404.14 317.311 405.485 321.837 403.62C322.709 405.438 321.073 405.381 320.091 406.337Z" fill="white"/>
<path d="M314.659 407.113C316.83 407.221 318.133 406.548 320.091 406.336C320.437 406.299 320.806 406.813 321.643 406.143C321.891 407.649 313.483 411.284 314.659 407.113Z" fill="#9F7371"/>
<path d="M347.251 369.476C347.977 371.01 348.789 372.345 348.803 374.132C340.11 368.975 328.991 372.79 320.867 376.461C321.001 373.678 317.147 377.416 317.763 378.4C310.727 380.763 310.765 377.13 305.929 374.908C299.167 371.803 286.496 371.726 279.739 374.908C279.749 374.523 279.722 374.129 279.739 373.744C279.883 370.428 284.495 363.134 288.275 362.881C286.778 364.794 285.944 369.072 286.529 371.417C287.37 369.094 286.955 366.893 288.275 364.626C293.151 356.253 323.191 358.474 330.373 350.852C330.066 359.044 338.375 363.241 344.729 366.372L347.251 369.476Z" fill="#F7D1B0"/>
<path d="M320.867 376.461C319.847 376.921 318.901 378.018 317.763 378.401C317.147 377.417 321.001 373.678 320.867 376.461Z" fill="#F3C291"/>
<path d="M329.985 364.82C335.323 364.342 339.229 366.054 341.819 370.835C341.308 371.768 338.256 369.191 337.745 369.088C334.872 368.514 326.428 370.67 324.941 369.476C321.622 366.813 328.454 364.958 329.985 364.82Z" fill="white"/>
<path d="M301.467 364.432C302.415 364.582 305.885 365.121 306.123 366.179C306.954 369.871 295.453 367.466 293.125 367.924C291.689 368.207 290.348 369.937 288.857 370.252C288.258 369.951 289.579 368.256 289.827 367.924C292.596 364.228 297.21 363.761 301.467 364.432Z" fill="white"/>
<path d="M301.467 364.432C297.21 363.761 292.596 364.228 289.827 367.924C290.556 366.52 291.832 364.575 293.125 363.656C293.87 363.127 307.171 359.997 309.033 359.777C317.076 358.821 325.797 360.563 333.477 362.88C320.751 360.05 309.266 360.013 296.617 363.268L301.467 364.432Z" fill="#F3C291"/>
<path d="M308.645 366.372L318.927 366.955L310.585 367.536L308.645 366.372Z" fill="#D7A378"/>
<path d="M348.803 374.132C349.257 374.402 349.71 374.946 350.355 375.103C350.474 375.884 350.132 376.51 349.967 377.237C349.899 377.534 349.705 377.98 349.579 378.4C345.02 393.604 330.792 401.775 319.703 386.549C318.753 385.244 318.402 382.991 317.375 381.892C316.111 380.54 313.072 380.058 311.361 381.117C310.584 381.597 308.88 386.679 308.063 387.907C302.536 396.211 291.531 395.645 285.171 388.683C281.82 385.015 280.951 379.844 277.799 376.073C277.876 375.894 278.137 375.345 278.187 375.296C278.244 375.241 279.518 375.012 279.739 374.909C286.497 371.726 299.167 371.803 305.929 374.909C310.765 377.13 310.727 380.763 317.763 378.4C318.901 378.018 319.847 376.922 320.867 376.46C328.991 372.79 340.11 368.976 348.803 374.132Z" fill="#4E222A"/>
<path d="M301.467 376.848C302.543 377.741 305.292 381.451 304.183 382.669C303.348 381.063 302.454 379.623 301.079 378.4C299.263 376.786 297.498 377.283 296.811 374.908C298.329 374.804 300.31 375.888 301.467 376.848Z" fill="#241318"/>
<path d="M304.183 382.669C303.349 383.584 301.268 383.228 300.303 383.445L301.079 378.401C302.454 379.623 303.348 381.063 304.183 382.669Z" fill="white"/>
<path d="M294.483 375.296C292.585 376.457 288.533 379.75 290.215 382.281C290.745 383.078 294.19 384.116 295.647 384.22C298.073 384.394 298.428 383.865 300.303 383.445C301.268 383.228 303.349 383.584 304.183 382.669C305.291 381.451 302.543 377.742 301.467 376.848L305.541 379.564L303.407 377.043C309.153 378.215 309.233 382.789 306.511 387.519C300.851 397.355 285.693 391.906 282.843 382.475C280.526 374.808 284.224 375.843 290.409 374.52L288.857 378.013C291.251 375.731 292.165 374.16 295.841 374.133C296.476 375.032 295.083 374.93 294.483 375.296Z" fill="#F7D1B0"/>
<path d="M288.857 384.221C289.333 384.124 291.75 383.911 291.767 384.803L286.917 387.712C284.675 386.658 287.596 384.476 288.857 384.221Z" fill="#F3C291"/>
<path d="M301.079 378.4L300.303 383.445C298.428 383.865 298.074 384.394 295.647 384.221C293.132 382.022 292.899 380.641 294.289 377.624L290.215 382.281C288.533 379.75 292.585 376.457 294.483 375.296C295.479 376.637 296.647 374.92 296.811 374.909C297.498 377.283 299.263 376.786 301.079 378.4Z" fill="#332D39"/>
<path d="M295.647 384.22C294.19 384.116 290.745 383.078 290.215 382.28L294.289 377.625C292.899 380.641 293.132 382.023 295.647 384.22Z" fill="white"/>
<path d="M298.751 379.953V381.504C294.1 384.548 295.251 379.124 296.229 378.789C298.994 377.839 298.6 379.863 298.751 379.953Z" fill="#181319"/>
<path d="M298.751 381.504V379.953C298.867 380.021 300.359 379.202 300.303 381.311C299.969 381.751 298.986 381.35 298.751 381.504Z" fill="white"/>
<path d="M337.551 374.908C338.387 375.445 339.525 378.083 341.043 377.819L337.939 374.521C338.228 373.493 342.479 374.485 343.565 374.908C348.413 376.797 347.134 381.009 345.311 385.191C341.088 394.875 326.966 396.05 321.643 387.131C317.581 380.324 321.619 377.569 327.851 375.491L325.717 378.4C328.593 374.791 333.324 372.195 337.551 374.908Z" fill="#F7D1B0"/>
<path d="M337.551 374.908C337.938 374.957 337.873 374.756 337.939 374.521L341.043 377.819C339.525 378.083 338.387 375.445 337.551 374.908Z" fill="#D07C42"/>
<path d="M339.103 382.281C338.128 380.707 336.878 377.861 334.835 377.819C335.331 378.115 335.992 379.554 335.999 379.953C333.287 376.62 332.613 375.748 328.627 378.013C327.129 378.864 325.683 380.844 324.747 382.281C324.672 382.212 324.022 382.427 323.971 382.087C328.064 373.377 337.602 371.511 339.879 382.474C339.627 382.93 339.328 382.102 339.103 382.281Z" fill="#231413"/>
<path d="M339.103 382.281C337.582 383.489 335.588 384.082 333.671 384.221C335.398 382.661 336.044 382.504 335.999 379.953C335.992 379.554 335.331 378.115 334.835 377.819C336.878 377.861 338.128 380.707 339.103 382.281Z" fill="white"/>
<path d="M329.791 383.832C328.352 383.63 325.823 383.259 324.747 382.281C325.683 380.843 327.129 378.864 328.627 378.013C327.323 380.585 328.258 381.731 329.791 383.832Z" fill="white"/>
<path d="M338.909 384.22C340.521 383.828 343.287 385.152 343.371 387.131C343.176 388.224 336.01 384.927 338.909 384.22Z" fill="#F3C291"/>
<path d="M335.999 379.952C336.044 382.504 335.399 382.661 333.671 384.22C332.227 384.325 331.161 384.025 329.791 383.833C328.258 381.731 327.323 380.585 328.627 378.012C332.613 375.748 333.287 376.62 335.999 379.952Z" fill="#44485E"/>
<path d="M330.761 378.788C332.007 377.727 334.915 381.061 334.835 381.31C334.775 381.498 331.758 382.859 331.149 382.669C329.854 382.264 330.061 379.385 330.761 378.788Z" fill="#181319"/>
<path d="M293.319 425.349C293.819 425.486 293.727 427.008 293.707 427.095C291.257 437.844 289.339 445.034 289.051 456.582C288.719 469.901 289.888 484.675 291.573 497.905C294.111 497.78 291.452 467.996 291.379 465.118C291.234 459.379 290.905 452.684 292.155 447.271C292.626 450.051 291.168 454.512 292.931 456.777C293.522 466.385 295.364 475.933 296.423 485.489C293.963 493.906 289.546 502.034 287.499 509.157C285.832 507.004 283.637 509.632 283.425 509.545C283.013 509.374 284.879 504.152 277.799 505.471C290.04 500.651 278.31 501.1 277.799 500.427C279.263 498.341 282.081 498.953 284.007 497.323L279.351 494.607C286.351 493.157 284.981 490.412 278.575 490.727C280.191 488.934 282.233 490.68 284.007 489.563L280.321 487.817C278.755 485.098 285.014 487.885 285.171 487.623C285.73 485.221 283.542 485.154 282.843 483.355C290.599 482.829 286.521 478.402 281.291 477.923C288.498 477.117 293.692 473.357 282.843 472.103L286.335 468.223C285.315 466.652 275.716 475.023 288.275 474.431C287.127 476.088 279.978 476.041 279.739 477.923C279.43 480.356 284.989 479.022 285.947 481.027C285.978 482.761 275.927 480.909 284.395 486.071C282.385 485.92 279.409 484.555 278.963 487.623C282.064 489.259 279.602 488.364 278.187 490.145C275.908 489.054 276.7 485.217 276.247 482.967C273.631 469.994 270.111 459.068 270.815 445.331C270.905 443.583 272.44 439.403 271.203 438.735C271.863 440.445 270.448 440.757 270.427 440.869C270.589 439.222 271.656 435.502 270.039 434.855C267.252 447.432 271.997 464.664 263.831 475.013C259.921 479.968 252.185 484.981 246.371 487.041C256.492 480.917 260.175 458.861 259.951 447.853C262.204 442.791 266.828 438.236 269.651 433.497C271.938 435.414 274.819 436.06 277.411 437.376C279.739 438.559 282.126 439.759 284.395 441.063C284.393 442.046 270.453 445.159 280.903 448.046C278.039 449.405 275.807 451.923 279.739 453.479L277.023 456.195L280.127 457.747C276.942 459.966 276.491 464.968 281.485 464.537L279.933 463.373L285.947 462.015C285.231 463.743 283.7 463.851 282.455 465.313C281.857 466.014 282.185 466.241 282.067 466.477C281.994 466.623 280.382 467.274 281.097 468.029L288.275 465.895C288.332 464.453 283.076 465.837 282.455 466.477V465.701C291.169 461.086 284.761 459.579 279.157 462.985C276.983 459.476 283.808 458.695 285.171 456.195C284.112 455.43 277.973 457.99 278.187 455.807C278.265 455.012 285.201 452.33 285.171 451.539H278.187C278.643 450.157 285.836 447.496 284.783 446.107L278.187 445.719C284.083 443.633 289.512 439.356 279.739 437.376L288.663 435.631C288.799 432.807 288.184 429.984 287.499 427.289C289.234 426.474 291.446 425.699 293.319 425.349Z" fill="#F8C3B1"/>
<path d="M234.343 488.205C232.829 488.136 231.414 483.841 231.239 482.191C230.366 473.974 237.279 450.81 242.103 443.973C249.861 448.046 255.154 446.155 254.131 456.971C253.805 460.422 249.132 478.222 247.535 481.027C245.551 484.51 238.211 488.38 234.343 488.205Z" fill="#FBFEFF"/>
<path d="M277.411 492.085C279.188 491.06 281.59 490.972 283.231 492.279C281.405 493.191 278.818 492.117 277.799 494.219C277.264 496.759 280.866 496.667 280.515 497.323C280.394 497.55 277.034 498.376 276.635 500.427C276.106 503.145 278.147 503.341 278.187 503.531C278.402 504.54 273.633 506.308 282.455 507.023L277.023 511.291L281.873 509.157L280.515 512.843C280.67 513.079 283.872 512.725 284.395 512.649C284.427 514.115 283.007 516.198 282.843 517.305C282.755 517.898 282.846 518.042 282.843 518.081C282.737 519.287 282.627 522.878 282.843 523.901C283.424 526.655 289.138 526.107 292.155 526.229V547.181C291.987 544.263 292.355 527.642 291.767 526.811C291.585 526.554 290.235 526.51 290.021 526.617C288.946 527.153 289.769 547.853 289.439 550.479L292.155 550.673V551.837C286.11 551.154 279.057 550.301 273.919 546.987C273.334 530.248 275.562 513.257 274.695 496.547C274.371 490.309 273.136 483.927 272.367 477.729L275.859 494.219C278.87 494.475 277.342 492.271 277.411 492.085Z" fill="#F8C3B1"/>
<path d="M327.463 552.225C318.756 552.827 310.174 552.676 301.467 552.225L302.825 530.885C303.846 530.959 304.915 530.779 305.929 530.885C307.538 531.052 325.294 535.659 326.105 536.317C328.994 538.659 327.779 548.619 327.463 552.225Z" fill="#6E97BF"/>
<path d="M333.671 551.449L333.283 532.437C334.44 532.41 335.62 532.489 336.775 532.437L337.745 550.673L338.715 532.437C343.3 531.928 349.243 528.94 353.459 527.005C353.459 533.399 353.436 539.831 353.459 546.211C348.271 550.52 340.227 550.693 333.671 551.449Z" fill="#F8C3B1"/>
<path d="M300.691 526.229C303.553 526.899 307.7 528.864 311.167 529.721C318.631 531.565 326.508 532.595 333.283 532.437L333.671 551.449C331.625 551.685 329.523 552.083 327.463 552.225C327.779 548.619 328.994 538.659 326.105 536.317C325.293 535.659 307.538 531.052 305.929 530.885C304.915 530.779 303.846 530.959 302.825 530.885L301.467 552.225C299.482 552.122 297.622 552.006 295.647 551.837L296.035 526.229C297.467 526.338 298.275 525.663 300.691 526.229Z" fill="#6A819E"/>
<path d="M314.659 435.049C314.89 434.998 315.187 435.073 315.435 435.049C319.239 437.161 320.729 441.535 323.389 444.749C326.484 441.367 330.439 437.429 332.119 433.109L332.895 464.537C331.227 464.8 329.912 464.853 328.239 464.925C328.429 464.306 327.874 464.155 327.851 463.761C328.481 463.65 330.257 464.004 330.567 463.567C331.195 462.68 330.38 444.557 330.955 441.839C329.602 440.193 329.237 442.62 328.627 443.197C327.705 444.067 323.247 448.555 322.225 448.241L315.241 437.765L308.257 449.405L299.333 440.868C299.063 445.646 299.43 450.463 299.527 455.225C299.532 455.468 299.121 455.886 299.139 456.777C296.884 458.675 299.868 465.546 297.199 465.701C296.697 454.888 296.17 443.931 296.811 433.109C298.676 437.971 303.184 442.252 307.093 445.525C308.393 443.377 312.257 435.577 314.659 435.049Z" fill="#6A819E"/>
<path d="M243.655 443.197C242.809 443.829 245.283 444.71 245.401 444.748C249.283 446.026 253.964 447.157 258.011 447.853C258.159 450.793 257.119 453.515 257.623 456.389C254.225 469.36 253.083 484.7 237.447 488.787C240.136 490.455 243.992 488.48 246.371 487.041C252.185 484.981 259.921 479.968 263.831 475.013C265.992 474.723 263.458 476.589 265.771 475.789C258.41 482.209 244.171 496.321 234.343 488.205C238.211 488.38 245.551 484.509 247.535 481.027C249.132 478.222 253.805 460.423 254.131 456.971C255.153 446.155 249.86 448.046 242.103 443.973C242.162 443.889 242.05 443.033 242.685 442.809C242.982 443.283 243.229 443.155 243.655 443.197Z" fill="#F8C3B1"/>
<path d="M364.323 477.729C364.885 478.709 367.813 482.28 367.815 482.579C367.824 484.024 364.49 484.622 370.143 486.459L367.815 488.399L370.337 490.921C364.112 491.377 367.189 490.04 367.039 489.175C366.939 488.6 364.689 488.06 364.323 487.623C363.783 486.976 358.822 478.228 358.503 478.699L358.115 480.445C357.762 479.44 357.541 478.381 357.339 477.341C355.524 467.977 354.522 453.193 353.847 443.391C353.778 442.392 353.587 440.506 354.235 439.705C358.238 454.031 356.182 463.528 364.323 477.729Z" fill="#D89079"/>
<path d="M334.835 428.065L338.327 455.613C337.813 455.69 336.69 455.403 336.387 455.807C336.602 458.584 337.855 462.862 334.835 464.537C334.216 464.88 332.991 464.521 332.895 464.537L332.119 433.109C333.098 430.59 332.409 428.661 333.865 426.901C334.742 427.085 334.765 428.036 334.835 428.065Z" fill="#FBFEFF"/>
<path d="M353.459 526.229V527.005C349.243 528.94 343.3 531.927 338.715 532.437C338.618 532.448 337.305 532.413 336.775 532.437C335.62 532.489 334.44 532.41 333.283 532.437C326.508 532.595 318.631 531.565 311.167 529.721C311.072 527.562 316.728 529.281 317.957 529.333C327.12 529.722 336.968 529.118 345.699 526.811L343.759 525.841C346.658 525.802 351.017 526.398 353.459 526.229Z" fill="#F5AE92"/>
<path d="M246.371 487.041C243.992 488.48 240.136 490.454 237.447 488.787C253.083 484.7 254.225 469.36 257.623 456.389C258.459 453.197 258.513 451.083 259.951 447.853C260.175 458.861 256.492 480.917 246.371 487.041Z" fill="#D89079"/>
<path d="M296.035 526.229L295.647 551.837C294.512 551.74 293.279 551.964 292.155 551.837V550.673C292.155 549.522 292.221 548.327 292.155 547.181V526.229C293.444 526.281 294.595 526.119 296.035 526.229Z" fill="#F4DAC9"/>
<path d="M278.187 490.145C277.882 490.529 277.626 491.508 277.411 492.085C277.342 492.271 278.87 494.475 275.859 494.219L272.367 477.729C272.118 475.72 271.47 474.095 271.203 472.103C271.159 471.777 270.432 471.948 270.427 471.909C269.594 465.71 269.293 446.744 270.427 440.868C270.448 440.757 271.863 440.445 271.203 438.735C272.44 439.403 270.904 443.583 270.815 445.331C270.111 459.068 273.631 469.994 276.247 482.967C276.701 485.217 275.907 489.054 278.187 490.145Z" fill="#F4DAC9"/>
<path d="M270.427 440.869C269.293 446.744 269.595 465.709 270.427 471.909C268.956 473.29 267.286 474.467 265.771 475.789C263.459 476.59 265.992 474.723 263.831 475.013C271.997 464.664 267.252 447.432 270.039 434.854C271.656 435.502 270.589 439.222 270.427 440.869Z" fill="#D89079"/>
<path d="M258.011 447.853C253.964 447.157 249.283 446.026 245.401 444.749C245.283 444.71 242.809 443.828 243.655 443.197C247.853 443.608 253.178 446.71 257.817 445.913C258.925 446.677 257.968 447.007 258.011 447.853Z" fill="#D89079"/>
<path d="M296.811 433.109C296.17 443.931 296.697 454.888 297.199 465.701C297.362 469.209 297.29 473.393 298.363 476.565C297.753 477.909 297.088 483.213 296.423 485.489C295.363 475.933 293.522 466.385 292.931 456.777C292.28 446.207 293.548 439.707 295.647 430.005C296.576 430.641 296.56 432.456 296.811 433.109Z" fill="#FBFEFF"/>
<path d="M295.647 430.005C293.548 439.707 292.28 446.206 292.931 456.777C291.168 454.512 292.626 450.051 292.155 447.271C290.905 452.683 291.234 459.379 291.379 465.119C291.452 467.996 294.111 497.78 291.573 497.905C289.888 484.675 288.719 469.901 289.051 456.583C289.339 445.034 291.257 437.844 293.707 427.095C293.727 427.007 293.819 425.486 293.319 425.349C293.897 425.24 296.755 424.294 296.811 425.154C295.469 426.449 295.876 428.947 295.647 430.005Z" fill="#F8C3B1"/>
<path d="M279.739 437.377C289.512 439.356 284.083 443.634 278.187 445.719L284.783 446.107C285.835 447.496 278.643 450.157 278.187 451.539H285.171C285.201 452.33 278.265 455.012 278.187 455.807C277.973 457.991 284.112 455.43 285.171 456.195C283.808 458.695 276.983 459.476 279.157 462.985C284.761 459.578 291.169 461.086 282.455 465.701V465.313C283.7 463.852 285.231 463.743 285.947 462.015L279.933 463.373L281.485 464.537C276.491 464.968 276.942 459.966 280.127 457.747L277.023 456.195L279.739 453.479C275.807 451.923 278.039 449.405 280.903 448.047C270.453 445.159 284.393 442.046 284.395 441.062C282.126 439.758 279.739 438.559 277.411 437.377C277.851 437.15 279.305 437.289 279.739 437.377Z" fill="#1D1111"/>
<path d="M282.067 466.477H282.455C283.076 465.838 288.332 464.454 288.275 465.895L281.097 468.029C280.381 467.274 281.994 466.623 282.067 466.477Z" fill="#1D1111"/>
<path d="M282.455 465.701V466.477H282.067C282.185 466.241 281.857 466.014 282.455 465.313V465.701Z" fill="#7F6358"/>
<path d="M358.115 480.445C359.555 484.544 363.323 487.716 365.875 491.115C365.903 491.989 358.671 498.403 358.115 496.547L357.339 477.341C357.541 478.381 357.762 479.44 358.115 480.445Z" fill="white"/>
<path d="M357.339 514.201C354.38 511.469 352.93 507.957 351.131 504.501L360.443 498.099C358.046 502.751 356.943 505.613 356.951 510.903C356.954 512.538 358.47 511.796 357.339 514.201Z" fill="#D89079"/>
<path d="M339.879 474.625C338.513 473.817 334.233 472.45 332.507 471.909L332.895 470.745C335.004 470.591 338.764 470.022 340.267 468.417L339.879 474.625Z" fill="#FBFEFF"/>
<path d="M334.835 428.065C337.613 429.179 351.351 435.255 352.877 436.601C354.382 437.927 353.835 438.272 354.235 439.705C353.587 440.506 353.778 442.391 353.847 443.39C354.522 453.193 355.524 467.977 357.339 477.341L358.115 496.547C358.671 498.403 365.904 491.989 365.875 491.115C363.323 487.716 359.555 484.543 358.115 480.445L358.503 478.699C358.822 478.228 363.783 486.977 364.323 487.623C364.688 488.06 366.939 488.6 367.039 489.175C367.189 490.04 364.112 491.377 370.337 490.921L367.815 488.399L370.143 486.459C364.49 484.622 367.824 484.024 367.815 482.579C367.813 482.28 364.885 478.709 364.323 477.729C365.334 477.831 369.627 480.899 369.755 481.415C370.049 482.599 368.847 483.659 368.979 484.131C369.18 484.852 377.519 488.189 371.307 489.563C377.11 491.856 370.36 493.563 367.621 495.965C365.07 498.201 356.456 507.341 360.249 510.709C364.31 514.315 376.689 504.918 380.037 502.173L387.603 494.219C380.529 505.067 369.47 513.602 358.115 519.633C358.112 519.553 357.828 518.634 357.727 518.081C357.659 517.704 358.18 518.034 357.727 516.917C357.531 516.433 357.246 516.152 356.951 515.753C356.799 515.049 357.084 514.742 357.339 514.201C358.47 511.796 356.954 512.538 356.951 510.903C356.943 505.613 358.046 502.751 360.443 498.099L351.131 504.501C346.594 495.783 342.538 485.902 341.819 475.983C341.417 474.713 340.5 474.992 339.879 474.625L340.267 468.417C341.761 466.821 342.525 457.79 341.819 456.195C341.462 455.388 339.049 455.504 338.327 455.613L334.835 428.065Z" fill="#F8C3B1"/>
<path d="M354.817 497.905C354.901 497.877 356.177 498.178 356.563 498.099C356.599 498.465 351.38 502.084 350.355 501.979C351.063 501.127 354.038 498.164 354.817 497.905Z" fill="#F5AE92"/>
<path d="M292.155 547.181C292.221 548.327 292.155 549.522 292.155 550.673L289.439 550.479C289.769 547.853 288.946 527.153 290.021 526.617C290.235 526.51 291.585 526.554 291.767 526.811C292.355 527.642 291.987 544.263 292.155 547.181Z" fill="#F8C3B1"/>
<path d="M338.715 532.437L337.745 550.673L336.775 532.437C337.305 532.413 338.618 532.447 338.715 532.437Z" fill="#F8C3B1"/>
<path d="M343.759 525.841L345.699 526.811C336.968 529.118 327.12 529.722 317.957 529.333C316.728 529.281 311.072 527.563 311.167 529.721C307.7 528.865 303.553 526.899 300.691 526.229C315.019 525.376 329.414 526.032 343.759 525.841Z" fill="#D89079"/>
<path d="M328.627 443.197C329.689 449.693 327.488 457.439 327.851 463.761C327.874 464.155 328.429 464.306 328.239 464.925C323.378 465.133 313.272 465.604 308.839 464.925C301.257 463.762 306.117 457.598 304.571 455.419C304.227 454.933 300.412 455.378 299.527 455.225C299.43 450.463 299.063 445.646 299.333 440.869L308.257 449.405L315.241 437.765L322.225 448.241C323.247 448.555 327.705 444.067 328.627 443.197Z" fill="#6E97BF"/>
<path d="M299.139 456.777C299.403 469.95 298.975 470.059 313.107 470.939C310.007 471.304 299.642 473.745 298.363 476.565C297.291 473.392 297.362 469.209 297.199 465.701C299.868 465.546 296.884 458.676 299.139 456.777Z" fill="#6E97BF"/>
<path d="M327.851 463.761C327.488 457.439 329.689 449.693 328.627 443.197C329.237 442.62 329.602 440.193 330.955 441.839C330.381 444.557 331.195 462.68 330.567 463.567C330.257 464.004 328.482 463.65 327.851 463.761Z" fill="#6A819E"/>
<path d="M287.499 509.157C287.442 509.355 287.527 509.684 287.499 509.933C287.098 510.47 286.865 511.403 286.335 511.873C284.798 513.233 285.473 512.478 284.783 512.649C284.663 512.678 284.521 512.63 284.395 512.649C283.872 512.725 280.67 513.079 280.515 512.843L281.873 509.157L277.023 511.291L282.455 507.023C273.633 506.308 278.402 504.54 278.187 503.531C278.146 503.341 276.106 503.145 276.635 500.427C277.034 498.376 280.393 497.549 280.515 497.323C280.866 496.667 277.264 496.759 277.799 494.219C278.818 492.117 281.405 493.191 283.231 492.279C281.59 490.972 279.187 491.06 277.411 492.085C277.626 491.508 277.882 490.528 278.187 490.145C279.602 488.364 282.064 489.259 278.963 487.623C279.409 484.555 282.385 485.92 284.395 486.071C275.927 480.909 285.978 482.761 285.947 481.027C284.989 479.022 279.43 480.356 279.739 477.923C279.978 476.041 287.127 476.088 288.275 474.431C275.716 475.023 285.314 466.652 286.335 468.223L282.843 472.103C293.692 473.357 288.497 477.117 281.291 477.923C286.521 478.402 290.598 482.829 282.843 483.355C283.542 485.154 285.73 485.221 285.171 487.623C285.014 487.885 278.755 485.097 280.321 487.817L284.007 489.563C282.233 490.68 280.191 488.934 278.575 490.727C284.981 490.412 286.351 493.157 279.351 494.607L284.007 497.323C282.08 498.953 279.263 498.341 277.799 500.427C278.309 501.1 290.04 500.651 277.799 505.471C284.879 504.152 283.013 509.374 283.425 509.545C283.636 509.632 285.832 507.004 287.499 509.157Z" fill="#1D1111"/>
<path d="M277.605 501.397L282.067 502.367C281.002 503.184 276.898 503.594 277.605 501.397Z" fill="#F4DAC9"/>
<path d="M285.365 509.545L285.753 510.321L282.455 511.291L285.365 509.545Z" fill="#EDD8D4"/>
<path d="M358.115 519.633C358.178 521.45 358.321 523.518 357.727 525.259C357.29 525.808 354.238 526.175 353.459 526.229C351.017 526.397 346.658 525.802 343.759 525.841C329.414 526.032 315.019 525.376 300.691 526.229C298.275 525.663 297.467 526.338 296.035 526.229C294.595 526.119 293.444 526.281 292.155 526.229C289.138 526.107 283.424 526.655 282.843 523.901L357.145 524.289L357.339 518.081H357.727C357.827 518.634 358.112 519.553 358.115 519.633Z" fill="#665231"/>
<path d="M308.839 464.925V465.313C302.921 464.821 302.406 463.561 303.407 457.359C299.378 453.823 299.879 462.943 300.303 465.119C301.632 471.945 310.599 467.9 314.465 469.193C315.676 469.598 317.807 476.95 321.061 476.565C322.978 476.338 325.972 469.398 326.493 469.193C330.284 467.7 339.254 472.331 340.655 464.343C340.767 463.705 340.789 458.048 340.655 457.747C340.27 456.878 337.855 456.904 337.551 457.747C336.728 460.029 339.524 463.612 334.835 464.925V464.537C337.855 462.862 336.602 458.584 336.387 455.807C336.69 455.403 337.813 455.69 338.327 455.613C339.049 455.504 341.462 455.388 341.819 456.195C342.525 457.79 341.761 466.821 340.267 468.417C338.764 470.022 335.004 470.592 332.895 470.745C331.771 470.826 328.946 469.737 327.463 470.551C328.864 471.73 330.921 471.411 332.507 471.909C334.233 472.45 338.513 473.817 339.879 474.625C340.501 474.993 341.417 474.713 341.819 475.983C342.538 485.902 346.594 495.783 351.131 504.501C352.93 507.957 354.381 511.469 357.339 514.201C357.085 514.742 356.799 515.05 356.951 515.753C356.447 515.07 355.219 514.52 355.011 514.201C349.35 505.495 345.233 495.643 342.207 485.683C339.686 477.385 343.964 477.39 334.059 474.625C327.42 472.771 327.918 472.047 323.195 477.729C321.807 477.597 319.552 477.613 318.151 477.729C318.17 477.256 317.626 477.137 317.375 476.953C315.977 475.927 313.955 472.778 313.689 472.685C312.451 472.251 300.609 475.529 299.721 476.565C298.66 477.802 299.427 478.355 299.139 479.281C296.061 489.151 293.714 501.61 287.499 509.933C287.527 509.684 287.442 509.355 287.499 509.157C289.546 502.034 293.963 493.906 296.423 485.489C297.088 483.213 297.753 477.909 298.363 476.565C299.642 473.745 310.007 471.304 313.107 470.939C298.975 470.059 299.403 469.95 299.139 456.777C299.121 455.886 299.532 455.468 299.527 455.225C300.412 455.378 304.227 454.933 304.571 455.419C306.117 457.598 301.258 463.762 308.839 464.925Z" fill="#3F2816"/>
<path d="M354.235 514.589C354.713 514.596 355.034 515.558 355.011 514.201C355.219 514.52 356.446 515.07 356.951 515.753C357.246 516.152 357.531 516.434 357.727 516.917L282.843 517.305C283.006 516.198 284.427 514.115 284.395 512.649C284.521 512.63 284.663 512.678 284.783 512.649C284.748 513.17 285.877 514.884 286.141 514.977C289.115 516.018 303.485 514.477 307.869 514.589C323.463 514.987 338.692 514.353 354.235 514.589Z" fill="#7E694A"/>
<path d="M357.727 516.917C358.18 518.034 357.659 517.704 357.727 518.081H357.339H282.843C282.846 518.042 282.755 517.897 282.843 517.305L357.727 516.917Z" fill="#D7BC78"/>
<path d="M357.339 518.081L357.145 524.289L282.843 523.901C282.627 522.878 282.737 519.287 282.843 518.081H357.339Z" fill="#7E694A"/>
<path d="M334.835 464.537V464.925C331.107 465.968 313.393 465.691 308.839 465.313V464.925C313.272 465.605 323.379 465.133 328.239 464.925C329.912 464.853 331.227 464.8 332.895 464.537C332.991 464.522 334.216 464.88 334.835 464.537Z" fill="#967D4C"/>
<path d="M318.151 477.729C310.365 478.369 302.502 483.573 301.079 491.697C298.321 494.284 300.59 503.056 303.213 505.277C308.188 509.489 318.377 512.166 325.523 511.873C332.64 511.58 346.053 508.1 345.699 499.069L354.235 514.589C338.692 514.353 323.463 514.987 307.869 514.589C303.485 514.477 289.115 516.018 286.141 514.977C285.877 514.884 284.748 513.169 284.783 512.649C285.473 512.478 284.798 513.233 286.335 511.873L287.499 512.843L286.529 513.813C287.292 514.167 287.817 513.438 287.887 513.425C294.173 512.194 297.315 496.249 298.363 490.533C298.63 489.077 298.584 487.667 298.751 486.265C300.567 485.554 301.436 482.805 302.825 481.609C306.836 478.153 312.569 478.5 317.375 476.953C317.626 477.137 318.17 477.256 318.151 477.729Z" fill="#CF962A"/>
<path d="M308.839 465.313C313.393 465.691 331.107 465.969 334.835 464.925C339.524 463.612 336.728 460.029 337.551 457.747C337.855 456.903 340.27 456.879 340.655 457.747C340.789 458.048 340.767 463.705 340.655 464.343C339.254 472.331 330.284 467.699 326.493 469.193C325.972 469.398 322.978 476.338 321.061 476.565C317.807 476.95 315.676 469.597 314.465 469.193C310.599 467.9 301.632 471.945 300.303 465.119C299.879 462.944 299.378 453.823 303.407 457.359C302.406 463.561 302.921 464.821 308.839 465.313Z" fill="#CF962A"/>
<path d="M334.059 474.625L340.267 477.535L341.819 488.593C339.724 485.206 336.486 482.432 332.895 480.833C332.459 480.638 331.918 480.018 331.731 480.833C329.377 479.229 326.029 477.998 323.195 477.729C327.918 472.047 327.419 472.771 334.059 474.625Z" fill="#CF962A"/>
<path d="M317.375 476.953C312.569 478.5 306.836 478.153 302.825 481.609C301.436 482.806 300.567 485.554 298.751 486.265C299.009 484.096 299.641 481.391 299.139 479.281C299.427 478.355 298.66 477.803 299.721 476.565C300.609 475.529 312.451 472.251 313.689 472.685C313.955 472.778 315.977 475.927 317.375 476.953Z" fill="#CF962A"/>
<path d="M298.751 486.265C298.584 487.667 298.63 489.077 298.363 490.533C297.82 490.397 296.986 491.123 296.811 491.503C293.757 498.106 293.996 507.883 287.887 513.425C287.818 513.438 287.292 514.167 286.529 513.813L287.499 512.843L286.335 511.873C286.865 511.403 287.098 510.47 287.499 509.933C293.715 501.609 296.061 489.151 299.139 479.281C299.641 481.391 299.009 484.096 298.751 486.265Z" fill="#D7BC78"/>
<path d="M355.011 514.201C355.034 515.558 354.712 514.596 354.235 514.589L345.699 499.069C345.608 496.732 343.094 490.654 341.819 488.593L340.267 477.535L334.059 474.625C343.964 477.39 339.686 477.385 342.207 485.683C345.233 495.643 349.349 505.495 355.011 514.201Z" fill="#D7BC78"/>
<path d="M332.895 470.745L332.507 471.909C330.921 471.411 328.864 471.73 327.463 470.551C328.946 469.736 331.771 470.826 332.895 470.745Z" fill="#8D7FA0"/>
<path d="M341.819 488.593C343.094 490.654 345.607 496.732 345.699 499.069C346.052 508.1 332.64 511.58 325.523 511.873L335.417 506.829C343.727 499.206 340.532 487.709 332.895 480.833C336.486 482.432 339.724 485.206 341.819 488.593Z" fill="#7E694A"/>
<path d="M298.363 490.533C297.315 496.249 294.173 512.194 287.887 513.425C293.996 507.883 293.758 498.106 296.811 491.503C296.987 491.123 297.819 490.398 298.363 490.533Z" fill="#F8E4AF"/>
<path d="M332.895 480.833C340.532 487.709 343.727 499.206 335.417 506.829L325.523 511.873C318.377 512.166 308.188 509.49 303.213 505.277C300.59 503.056 298.321 494.284 301.079 491.697C298.343 507.31 316.637 511.996 328.627 508.381C330.537 507.805 331.275 508.055 332.895 506.441C342.763 500.972 340.167 486.579 331.731 480.833C331.918 480.018 332.459 480.639 332.895 480.833Z" fill="#3F2816"/>
<path d="M318.151 477.729C319.552 477.613 321.807 477.597 323.195 477.729C326.029 477.998 329.377 479.229 331.731 480.833C340.167 486.579 342.763 500.972 332.895 506.441C333.201 506.136 334.522 504.652 334.447 504.307C328.532 499.015 324.687 498.025 332.507 505.471C329.521 508.594 328.619 505.884 326.493 503.725L328.627 508.381C316.637 511.996 298.343 507.31 301.079 491.697C302.502 483.573 310.365 478.369 318.151 477.729Z" fill="white"/>
<path d="M332.895 506.441C331.275 508.055 330.537 507.805 328.627 508.381L326.493 503.725C328.619 505.884 329.522 508.594 332.507 505.471C324.687 498.024 328.532 499.015 334.447 504.307C334.522 504.652 333.201 506.136 332.895 506.441Z" fill="#B5AFBC"/>
<path d="M334.253 488.593C336.527 488.54 335.568 492.673 333.477 491.697C332.201 491.101 332.999 488.622 334.253 488.593Z" fill="#47352B"/>
<path d="M317.569 504.501C319.591 504.469 319.133 507.309 317.957 507.605C315.962 508.106 315.573 504.532 317.569 504.501Z" fill="#47352B"/>
<path d="M305.541 496.741C307.577 496.144 307.831 498.917 306.705 499.457C304.535 500.497 303.784 497.256 305.541 496.741Z" fill="#47352B"/>
<path d="M304.765 492.085C306.608 491.797 307.053 494.356 305.541 494.801C302.964 495.559 303.039 492.354 304.765 492.085Z" fill="#47352B"/>
<path d="M322.225 504.501C324.78 503.764 324.279 507.667 322.613 507.605C321.398 507.56 320.66 504.952 322.225 504.501Z" fill="#47352B"/>
<path d="M313.689 479.669C315.193 479.745 315.615 483.557 312.913 482.773C310.837 482.17 313.116 479.64 313.689 479.669Z" fill="#47352B"/>
<path d="M323.001 479.281C325.219 478.218 325.877 481.554 324.165 481.997C322.438 482.443 321.694 479.907 323.001 479.281Z" fill="#47352B"/>
<path d="M317.957 478.505C319.996 477.582 320.827 480.725 319.121 481.221C317.059 481.819 316.851 479.005 317.957 478.505Z" fill="#4E3722"/>
<path d="M308.257 483.161C310.474 482.098 311.133 485.434 309.421 485.877C307.694 486.323 306.95 483.787 308.257 483.161Z" fill="#47352B"/>
<path d="M328.045 480.833C330.323 480.57 329.678 484.024 328.045 483.937C326.543 483.857 326.358 481.027 328.045 480.833Z" fill="#47352B"/>
<path d="M308.257 501.009C310.308 500.413 310.536 503.204 309.421 503.725C307.741 504.51 306.359 501.56 308.257 501.009Z" fill="#47352B"/>
<path d="M305.541 487.429C307.799 486.76 307.662 489.794 306.317 490.145C304.401 490.644 303.958 487.898 305.541 487.429Z" fill="#4E3722"/>
<path d="M312.525 503.337C314.189 502.92 314.919 505.578 313.301 506.053C311.025 506.721 311.197 503.669 312.525 503.337Z" fill="#4E3722"/>
<path d="M331.925 483.937C334.165 483.887 333.122 487.567 331.149 486.653C329.817 486.035 330.858 483.961 331.925 483.937Z" fill="#47352B"/>
<path d="M333.477 493.637C333.672 493.611 337.601 493.879 337.163 494.995L331.925 495.189C331.357 494.772 333.368 493.651 333.477 493.637Z" fill="#8E8282"/>
<path d="M317.181 483.161C334.391 480.499 334.163 504.576 317.181 502.561C305.682 501.196 306.228 484.855 317.181 483.161Z" fill="#B5AFBC"/>
<path d="M325.911 487.041C321.753 486.096 318.189 491.872 323.389 492.861C324.577 490.965 325.302 489.33 327.851 489.369C333.287 500.438 315.239 504.096 311.167 497.323C305.682 488.201 319.395 480.259 325.911 487.041Z" fill="#C8C7D5"/>
<path d="M325.911 487.041C327.537 487.41 327.502 488.659 327.851 489.369C325.302 489.33 324.577 490.965 323.389 492.861C318.189 491.872 321.753 486.096 325.911 487.041Z" fill="white"/>
</g>
</svg>
