<svg width="439" height="783" viewBox="0 0 439 783" fill="none" xmlns="http://www.w3.org/2000/svg">
<mask id="mask0_1_844" style="mask-type:luminance" maskUnits="userSpaceOnUse" x="0" y="0" width="440" height="783">
<path d="M0 0H440V782.222H0V0Z" fill="white"/>
</mask>
<g mask="url(#mask0_1_844)">
<path d="M93.4238 485.754C93.1419 485.536 92.8413 485.346 92.5214 485.182C91.2829 484.546 90.121 483.659 88.9464 482.913C87.1632 481.781 85.3393 480.214 83.2423 479.796C82.2348 479.595 81.2509 479.602 80.2898 479.817C78.7869 480.153 77.759 480.808 77.2045 481.784C76.6493 482.76 76.5001 483.819 76.7552 484.96C76.9031 485.622 77.1931 486.322 77.6266 487.06C78.0597 487.8 78.5795 488.464 79.1845 489.054C76.9328 488.58 74.0198 488.742 70.4448 489.541C68.1613 490.051 66.1422 490.897 64.3875 492.078C62.6324 493.259 61.2818 494.626 60.3358 496.177C59.389 497.73 58.9107 499.328 58.8993 500.97C58.8802 501.731 58.9446 502.443 59.092 503.103C59.6229 505.477 61.1523 507.028 63.6811 507.756C61.5055 509.031 60.3513 510.504 60.2201 512.173C60.2108 512.553 60.243 512.909 60.3167 513.239C60.5318 514.201 61.0769 514.947 61.9524 515.476C59.8294 516.14 58.3571 516.856 57.5349 517.623C56.7128 518.39 56.2638 519.239 56.1884 520.172C56.1758 520.679 56.1962 521.053 56.25 521.293C56.4581 522.225 57.0265 523.001 57.9493 523.622L57.9647 523.631C57.9945 523.651 58.0263 523.67 58.0572 523.69L65.3058 528.29L65.3278 528.287C65.5266 528.433 65.7389 528.573 65.9748 528.702C67.1799 529.363 68.8604 529.721 71.0173 529.776C73.1741 529.83 75.7248 529.528 78.6696 528.869C81.9741 528.131 84.7123 527.188 86.885 526.04C89.0573 524.892 90.669 523.671 91.7213 522.38C92.7732 521.087 93.3485 519.816 93.4471 518.563C93.4996 517.952 93.4658 517.376 93.3448 516.835C93.1317 515.882 92.6775 515.132 91.9853 514.583C91.771 514.413 91.5343 514.263 91.2748 514.132L85.6004 510.531C86.0677 510.282 86.5183 510.013 86.9526 509.724C88.6955 508.561 90.0314 507.198 90.9594 505.634C91.8875 504.071 92.3568 502.467 92.3683 500.824C92.3369 499.979 92.2578 499.272 92.1303 498.701C91.6993 496.772 90.2742 495.578 89.417 493.866C89.1037 493.242 88.8939 492.69 88.7863 492.208C88.6991 491.819 88.6771 491.508 88.7203 491.277C89.2846 491.404 89.7661 491.477 90.1654 491.498C90.5642 491.52 91.109 491.453 91.8003 491.298C94.2036 490.761 95.2079 489.607 94.8115 487.834C94.6302 487.023 94.1678 486.33 93.4238 485.754Z" fill="#A8BCC0"/>
<path d="M93.4238 485.754C93.1419 485.536 92.8413 485.346 92.5214 485.182C91.2829 484.546 90.121 483.659 88.9464 482.913C87.1632 481.781 85.3393 480.214 83.2423 479.796C82.2348 479.595 81.2509 479.602 80.2898 479.817C78.7869 480.153 77.759 480.808 77.2045 481.784C76.6493 482.76 76.5001 483.819 76.7552 484.96C76.9031 485.622 77.1931 486.322 77.6266 487.06C78.0597 487.8 78.5795 488.464 79.1845 489.054C76.9328 488.58 74.0198 488.742 70.4448 489.541C68.1613 490.051 66.1422 490.897 64.3875 492.078C62.6324 493.259 61.2818 494.626 60.3358 496.177C59.389 497.73 58.9107 499.328 58.8993 500.97C58.8802 501.731 58.9446 502.443 59.092 503.103C59.6229 505.477 61.1523 507.028 63.6811 507.756C61.5055 509.031 60.3513 510.504 60.2201 512.173C60.2108 512.553 60.243 512.909 60.3167 513.239C60.5318 514.201 61.0769 514.947 61.9524 515.476C59.8294 516.14 58.3571 516.856 57.5349 517.623C56.7128 518.39 56.2638 519.239 56.1884 520.172C56.1758 520.679 56.1962 521.053 56.25 521.293C56.4581 522.225 57.0265 523.001 57.9493 523.622L57.9647 523.631C57.9945 523.651 58.0263 523.67 58.0572 523.69L65.3058 528.29L65.3278 528.287C65.5266 528.433 65.7389 528.573 65.9748 528.702C67.1799 529.363 68.8604 529.721 71.0173 529.776C73.1741 529.83 75.7248 529.528 78.6696 528.869C81.9741 528.131 84.7123 527.188 86.885 526.04C89.0573 524.892 90.669 523.671 91.7213 522.38C92.7732 521.087 93.3485 519.816 93.4471 518.563C93.4996 517.952 93.4658 517.376 93.3448 516.835C93.1317 515.882 92.6775 515.132 91.9853 514.583C91.771 514.413 91.5343 514.263 91.2748 514.132L85.6004 510.531C86.0677 510.282 86.5183 510.013 86.9526 509.724C88.6955 508.561 90.0314 507.198 90.9594 505.634C91.8875 504.071 92.3568 502.467 92.3683 500.824C92.3369 499.979 92.2578 499.272 92.1303 498.701C91.6993 496.772 90.2742 495.578 89.417 493.866C89.1037 493.242 88.8939 492.69 88.7863 492.208C88.6991 491.819 88.6771 491.508 88.7203 491.277C89.2846 491.404 89.7661 491.477 90.1654 491.498C90.5642 491.52 91.109 491.453 91.8003 491.298C94.2036 490.761 95.2079 489.607 94.8115 487.834C94.6302 487.023 94.1678 486.33 93.4238 485.754Z" stroke="#4969A2" stroke-miterlimit="10" stroke-linecap="round" stroke-linejoin="round"/>
<path d="M74.0221 494.325C73.7939 493.304 73.2435 492.89 72.3725 493.085C71.6212 493.252 71.05 493.767 70.6589 494.627C70.2674 495.488 69.9977 496.928 69.8506 498.948C69.719 500.618 69.7439 501.858 69.9252 502.669C70.1468 503.661 70.6781 504.062 71.5194 503.874C72.2702 503.707 72.8475 503.183 73.2508 502.305C73.6534 501.426 73.932 499.992 74.0868 498.001C74.2245 496.361 74.2034 495.136 74.0221 494.325ZM68.6545 515.824C67.8128 516.011 67.0367 516.138 66.3257 516.202C66.0662 516.733 66.0202 517.374 66.188 518.126C66.3852 518.869 66.8146 519.341 67.4746 519.541C68.1342 519.741 69.0794 519.703 70.3118 519.428C71.8135 519.092 72.9881 518.593 73.8334 517.931C74.6792 517.269 75.008 516.516 74.8198 515.676C74.7395 515.315 74.5403 515.059 74.2229 514.91C73.9055 514.76 73.4912 514.742 72.9807 514.856L68.6545 515.824ZM83.2425 479.796C84.2492 479.997 85.1247 480.385 85.8682 480.959C86.6122 481.535 87.0746 482.228 87.2559 483.039C87.6523 484.812 86.6484 485.966 84.2451 486.504C83.5534 486.658 83.0087 486.725 82.6098 486.703C82.2105 486.683 81.729 486.609 81.1647 486.482C81.1215 486.713 81.1435 487.024 81.2307 487.414C81.3383 487.895 81.5485 488.448 81.8614 489.071C82.1739 489.695 82.5145 490.266 82.8832 490.783C83.722 491.573 84.2859 492.614 84.5747 493.906C84.7022 494.477 84.7813 495.185 84.8127 496.029C84.8016 497.672 84.3319 499.276 83.4038 500.839C82.4758 502.404 81.1399 503.766 79.397 504.929C77.6533 506.092 75.6399 506.928 73.3572 507.438C71.6143 507.828 69.9504 508.074 68.3644 508.176C68.0014 508.667 67.8832 509.198 68.0108 509.769C68.0979 510.16 68.3505 510.443 68.7681 510.617C69.1857 510.792 69.8148 510.785 70.6565 510.597L77.4162 509.086C79.7294 508.569 81.621 508.564 83.0909 509.071C84.5605 509.579 85.4604 510.569 85.7892 512.041C85.9102 512.582 85.9444 513.157 85.8919 513.769C85.7929 515.021 85.2176 516.293 84.1661 517.585C83.1134 518.876 81.5016 520.097 79.3298 521.245C77.1567 522.393 74.4185 523.336 71.114 524.075C68.1692 524.733 65.6185 525.035 63.4617 524.981C61.3048 524.926 59.6243 524.568 58.4192 523.908C57.2149 523.246 56.4917 522.375 56.2497 521.294C56.1959 521.053 56.176 520.678 56.1882 520.172C56.264 519.239 56.7129 518.39 57.5351 517.623C58.3572 516.856 59.8296 516.14 61.9526 515.476C61.0771 514.947 60.532 514.201 60.3169 513.239C60.2431 512.909 60.2109 512.553 60.2203 512.173C60.3515 510.504 61.5053 509.031 63.6808 507.756C61.1525 507.028 59.6227 505.477 59.0922 503.104C58.9443 502.443 58.8799 501.731 58.8991 500.97C58.9105 499.328 59.3888 497.73 60.3356 496.178C61.282 494.625 62.6326 493.259 64.3877 492.078C66.142 490.898 68.1615 490.051 70.445 489.541C74.02 488.742 76.933 488.58 79.1843 489.054C78.5793 488.464 78.0595 487.8 77.6268 487.06C77.1933 486.322 76.9028 485.621 76.7554 484.96C76.4999 483.819 76.649 482.76 77.2043 481.784C77.7588 480.809 78.7871 480.153 80.2896 479.817C81.2511 479.602 82.235 479.595 83.2425 479.796Z" fill="#FAB690"/>
<path d="M74.0221 494.325C73.7939 493.304 73.2435 492.89 72.3725 493.085C71.6212 493.252 71.05 493.767 70.6589 494.627C70.2674 495.488 69.9977 496.928 69.8506 498.948C69.719 500.618 69.7439 501.858 69.9252 502.669C70.1468 503.661 70.6781 504.062 71.5194 503.874C72.2702 503.707 72.8475 503.183 73.2508 502.305C73.6534 501.426 73.932 499.992 74.0868 498.001C74.2245 496.361 74.2034 495.136 74.0221 494.325ZM68.6545 515.824C67.8128 516.011 67.0367 516.138 66.3257 516.202C66.0662 516.733 66.0202 517.374 66.188 518.126C66.3852 518.869 66.8146 519.341 67.4746 519.541C68.1342 519.741 69.0794 519.703 70.3118 519.428C71.8135 519.092 72.9881 518.593 73.8334 517.931C74.6792 517.269 75.008 516.516 74.8198 515.676C74.7395 515.315 74.5403 515.059 74.2229 514.91C73.9055 514.76 73.4912 514.742 72.9807 514.856L68.6545 515.824ZM83.2425 479.796C84.2492 479.997 85.1247 480.385 85.8682 480.959C86.6122 481.535 87.0746 482.228 87.2559 483.039C87.6523 484.812 86.6484 485.966 84.2451 486.504C83.5534 486.658 83.0087 486.725 82.6098 486.703C82.2105 486.683 81.729 486.609 81.1647 486.482C81.1215 486.713 81.1435 487.024 81.2307 487.414C81.3383 487.895 81.5485 488.448 81.8614 489.071C82.1739 489.695 82.5145 490.266 82.8832 490.783C83.722 491.573 84.2859 492.614 84.5747 493.906C84.7022 494.477 84.7813 495.185 84.8126 496.029C84.8016 497.672 84.3319 499.276 83.4038 500.839C82.4758 502.404 81.1399 503.766 79.397 504.929C77.6533 506.092 75.6399 506.928 73.3572 507.438C71.6143 507.828 69.9504 508.074 68.3644 508.176C68.0014 508.667 67.8832 509.198 68.0108 509.769C68.0979 510.16 68.3505 510.443 68.7681 510.617C69.1857 510.792 69.8148 510.785 70.6565 510.597L77.4162 509.086C79.7294 508.569 81.621 508.564 83.0909 509.071C84.5605 509.579 85.4604 510.569 85.7892 512.041C85.9102 512.582 85.9444 513.157 85.8919 513.769C85.7929 515.021 85.2176 516.293 84.1661 517.585C83.1134 518.876 81.5017 520.097 79.3298 521.245C77.1567 522.393 74.4185 523.336 71.114 524.075C68.1692 524.733 65.6185 525.035 63.4617 524.981C61.3048 524.926 59.6243 524.568 58.4192 523.908C57.2149 523.246 56.4917 522.375 56.2497 521.294C56.1959 521.053 56.176 520.678 56.1882 520.172C56.264 519.239 56.7129 518.39 57.5351 517.623C58.3572 516.856 59.8296 516.14 61.9526 515.476C61.0771 514.947 60.532 514.201 60.3169 513.239C60.2431 512.909 60.2109 512.553 60.2203 512.173C60.3515 510.504 61.5053 509.031 63.6808 507.756C61.1525 507.028 59.6227 505.477 59.0922 503.104C58.9443 502.443 58.8799 501.731 58.8991 500.97C58.9105 499.328 59.3888 497.73 60.3356 496.178C61.282 494.625 62.6326 493.259 64.3877 492.078C66.142 490.898 68.1615 490.051 70.445 489.541C74.02 488.742 76.933 488.58 79.1843 489.054C78.5793 488.464 78.0595 487.8 77.6268 487.06C77.1933 486.322 76.9028 485.621 76.7554 484.96C76.4999 483.819 76.649 482.76 77.2043 481.784C77.7588 480.809 78.7871 480.153 80.2896 479.817C81.2511 479.602 82.235 479.595 83.2425 479.796Z" stroke="#4969A2" stroke-miterlimit="10" stroke-linecap="round" stroke-linejoin="round"/>
<path d="M121.038 487.653C120.078 486.819 118.902 486.178 117.79 485.473C116.212 484.471 114.634 483.47 113.054 482.467C111.818 481.671 110.36 481.46 108.678 481.836C106.53 482.316 104.963 483.611 103.972 485.713L102.301 484.652C102.275 484.636 102.25 484.62 102.225 484.604C102.225 484.604 102.178 484.575 102.177 484.577C101.998 484.469 101.81 484.372 101.608 484.291C100.673 483.917 99.5896 483.867 98.358 484.143C96.4946 484.559 94.7663 485.222 93.1713 486.13C91.5763 487.039 90.766 487.859 90.7403 488.59C90.7171 488.911 90.7856 489.148 90.9461 489.301C91.1062 489.454 91.3641 489.618 91.7185 489.791C92.0787 489.994 92.3476 490.171 92.5227 490.321C92.6983 490.471 92.8234 490.711 92.8971 491.041C92.9574 491.312 92.9741 491.529 92.9477 491.692L91.8481 505.613C91.7988 506.381 91.6607 506.964 91.4345 507.361C91.2088 507.759 90.8964 508.128 90.4991 508.469C90.0494 508.854 89.8045 509.24 89.7646 509.627C89.7687 510.069 89.9724 510.378 90.3741 510.556C90.3851 510.561 90.3981 510.564 90.4091 510.568C90.4091 510.568 97.5326 515.089 97.5705 515.113C98.2427 515.54 98.8978 515.509 99.6731 515.336L111.21 512.757C112.111 512.555 112.729 512.322 113.065 512.058C113.4 511.794 113.554 511.46 113.527 511.056C113.503 510.809 113.414 510.624 113.261 510.5C113.107 510.377 112.823 510.236 112.409 510.076C111.964 509.923 111.601 509.744 111.318 509.539C111.037 509.334 110.852 509.036 110.764 508.645C110.697 508.345 110.676 508.113 110.703 507.949L111.655 495.907C111.701 495.266 111.81 494.801 111.981 494.509C112.153 494.219 112.388 494.04 112.689 493.972C112.96 493.912 113.226 493.979 113.491 494.172C113.754 494.366 114.064 494.691 114.419 495.147C115.071 495.948 115.75 496.553 116.457 496.963C117.164 497.373 118.088 497.45 119.23 497.195C120.401 496.933 121.333 496.378 122.027 495.529C122.72 494.68 123.08 493.606 123.105 492.306C123.117 491.8 123.06 491.26 122.933 490.689C122.638 489.372 121.932 488.429 121.038 487.653Z" fill="#A8BCC0"/>
<path d="M121.038 487.653C120.078 486.819 118.902 486.178 117.79 485.473C116.212 484.471 114.634 483.47 113.054 482.467C111.818 481.671 110.36 481.46 108.678 481.836C106.53 482.316 104.963 483.611 103.972 485.713L102.301 484.652C102.275 484.636 102.25 484.62 102.225 484.604C102.225 484.604 102.178 484.575 102.177 484.577C101.998 484.469 101.81 484.372 101.608 484.291C100.673 483.917 99.5896 483.867 98.358 484.143C96.4946 484.559 94.7663 485.222 93.1713 486.13C91.5763 487.039 90.766 487.859 90.7403 488.59C90.7171 488.911 90.7856 489.148 90.9461 489.301C91.1062 489.454 91.3641 489.618 91.7185 489.791C92.0787 489.994 92.3476 490.171 92.5227 490.321C92.6983 490.471 92.8234 490.711 92.8971 491.041C92.9574 491.312 92.9741 491.529 92.9477 491.692L91.8481 505.613C91.7988 506.381 91.6607 506.964 91.4345 507.361C91.2088 507.759 90.8964 508.128 90.4991 508.469C90.0494 508.854 89.8045 509.24 89.7646 509.627C89.7687 510.069 89.9724 510.378 90.3741 510.556C90.3851 510.561 90.3981 510.564 90.4091 510.568C90.4091 510.568 97.5326 515.089 97.5705 515.113C98.2427 515.54 98.8978 515.509 99.6731 515.336L111.21 512.757C112.111 512.555 112.729 512.322 113.065 512.058C113.4 511.794 113.554 511.46 113.527 511.056C113.503 510.809 113.414 510.624 113.261 510.5C113.107 510.377 112.823 510.236 112.409 510.076C111.964 509.923 111.601 509.744 111.318 509.539C111.037 509.334 110.852 509.036 110.764 508.645C110.697 508.345 110.676 508.113 110.703 507.949L111.655 495.907C111.701 495.266 111.81 494.801 111.981 494.509C112.153 494.219 112.388 494.04 112.689 493.972C112.96 493.912 113.226 493.979 113.491 494.172C113.754 494.366 114.064 494.691 114.419 495.147C115.071 495.948 115.75 496.553 116.457 496.963C117.164 497.373 118.088 497.45 119.23 497.195C120.401 496.933 121.333 496.378 122.027 495.529C122.72 494.68 123.08 493.606 123.105 492.306C123.117 491.8 123.06 491.26 122.933 490.689C122.638 489.372 121.932 488.429 121.038 487.653Z" stroke="#4969A2" stroke-miterlimit="10" stroke-linecap="round" stroke-linejoin="round"/>
<path d="M113.054 482.467C114.288 483.263 115.074 484.413 115.41 485.915C115.537 486.486 115.594 487.025 115.582 487.532C115.557 488.831 115.197 489.905 114.504 490.754C113.81 491.603 112.878 492.158 111.706 492.42C110.564 492.676 109.64 492.598 108.933 492.188C108.227 491.779 107.547 491.174 106.895 490.373C106.54 489.916 106.231 489.591 105.967 489.397C105.703 489.204 105.436 489.137 105.166 489.198C104.865 489.265 104.63 489.444 104.458 489.735C104.287 490.026 104.177 490.492 104.132 491.132L103.18 503.175C103.153 503.339 103.173 503.571 103.241 503.871C103.328 504.262 103.513 504.559 103.795 504.764C104.078 504.969 104.441 505.149 104.885 505.301C105.3 505.461 105.583 505.603 105.737 505.726C105.891 505.85 105.979 506.035 106.003 506.281C106.03 506.686 105.877 507.019 105.541 507.284C105.206 507.548 104.588 507.781 103.687 507.982L92.1499 510.561C91.3689 510.736 90.7773 510.734 90.3744 510.556C89.9723 510.378 89.7686 510.068 89.7645 509.627C89.8044 509.24 90.0493 508.854 90.4994 508.47C90.8967 508.129 91.2087 507.759 91.4349 507.362C91.6606 506.964 91.7991 506.381 91.848 505.613L92.948 491.692C92.974 491.529 92.9573 491.312 92.897 491.041C92.8233 490.711 92.6982 490.471 92.523 490.321C92.3474 490.171 92.0786 489.994 91.7184 489.791C91.364 489.618 91.1065 489.454 90.9464 489.301C90.7854 489.148 90.717 488.911 90.7402 488.59C90.7663 487.859 91.5762 487.039 93.1712 486.13C94.7662 485.222 96.4944 484.559 98.3579 484.143C99.5895 483.867 100.673 483.917 101.609 484.291C102.544 484.667 103.246 485.338 103.715 486.305C104.68 483.85 106.334 482.36 108.678 481.836C110.36 481.46 111.819 481.671 113.054 482.467Z" fill="#FAB690"/>
<path d="M113.054 482.467C114.288 483.263 115.074 484.413 115.41 485.915C115.537 486.486 115.594 487.025 115.582 487.532C115.557 488.831 115.197 489.905 114.504 490.754C113.81 491.603 112.878 492.158 111.706 492.42C110.564 492.676 109.64 492.598 108.933 492.188C108.227 491.779 107.547 491.174 106.895 490.373C106.54 489.916 106.231 489.591 105.967 489.397C105.703 489.204 105.436 489.137 105.166 489.198C104.865 489.265 104.63 489.444 104.458 489.735C104.287 490.026 104.177 490.492 104.132 491.132L103.18 503.175C103.153 503.339 103.173 503.571 103.241 503.871C103.328 504.262 103.513 504.559 103.795 504.764C104.078 504.969 104.441 505.149 104.885 505.301C105.3 505.461 105.583 505.603 105.737 505.726C105.891 505.85 105.979 506.035 106.003 506.281C106.03 506.686 105.877 507.019 105.541 507.284C105.206 507.548 104.588 507.781 103.687 507.982L92.1499 510.561C91.3689 510.736 90.7773 510.734 90.3744 510.556C89.9723 510.378 89.7686 510.068 89.7645 509.627C89.8044 509.24 90.0493 508.854 90.4994 508.47C90.8967 508.129 91.2087 507.759 91.4349 507.362C91.6606 506.964 91.7991 506.381 91.848 505.613L92.948 491.692C92.974 491.529 92.9573 491.312 92.897 491.041C92.8233 490.711 92.6982 490.471 92.523 490.321C92.3474 490.171 92.0786 489.994 91.7184 489.791C91.364 489.618 91.1065 489.454 90.9464 489.301C90.7854 489.148 90.717 488.911 90.7402 488.59C90.7663 487.859 91.5762 487.039 93.1712 486.13C94.7662 485.222 96.4944 484.559 98.3579 484.143C99.5895 483.867 100.673 483.917 101.609 484.291C102.544 484.667 103.246 485.338 103.715 486.305C104.68 483.85 106.334 482.36 108.678 481.836C110.36 481.46 111.819 481.671 113.054 482.467Z" stroke="#4969A2" stroke-miterlimit="10" stroke-linecap="round" stroke-linejoin="round"/>
<path d="M150.709 497.83C150.557 497.644 150.405 497.567 150.255 497.601C150.165 497.62 150.027 497.817 149.843 498.19C149.658 498.562 149.385 498.789 149.025 498.869C148.634 498.957 148.385 498.76 148.278 498.279C148.238 498.099 148.219 497.946 148.222 497.818L148.68 491.186C148.758 489.844 148.687 488.677 148.465 487.685C148.061 485.877 147.231 484.5 145.976 483.553L145.973 483.55C145.719 483.359 145.447 483.187 145.158 483.031L138.028 478.486C138.007 478.472 137.984 478.458 137.962 478.444L137.933 478.425L137.932 478.425C137.473 478.132 136.967 477.888 136.409 477.695C134.051 476.882 131.144 476.861 127.689 477.633C124.234 478.406 121.776 479.475 120.315 480.843C118.854 482.211 118.292 483.646 118.628 485.148C118.794 485.89 119.187 486.482 119.804 486.926L119.803 486.927L119.863 486.966C119.948 487.023 120.034 487.08 120.126 487.133L123.169 489.063C123.011 489.095 122.852 489.124 122.695 489.159C120.471 489.656 118.674 490.611 117.301 492.021C115.929 493.432 115.234 495.228 115.217 497.408C115.228 497.879 115.287 498.355 115.394 498.835C115.636 499.917 116.129 500.887 116.873 501.746C117.211 502.136 117.601 502.474 118.037 502.764L118.035 502.767L118.112 502.815C118.145 502.837 118.178 502.858 118.212 502.878L125.754 507.665C125.787 507.686 125.82 507.707 125.853 507.728L126.06 507.859L126.071 507.854C126.494 508.092 126.955 508.29 127.459 508.445C128.679 508.819 130.084 508.828 131.677 508.472C133.089 508.157 134.345 507.569 135.446 506.707C136.547 505.846 137.427 504.774 138.087 503.491C138.756 504.509 139.71 505.179 140.949 505.501C142.188 505.823 143.589 505.81 145.151 505.46C146.443 505.172 147.569 504.636 148.53 503.853C149.491 503.071 150.2 502.187 150.658 501.201C151.116 500.216 151.239 499.321 151.028 498.516C150.967 498.246 150.861 498.017 150.709 497.83Z" fill="#A8BCC0"/>
<path d="M150.709 497.83C150.557 497.644 150.405 497.567 150.255 497.601C150.165 497.62 150.027 497.817 149.843 498.19C149.658 498.562 149.385 498.789 149.025 498.869C148.634 498.957 148.385 498.76 148.278 498.279C148.238 498.099 148.219 497.946 148.222 497.818L148.68 491.186C148.758 489.844 148.687 488.677 148.465 487.685C148.061 485.877 147.231 484.5 145.976 483.553L145.973 483.55C145.719 483.359 145.447 483.187 145.158 483.031L138.028 478.486C138.007 478.472 137.984 478.458 137.962 478.444L137.933 478.425L137.932 478.425C137.473 478.132 136.967 477.888 136.409 477.695C134.051 476.882 131.144 476.861 127.689 477.633C124.234 478.406 121.776 479.475 120.315 480.843C118.854 482.211 118.292 483.646 118.628 485.148C118.794 485.89 119.187 486.482 119.804 486.926L119.803 486.927L119.863 486.966C119.948 487.023 120.034 487.08 120.126 487.133L123.169 489.063C123.011 489.095 122.852 489.124 122.695 489.159C120.471 489.656 118.674 490.611 117.301 492.021C115.929 493.432 115.234 495.228 115.217 497.408C115.228 497.879 115.287 498.355 115.394 498.835C115.636 499.917 116.129 500.887 116.873 501.746C117.211 502.136 117.601 502.474 118.037 502.764L118.035 502.767L118.112 502.815C118.145 502.837 118.178 502.858 118.212 502.878L125.754 507.665C125.787 507.686 125.82 507.707 125.853 507.728L126.06 507.859L126.071 507.854C126.494 508.092 126.955 508.29 127.459 508.445C128.679 508.819 130.084 508.828 131.677 508.472C133.089 508.157 134.345 507.569 135.446 506.707C136.547 505.846 137.427 504.774 138.087 503.491C138.756 504.509 139.71 505.179 140.949 505.501C142.188 505.823 143.589 505.81 145.151 505.46C146.443 505.172 147.569 504.636 148.53 503.853C149.491 503.071 150.2 502.187 150.658 501.201C151.116 500.216 151.239 499.321 151.028 498.516C150.967 498.246 150.861 498.017 150.709 497.83Z" stroke="#4969A2" stroke-miterlimit="10" stroke-linecap="round" stroke-linejoin="round"/>
<path d="M136.409 477.695C138.768 478.509 140.239 480.222 140.823 482.836C141.045 483.827 141.116 484.994 141.038 486.337L140.581 492.969C140.577 493.096 140.596 493.249 140.636 493.43C140.744 493.91 140.992 494.107 141.383 494.019C141.744 493.939 142.016 493.713 142.201 493.34C142.385 492.968 142.524 492.771 142.614 492.751C142.763 492.717 142.915 492.794 143.067 492.981C143.219 493.168 143.326 493.396 143.386 493.667C143.597 494.471 143.474 495.366 143.016 496.351C142.558 497.337 141.849 498.221 140.888 499.004C139.928 499.786 138.801 500.322 137.51 500.611C135.947 500.96 134.546 500.974 133.307 500.651C132.068 500.329 131.114 499.659 130.445 498.641C129.785 499.924 128.905 500.996 127.804 501.858C126.703 502.719 125.447 503.307 124.035 503.623C122.442 503.979 121.037 503.97 119.817 503.595C118.599 503.222 117.616 502.605 116.873 501.746C116.129 500.888 115.636 499.917 115.394 498.835C115.287 498.355 115.228 497.879 115.217 497.408C115.234 495.227 115.929 493.432 117.302 492.021C118.673 490.611 120.471 489.657 122.695 489.16C125.188 488.602 127.724 488.446 130.303 488.689L130.764 485.463C130.872 484.114 130.85 483.094 130.695 482.403C130.504 481.688 130.143 481.201 129.612 480.942C129.08 480.682 128.349 480.656 127.418 480.864C127.705 481.305 127.907 481.781 128.021 482.291C128.269 483.403 128.063 484.458 127.403 485.457C126.743 486.456 125.632 487.131 124.07 487.48C122.598 487.809 121.377 487.743 120.406 487.281C119.435 486.821 118.843 486.109 118.628 485.147C118.292 483.646 118.854 482.211 120.315 480.843C121.776 479.475 124.234 478.406 127.689 477.633C131.143 476.861 134.051 476.882 136.409 477.695ZM126.384 493.28C126.002 494.044 125.896 494.8 126.063 495.551C126.171 496.032 126.371 496.398 126.664 496.647C126.956 496.898 127.312 496.976 127.733 496.882C128.123 496.794 128.516 496.541 128.912 496.121C129.306 495.702 129.539 495.153 129.608 494.475L129.96 491.605C129.429 491.629 128.848 491.711 128.218 491.852C127.376 492.04 126.765 492.516 126.384 493.28Z" fill="#FAB690"/>
<path d="M136.409 477.695C138.768 478.509 140.239 480.222 140.823 482.836C141.045 483.827 141.116 484.994 141.038 486.337L140.581 492.969C140.577 493.096 140.596 493.249 140.636 493.43C140.744 493.91 140.992 494.107 141.383 494.019C141.744 493.939 142.016 493.713 142.201 493.34C142.385 492.968 142.524 492.771 142.614 492.751C142.763 492.717 142.915 492.794 143.067 492.981C143.219 493.168 143.326 493.396 143.386 493.667C143.597 494.471 143.474 495.366 143.016 496.351C142.558 497.337 141.849 498.221 140.888 499.004C139.928 499.786 138.801 500.322 137.51 500.611C135.947 500.96 134.546 500.974 133.307 500.651C132.068 500.329 131.114 499.659 130.445 498.641C129.785 499.924 128.905 500.996 127.804 501.858C126.703 502.719 125.447 503.307 124.035 503.623C122.442 503.979 121.037 503.97 119.817 503.595C118.599 503.222 117.616 502.605 116.873 501.746C116.129 500.888 115.636 499.917 115.394 498.835C115.287 498.355 115.228 497.879 115.217 497.408C115.234 495.227 115.929 493.432 117.302 492.021C118.673 490.611 120.471 489.657 122.695 489.16C125.188 488.602 127.724 488.446 130.303 488.689L130.764 485.463C130.872 484.114 130.85 483.094 130.695 482.403C130.504 481.688 130.143 481.201 129.612 480.942C129.08 480.682 128.349 480.656 127.418 480.864C127.705 481.305 127.907 481.781 128.021 482.291C128.269 483.403 128.063 484.458 127.403 485.457C126.743 486.456 125.632 487.131 124.07 487.48C122.598 487.809 121.377 487.743 120.406 487.281C119.435 486.821 118.843 486.109 118.628 485.147C118.292 483.646 118.854 482.211 120.315 480.843C121.776 479.475 124.234 478.406 127.689 477.633C131.143 476.861 134.051 476.882 136.409 477.695ZM126.384 493.28C126.002 494.044 125.896 494.8 126.063 495.551C126.171 496.032 126.371 496.398 126.664 496.647C126.956 496.898 127.312 496.976 127.733 496.882C128.123 496.794 128.516 496.541 128.912 496.121C129.306 495.702 129.539 495.153 129.608 494.475L129.96 491.605C129.429 491.629 128.848 491.711 128.218 491.852C127.376 492.04 126.765 492.516 126.384 493.28Z" stroke="#4969A2" stroke-miterlimit="10" stroke-linecap="round" stroke-linejoin="round"/>
<path d="M181.817 481.026C181.915 480.058 181.861 479.108 181.653 478.176C181.257 476.404 180.371 475.088 178.996 474.228C178.862 474.144 178.725 474.072 178.59 473.998L171.915 469.762C171.773 469.654 171.627 469.55 171.473 469.453C171.357 469.381 171.237 469.32 171.118 469.256C171.118 469.256 171.038 469.206 171.035 469.21C169.76 468.558 168.303 468.411 166.661 468.778C165.039 469.141 163.612 469.815 162.381 470.799C161.475 471.525 160.676 472.541 159.985 473.842L157.339 472.163C156.283 471.532 155.004 471.384 153.502 471.72C151.639 472.136 149.911 472.799 148.315 473.707C146.721 474.616 145.91 475.436 145.884 476.167C145.861 476.488 145.93 476.725 146.09 476.877C146.251 477.031 146.508 477.195 146.862 477.368C147.223 477.571 147.492 477.748 147.667 477.898C147.843 478.047 147.967 478.288 148.041 478.618C148.101 478.888 148.118 479.106 148.092 479.269L146.992 493.19C146.943 493.958 146.805 494.541 146.579 494.938C146.353 495.336 146.041 495.705 145.643 496.046C145.194 496.431 144.949 496.816 144.909 497.203C144.822 498.05 146.192 498.519 146.798 498.903C147.588 499.405 148.377 499.905 149.167 500.406C149.885 500.862 150.603 501.318 151.321 501.774C152.55 502.553 153.294 503.253 154.817 502.912L165.092 500.616C166.053 500.401 166.739 500.153 167.15 499.872C167.56 499.591 167.782 499.242 167.815 498.824C167.828 498.601 167.773 498.424 167.649 498.294C167.525 498.164 167.338 498.032 167.087 497.898C166.763 497.719 166.501 497.533 166.3 497.341C166.099 497.15 165.959 496.873 165.879 496.512C165.811 496.213 165.801 495.884 165.847 495.526L165.963 493.994L171.231 497.337C171.538 497.59 171.88 497.811 172.266 497.995C173.643 498.65 175.323 498.755 177.306 498.312C178.928 497.949 180.258 497.375 181.298 496.591C182.337 495.807 183.064 494.935 183.481 493.974C183.897 493.014 183.992 492.101 183.768 491.236C183.708 490.966 183.611 490.744 183.477 490.568C183.343 490.393 183.201 490.322 183.05 490.356C182.96 490.376 182.823 490.572 182.638 490.945C182.453 491.317 182.181 491.544 181.82 491.624C181.64 491.665 181.484 491.637 181.352 491.54C181.219 491.444 181.13 491.29 181.083 491.079C181.029 490.839 181.019 490.652 181.052 490.518L181.817 481.026Z" fill="#A8BCC0"/>
<path d="M181.817 481.026C181.915 480.058 181.861 479.108 181.653 478.176C181.257 476.404 180.371 475.088 178.996 474.228C178.862 474.144 178.725 474.072 178.59 473.998L171.915 469.762C171.773 469.654 171.627 469.55 171.473 469.453C171.357 469.381 171.237 469.32 171.118 469.256C171.118 469.256 171.038 469.206 171.035 469.21C169.76 468.558 168.303 468.411 166.661 468.778C165.039 469.141 163.612 469.815 162.381 470.799C161.475 471.525 160.676 472.541 159.985 473.842L157.339 472.163C156.283 471.532 155.004 471.384 153.502 471.72C151.639 472.136 149.911 472.799 148.315 473.707C146.721 474.616 145.91 475.436 145.884 476.167C145.861 476.488 145.93 476.725 146.09 476.877C146.251 477.031 146.508 477.195 146.862 477.368C147.223 477.571 147.492 477.748 147.667 477.898C147.843 478.047 147.967 478.288 148.041 478.618C148.101 478.888 148.118 479.106 148.092 479.269L146.992 493.19C146.943 493.958 146.805 494.541 146.579 494.938C146.353 495.336 146.041 495.705 145.643 496.046C145.194 496.431 144.949 496.816 144.909 497.203C144.822 498.05 146.192 498.519 146.798 498.903C147.588 499.405 148.377 499.905 149.167 500.406C149.885 500.862 150.603 501.318 151.321 501.774C152.55 502.553 153.294 503.253 154.817 502.912L165.092 500.616C166.053 500.401 166.739 500.153 167.15 499.872C167.56 499.591 167.782 499.242 167.815 498.824C167.828 498.601 167.773 498.424 167.649 498.294C167.525 498.164 167.338 498.032 167.087 497.898C166.763 497.719 166.501 497.533 166.3 497.341C166.099 497.15 165.959 496.873 165.879 496.512C165.811 496.213 165.801 495.884 165.847 495.526L165.963 493.994L171.231 497.337C171.538 497.59 171.88 497.811 172.266 497.995C173.643 498.65 175.323 498.755 177.306 498.312C178.928 497.949 180.258 497.375 181.298 496.591C182.337 495.807 183.064 494.935 183.481 493.974C183.897 493.014 183.992 492.101 183.768 491.236C183.708 490.966 183.611 490.744 183.477 490.568C183.343 490.393 183.201 490.322 183.05 490.356C182.96 490.376 182.823 490.572 182.638 490.945C182.453 491.317 182.181 491.544 181.82 491.624C181.64 491.665 181.484 491.637 181.352 491.54C181.219 491.444 181.13 491.29 181.083 491.079C181.029 490.839 181.019 490.652 181.052 490.518L181.817 481.026Z" stroke="#4969A2" stroke-miterlimit="10" stroke-linecap="round" stroke-linejoin="round"/>
<path d="M173.529 485.744C173.496 485.878 173.506 486.065 173.56 486.305C173.607 486.516 173.696 486.669 173.828 486.765C173.96 486.862 174.116 486.89 174.297 486.85C174.657 486.769 174.93 486.543 175.115 486.17C175.299 485.798 175.437 485.601 175.527 485.581C175.677 485.548 175.819 485.618 175.953 485.794C176.087 485.969 176.184 486.191 176.244 486.462C176.469 487.327 176.374 488.239 175.958 489.2C175.541 490.161 174.813 491.033 173.775 491.817C172.735 492.601 171.404 493.174 169.782 493.537C167.799 493.98 166.119 493.875 164.743 493.22C163.367 492.566 162.492 491.476 162.12 489.95C161.871 488.839 161.863 487.532 162.095 486.029L163.123 478.985C163.185 478.561 163.19 478.229 163.136 477.989C163.049 477.598 162.852 477.319 162.547 477.15C162.241 476.982 161.908 476.938 161.548 477.019C160.886 477.166 160.324 477.616 159.861 478.366C159.398 479.116 159.132 479.972 159.063 480.934L158.324 490.751C158.278 491.109 158.288 491.438 158.355 491.738C158.436 492.099 158.576 492.375 158.777 492.566C158.977 492.758 159.24 492.944 159.564 493.124C159.814 493.257 160.002 493.389 160.125 493.519C160.25 493.65 160.305 493.827 160.292 494.05C160.259 494.467 160.037 494.816 159.627 495.097C159.216 495.378 158.53 495.626 157.569 495.841L147.294 498.138C146.513 498.312 145.921 498.311 145.519 498.133C145.116 497.955 144.913 497.646 144.909 497.204C144.949 496.817 145.194 496.431 145.644 496.046C146.04 495.705 146.353 495.336 146.579 494.938C146.805 494.541 146.943 493.958 146.993 493.19L148.092 479.269C148.119 479.106 148.101 478.889 148.041 478.618C147.967 478.288 147.843 478.048 147.667 477.898C147.492 477.747 147.223 477.571 146.863 477.368C146.508 477.195 146.251 477.031 146.091 476.878C145.93 476.724 145.862 476.488 145.884 476.167C145.91 475.436 146.72 474.616 148.315 473.707C149.911 472.799 151.639 472.136 153.502 471.719C155.004 471.384 156.283 471.532 157.339 472.163C158.395 472.795 159.043 473.857 159.282 475.349C160.117 473.301 161.15 471.785 162.381 470.799C163.612 469.815 165.039 469.141 166.661 468.778C168.493 468.368 170.098 468.594 171.473 469.453C172.848 470.313 173.734 471.63 174.13 473.402C174.338 474.334 174.392 475.283 174.293 476.252L173.529 485.744Z" fill="#FAB690"/>
<path d="M173.529 485.744C173.496 485.878 173.506 486.065 173.56 486.305C173.607 486.516 173.696 486.669 173.828 486.765C173.96 486.862 174.116 486.89 174.297 486.85C174.657 486.769 174.93 486.543 175.115 486.17C175.299 485.798 175.437 485.601 175.527 485.581C175.677 485.548 175.819 485.618 175.953 485.794C176.087 485.969 176.184 486.191 176.244 486.462C176.469 487.327 176.374 488.239 175.958 489.2C175.541 490.161 174.813 491.033 173.775 491.817C172.735 492.601 171.404 493.174 169.782 493.537C167.799 493.98 166.119 493.875 164.743 493.22C163.367 492.566 162.492 491.476 162.12 489.95C161.871 488.839 161.863 487.532 162.095 486.029L163.123 478.985C163.185 478.561 163.19 478.229 163.136 477.989C163.049 477.598 162.852 477.319 162.547 477.15C162.241 476.982 161.908 476.938 161.548 477.019C160.886 477.166 160.324 477.616 159.861 478.366C159.398 479.116 159.132 479.972 159.063 480.934L158.324 490.751C158.278 491.109 158.288 491.438 158.355 491.738C158.436 492.099 158.576 492.375 158.777 492.566C158.977 492.758 159.24 492.944 159.564 493.124C159.814 493.257 160.002 493.389 160.125 493.519C160.25 493.65 160.305 493.827 160.292 494.05C160.259 494.467 160.037 494.816 159.627 495.097C159.216 495.378 158.53 495.626 157.569 495.841L147.294 498.138C146.513 498.312 145.921 498.311 145.519 498.133C145.116 497.955 144.913 497.646 144.909 497.204C144.949 496.817 145.194 496.431 145.644 496.046C146.04 495.705 146.353 495.336 146.579 494.938C146.805 494.541 146.943 493.958 146.993 493.19L148.092 479.269C148.119 479.106 148.101 478.889 148.041 478.618C147.967 478.288 147.843 478.048 147.667 477.898C147.492 477.747 147.223 477.571 146.863 477.368C146.508 477.195 146.251 477.031 146.091 476.878C145.93 476.724 145.862 476.488 145.884 476.167C145.91 475.436 146.72 474.616 148.315 473.707C149.911 472.799 151.639 472.136 153.502 471.719C155.004 471.384 156.283 471.532 157.339 472.163C158.395 472.795 159.043 473.857 159.282 475.349C160.117 473.301 161.15 471.785 162.381 470.799C163.612 469.815 165.039 469.141 166.661 468.778C168.493 468.368 170.098 468.594 171.473 469.453C172.848 470.313 173.734 471.63 174.13 473.402C174.338 474.334 174.392 475.283 174.293 476.252L173.529 485.744Z" stroke="#4969A2" stroke-miterlimit="10" stroke-linecap="round" stroke-linejoin="round"/>
<path d="M216.017 473.381C216.116 472.413 216.061 471.463 215.853 470.532C215.457 468.759 214.571 467.443 213.196 466.583C213.062 466.499 212.925 466.427 212.79 466.354L206.115 462.117C205.973 462.009 205.827 461.905 205.673 461.809C205.557 461.736 205.437 461.675 205.318 461.611C205.318 461.611 205.239 461.561 205.235 461.565C203.961 460.913 202.503 460.766 200.861 461.133C199.239 461.496 197.812 462.17 196.581 463.155C195.675 463.88 194.877 464.896 194.185 466.197L191.539 464.519C190.483 463.887 189.204 463.739 187.702 464.075C185.839 464.491 184.111 465.154 182.515 466.062C180.921 466.971 180.11 467.791 180.084 468.522C180.062 468.843 180.13 469.08 180.291 469.233C180.451 469.386 180.708 469.55 181.063 469.723C181.423 469.926 181.692 470.103 181.867 470.253C182.043 470.403 182.167 470.644 182.241 470.974C182.302 471.244 182.319 471.461 182.292 471.625L181.193 485.545C181.143 486.313 181.005 486.896 180.779 487.293C180.553 487.692 180.241 488.061 179.844 488.402C179.394 488.786 179.149 489.172 179.109 489.559C179.022 490.405 180.392 490.874 180.998 491.259C181.788 491.76 182.577 492.261 183.367 492.762C184.085 493.218 184.803 493.673 185.521 494.129C186.75 494.909 187.494 495.608 189.018 495.268L199.292 492.971C200.254 492.756 200.94 492.508 201.35 492.227C201.761 491.946 201.982 491.597 202.015 491.179C202.028 490.956 201.973 490.779 201.849 490.649C201.725 490.519 201.538 490.387 201.288 490.254C200.963 490.074 200.701 489.888 200.5 489.696C200.3 489.505 200.159 489.228 200.079 488.868C200.012 488.568 200.001 488.239 200.047 487.881L200.163 486.35L205.431 489.693C205.738 489.945 206.08 490.167 206.466 490.35C207.843 491.005 209.523 491.11 211.506 490.667C213.128 490.304 214.459 489.73 215.498 488.946C216.537 488.162 217.264 487.29 217.681 486.329C218.097 485.369 218.192 484.457 217.968 483.591C217.908 483.321 217.811 483.099 217.677 482.923C217.543 482.748 217.401 482.677 217.251 482.711C217.161 482.731 217.023 482.928 216.838 483.3C216.653 483.672 216.381 483.899 216.02 483.98C215.84 484.02 215.684 483.992 215.552 483.895C215.419 483.799 215.33 483.645 215.283 483.435C215.229 483.195 215.219 483.008 215.253 482.874L216.017 473.381Z" fill="#A8BCC0"/>
<path d="M216.017 473.381C216.116 472.413 216.061 471.463 215.853 470.532C215.457 468.759 214.571 467.443 213.196 466.583C213.062 466.499 212.925 466.427 212.79 466.354L206.115 462.117C205.973 462.009 205.827 461.905 205.673 461.809C205.557 461.736 205.437 461.675 205.318 461.611C205.318 461.611 205.239 461.561 205.235 461.565C203.961 460.913 202.503 460.766 200.861 461.133C199.239 461.496 197.812 462.17 196.581 463.155C195.675 463.88 194.877 464.896 194.185 466.197L191.539 464.519C190.483 463.887 189.204 463.739 187.702 464.075C185.839 464.491 184.111 465.154 182.515 466.062C180.921 466.971 180.11 467.791 180.084 468.522C180.062 468.843 180.13 469.08 180.291 469.233C180.451 469.386 180.708 469.55 181.063 469.723C181.423 469.926 181.692 470.103 181.867 470.253C182.043 470.403 182.167 470.644 182.241 470.974C182.302 471.244 182.319 471.461 182.292 471.625L181.193 485.545C181.143 486.313 181.005 486.896 180.779 487.293C180.553 487.692 180.241 488.061 179.844 488.402C179.394 488.786 179.149 489.172 179.109 489.559C179.022 490.405 180.392 490.874 180.998 491.259C181.788 491.76 182.577 492.261 183.367 492.762C184.085 493.218 184.803 493.673 185.521 494.129C186.75 494.909 187.494 495.608 189.018 495.268L199.292 492.971C200.254 492.756 200.94 492.508 201.35 492.227C201.761 491.946 201.982 491.597 202.015 491.179C202.028 490.956 201.973 490.779 201.849 490.649C201.725 490.519 201.538 490.387 201.288 490.254C200.963 490.074 200.701 489.888 200.5 489.696C200.3 489.505 200.159 489.228 200.079 488.868C200.012 488.568 200.001 488.239 200.047 487.881L200.163 486.35L205.431 489.693C205.738 489.945 206.08 490.167 206.466 490.35C207.843 491.005 209.523 491.11 211.506 490.667C213.128 490.304 214.459 489.73 215.498 488.946C216.537 488.162 217.264 487.29 217.681 486.329C218.097 485.369 218.192 484.457 217.968 483.591C217.908 483.321 217.811 483.099 217.677 482.923C217.543 482.748 217.401 482.677 217.251 482.711C217.161 482.731 217.023 482.928 216.838 483.3C216.653 483.672 216.381 483.899 216.02 483.98C215.84 484.02 215.684 483.992 215.552 483.895C215.419 483.799 215.33 483.645 215.283 483.435C215.229 483.195 215.219 483.008 215.253 482.874L216.017 473.381Z" stroke="#4969A2" stroke-miterlimit="10" stroke-linecap="round" stroke-linejoin="round"/>
<path d="M207.729 478.099C207.695 478.233 207.706 478.42 207.76 478.66C207.807 478.871 207.896 479.024 208.029 479.121C208.16 479.218 208.317 479.246 208.497 479.205C208.857 479.125 209.13 478.898 209.315 478.525C209.499 478.153 209.637 477.957 209.727 477.936C209.877 477.903 210.02 477.974 210.153 478.149C210.287 478.324 210.384 478.547 210.445 478.817C210.669 479.682 210.574 480.594 210.158 481.555C209.741 482.516 209.013 483.388 207.975 484.172C206.935 484.956 205.605 485.53 203.982 485.892C201.999 486.335 200.32 486.23 198.943 485.576C197.567 484.921 196.692 483.831 196.32 482.306C196.071 481.195 196.063 479.887 196.295 478.384L197.323 471.34C197.386 470.917 197.39 470.585 197.337 470.344C197.249 469.954 197.052 469.674 196.747 469.505C196.441 469.338 196.108 469.294 195.748 469.374C195.087 469.522 194.524 469.971 194.061 470.721C193.598 471.472 193.332 472.327 193.263 473.289L192.524 483.107C192.478 483.464 192.488 483.794 192.555 484.093C192.636 484.454 192.776 484.73 192.977 484.922C193.177 485.114 193.44 485.3 193.764 485.479C194.014 485.613 194.202 485.744 194.325 485.874C194.45 486.005 194.505 486.182 194.492 486.405C194.459 486.823 194.237 487.171 193.827 487.452C193.417 487.734 192.73 487.982 191.769 488.196L181.494 490.493C180.713 490.668 180.122 490.666 179.719 490.488C179.317 490.31 179.113 490.001 179.109 489.56C179.149 489.172 179.394 488.786 179.844 488.402C180.241 488.061 180.553 487.692 180.779 487.294C181.005 486.896 181.143 486.313 181.193 485.545L182.292 471.625C182.319 471.461 182.302 471.244 182.241 470.974C182.168 470.643 182.043 470.403 181.867 470.253C181.692 470.103 181.423 469.926 181.063 469.723C180.708 469.55 180.451 469.386 180.291 469.233C180.13 469.08 180.062 468.843 180.085 468.522C180.11 467.791 180.921 466.971 182.516 466.062C184.111 465.154 185.839 464.491 187.702 464.075C189.204 463.739 190.483 463.887 191.54 464.518C192.595 465.15 193.243 466.212 193.482 467.704C194.317 465.657 195.35 464.14 196.581 463.155C197.812 462.17 199.239 461.496 200.861 461.134C202.693 460.724 204.298 460.949 205.673 461.809C207.048 462.669 207.934 463.985 208.33 465.757C208.538 466.689 208.592 467.638 208.493 468.607L207.729 478.099Z" fill="#FAB690"/>
<path d="M207.729 478.099C207.695 478.233 207.706 478.42 207.76 478.66C207.807 478.871 207.896 479.024 208.029 479.121C208.16 479.218 208.317 479.246 208.497 479.205C208.857 479.125 209.13 478.898 209.315 478.525C209.499 478.153 209.637 477.957 209.727 477.936C209.877 477.903 210.02 477.974 210.153 478.149C210.287 478.324 210.384 478.547 210.445 478.817C210.669 479.682 210.574 480.594 210.158 481.555C209.741 482.516 209.013 483.388 207.975 484.172C206.935 484.956 205.605 485.53 203.982 485.892C201.999 486.335 200.32 486.23 198.943 485.576C197.567 484.921 196.692 483.831 196.32 482.306C196.071 481.195 196.063 479.887 196.295 478.384L197.323 471.34C197.386 470.917 197.39 470.585 197.337 470.344C197.249 469.954 197.052 469.674 196.747 469.505C196.441 469.338 196.108 469.294 195.748 469.374C195.087 469.522 194.524 469.971 194.061 470.721C193.598 471.472 193.332 472.327 193.263 473.289L192.524 483.107C192.478 483.464 192.488 483.794 192.555 484.093C192.636 484.454 192.776 484.73 192.977 484.922C193.177 485.114 193.44 485.3 193.764 485.479C194.014 485.613 194.202 485.744 194.325 485.874C194.45 486.005 194.505 486.182 194.492 486.405C194.459 486.823 194.237 487.171 193.827 487.452C193.417 487.734 192.73 487.982 191.769 488.196L181.494 490.493C180.713 490.668 180.122 490.666 179.719 490.488C179.317 490.31 179.113 490.001 179.109 489.56C179.149 489.172 179.394 488.786 179.844 488.402C180.241 488.061 180.553 487.692 180.779 487.294C181.005 486.896 181.143 486.313 181.193 485.545L182.292 471.625C182.319 471.461 182.302 471.244 182.241 470.974C182.168 470.643 182.043 470.403 181.867 470.253C181.692 470.103 181.423 469.926 181.063 469.723C180.708 469.55 180.451 469.386 180.291 469.233C180.13 469.08 180.062 468.843 180.085 468.522C180.11 467.791 180.921 466.971 182.516 466.062C184.111 465.154 185.839 464.491 187.702 464.075C189.204 463.739 190.483 463.887 191.54 464.518C192.595 465.15 193.243 466.212 193.482 467.704C194.317 465.657 195.35 464.14 196.581 463.155C197.812 462.17 199.239 461.496 200.861 461.134C202.693 460.724 204.298 460.949 205.673 461.809C207.048 462.669 207.934 463.985 208.33 465.757C208.538 466.689 208.592 467.638 208.493 468.607L207.729 478.099Z" stroke="#4969A2" stroke-miterlimit="10" stroke-linecap="round" stroke-linejoin="round"/>
<path d="M245.243 455.288C244.987 455.067 244.721 454.884 244.446 454.736L237.388 450.257C236.436 449.573 235.368 449.359 234.185 449.624C233.224 449.839 232.429 450.34 231.8 451.127C231.172 451.914 230.812 452.949 230.72 454.231C230.647 455.036 230.716 455.904 230.924 456.835C230.975 457.065 231.037 457.288 231.105 457.508L224.711 453.45C223.544 452.542 222.013 452.297 220.115 452.722C218.161 453.158 216.582 454.134 215.375 455.65C214.168 457.166 213.486 458.84 213.328 460.674C213.285 461.188 213.311 461.656 213.405 462.076C213.519 462.587 213.696 462.815 213.936 462.762C214.056 462.735 214.236 462.584 214.474 462.31C214.713 462.037 214.937 461.876 215.148 461.828C215.418 461.768 215.661 461.832 215.877 462.02C216.092 462.209 216.309 462.579 216.526 463.129L220.797 473.767C221.43 475.329 222.2 476.411 223.108 477.012C224.015 477.614 225.265 477.879 226.857 477.806C226.008 479.09 225.018 480.059 223.889 480.718L219.533 477.953C218.435 477.205 217.195 476.986 215.813 477.294C214.942 477.489 214.241 477.882 213.711 478.474C213.181 479.066 212.874 479.812 212.792 480.714C212.763 481.288 212.798 481.801 212.899 482.251C213.127 483.273 213.635 484.169 214.423 484.939C214.767 485.276 215.157 485.564 215.585 485.81C216.741 486.544 217.898 487.278 219.054 488.012C220.692 489.051 222.241 490.12 224.025 490.901C225.693 491.632 227.436 491.609 229.213 491.212C232.367 490.507 235.307 488.809 238.034 486.118C240.76 483.426 242.981 480.169 244.699 476.347C246.415 472.526 247.416 468.642 247.702 464.699C247.863 462.739 247.766 460.962 247.409 459.37C247 457.538 246.277 456.177 245.243 455.288Z" fill="#A8BCC0"/>
<path d="M245.243 455.288C244.987 455.067 244.721 454.884 244.446 454.736L237.388 450.257C236.436 449.573 235.368 449.359 234.185 449.624C233.224 449.839 232.429 450.34 231.8 451.127C231.172 451.914 230.812 452.949 230.72 454.231C230.647 455.036 230.716 455.904 230.924 456.835C230.975 457.065 231.037 457.288 231.105 457.508L224.711 453.45C223.544 452.542 222.013 452.297 220.115 452.722C218.161 453.158 216.582 454.134 215.375 455.65C214.168 457.166 213.486 458.84 213.328 460.674C213.285 461.188 213.311 461.656 213.405 462.076C213.519 462.587 213.696 462.815 213.936 462.762C214.056 462.735 214.236 462.584 214.474 462.31C214.713 462.037 214.937 461.876 215.148 461.828C215.418 461.768 215.661 461.832 215.877 462.02C216.092 462.209 216.309 462.579 216.526 463.129L220.797 473.767C221.43 475.329 222.2 476.411 223.108 477.012C224.015 477.614 225.265 477.879 226.857 477.806C226.008 479.09 225.018 480.059 223.889 480.718L219.533 477.953C218.435 477.205 217.195 476.985 215.813 477.294C214.942 477.489 214.241 477.882 213.711 478.474C213.181 479.066 212.874 479.812 212.792 480.714C212.763 481.288 212.798 481.801 212.899 482.251C213.127 483.273 213.635 484.169 214.423 484.939C214.767 485.276 215.157 485.564 215.585 485.81C216.741 486.544 217.898 487.278 219.054 488.012C220.692 489.051 222.241 490.12 224.025 490.901C225.693 491.632 227.436 491.609 229.213 491.212C232.367 490.507 235.307 488.809 238.034 486.118C240.76 483.426 242.981 480.169 244.699 476.347C246.415 472.526 247.416 468.642 247.702 464.699C247.863 462.739 247.766 460.962 247.409 459.37C247 457.538 246.277 456.177 245.243 455.288Z" stroke="#4969A2" stroke-miterlimit="10" stroke-linecap="round" stroke-linejoin="round"/>
<path d="M237.72 450.513C238.754 451.402 239.477 452.763 239.886 454.595C240.242 456.188 240.339 457.964 240.178 459.924C239.893 463.868 238.892 467.751 237.175 471.573C235.458 475.395 233.237 478.652 230.511 481.343C227.784 484.034 224.844 485.732 221.689 486.438C220.127 486.787 218.722 486.817 217.475 486.528C216.227 486.239 215.21 485.709 214.422 484.939C213.635 484.169 213.127 483.273 212.899 482.252C212.798 481.801 212.763 481.288 212.792 480.714C212.874 479.812 213.181 479.066 213.711 478.474C214.241 477.882 214.942 477.489 215.813 477.294C217.194 476.985 218.434 477.205 219.532 477.953C220.63 478.701 221.483 479.875 222.094 481.474C223.996 480.954 225.584 479.731 226.858 477.806C225.265 477.878 224.015 477.614 223.107 477.012C222.2 476.411 221.43 475.329 220.797 473.767L216.527 463.129C216.309 462.579 216.091 462.209 215.876 462.02C215.66 461.832 215.418 461.768 215.147 461.828C214.937 461.876 214.713 462.036 214.474 462.31C214.236 462.584 214.056 462.735 213.936 462.762C213.696 462.815 213.519 462.587 213.405 462.076C213.311 461.656 213.285 461.188 213.328 460.674C213.486 458.84 214.168 457.166 215.375 455.65C216.582 454.134 218.161 453.158 220.115 452.721C222.037 452.292 223.584 452.545 224.756 453.482C225.927 454.419 226.914 456.044 227.715 458.357L231.283 467.969C231.541 468.7 231.895 469.015 232.346 468.914C232.887 468.793 233.409 468.164 233.911 467.027C234.414 465.889 234.809 464.342 235.097 462.384C234.015 461.775 233.115 460.999 232.4 460.054C231.684 459.11 231.192 458.037 230.924 456.835C230.715 455.904 230.647 455.036 230.72 454.231C230.812 452.949 231.172 451.914 231.8 451.127C232.429 450.34 233.223 449.839 234.185 449.624C235.507 449.328 236.685 449.625 237.72 450.513Z" fill="#FAB690"/>
<path d="M237.72 450.513C238.754 451.402 239.477 452.763 239.886 454.595C240.242 456.188 240.339 457.964 240.178 459.924C239.893 463.868 238.892 467.751 237.175 471.573C235.458 475.395 233.237 478.652 230.511 481.343C227.784 484.034 224.844 485.732 221.689 486.438C220.127 486.787 218.722 486.817 217.475 486.528C216.227 486.239 215.21 485.709 214.422 484.939C213.635 484.169 213.127 483.273 212.899 482.252C212.798 481.801 212.763 481.288 212.792 480.714C212.874 479.812 213.181 479.066 213.711 478.474C214.241 477.882 214.942 477.489 215.813 477.294C217.194 476.985 218.434 477.205 219.532 477.953C220.63 478.701 221.483 479.875 222.094 481.474C223.996 480.954 225.584 479.731 226.858 477.806C225.265 477.878 224.015 477.614 223.107 477.012C222.2 476.411 221.43 475.329 220.797 473.767L216.527 463.129C216.309 462.579 216.091 462.209 215.876 462.02C215.66 461.832 215.418 461.768 215.147 461.828C214.937 461.876 214.713 462.036 214.474 462.31C214.236 462.584 214.056 462.735 213.936 462.762C213.696 462.815 213.519 462.587 213.405 462.076C213.311 461.656 213.285 461.188 213.328 460.674C213.486 458.84 214.168 457.166 215.375 455.65C216.582 454.134 218.161 453.158 220.115 452.721C222.037 452.292 223.584 452.545 224.756 453.482C225.927 454.419 226.914 456.044 227.715 458.357L231.283 467.969C231.541 468.7 231.895 469.015 232.346 468.914C232.887 468.793 233.409 468.164 233.911 467.027C234.414 465.889 234.809 464.342 235.097 462.384C234.015 461.775 233.115 460.999 232.4 460.054C231.684 459.11 231.192 458.037 230.924 456.835C230.715 455.904 230.647 455.036 230.72 454.231C230.812 452.949 231.172 451.914 231.8 451.127C232.429 450.34 233.223 449.839 234.185 449.624C235.507 449.328 236.685 449.625 237.72 450.513Z" stroke="#4969A2" stroke-miterlimit="10" stroke-linecap="round" stroke-linejoin="round"/>
<path d="M137.61 528.115C137.043 527.586 136.344 527.164 135.719 526.773C134.704 526.136 133.706 525.472 132.695 524.83C131.982 524.378 131.27 523.926 130.558 523.474C130.303 523.313 129.929 522.956 129.63 522.887C129.474 522.787 129.312 522.689 129.135 522.599C127.978 522.006 126.44 521.687 124.521 521.643C122.603 521.599 120.397 521.855 117.904 522.412C114.118 523.258 111.359 524.64 109.627 526.557C107.894 528.475 107.304 530.665 107.854 533.128C108.157 534.48 108.899 535.423 109.902 536.33C111.051 537.368 112.448 538.647 113.599 539.678C112.686 539.179 111.105 539.073 109.861 539.352C108.569 539.641 107.606 540.203 106.973 541.038C106.34 541.874 106.167 542.938 106.456 544.229C106.585 544.808 106.83 545.356 107.189 545.829C108.301 547.292 110.196 548.12 111.73 549.093C112.841 549.799 113.935 550.533 115.089 551.17C117.053 552.253 118.982 552.92 121.258 552.984C123.677 553.051 126.099 552.682 128.453 552.156C132.028 551.357 134.781 550.126 136.713 548.464C137.823 547.509 138.775 546.334 139.271 544.942C139.799 543.46 139.877 542.11 139.156 540.692C138.102 538.618 136.155 537.572 134.273 536.378C133.023 535.585 131.773 534.792 130.524 533.998C130.611 534.042 130.695 534.087 130.787 534.127C131.992 534.647 133.344 534.738 134.847 534.402C136.319 534.073 137.394 533.486 138.073 532.64C138.872 531.645 139.006 530.317 138.435 529.177C138.234 528.776 137.945 528.427 137.61 528.115Z" fill="#A8BCC0"/>
<path d="M137.61 528.115C137.043 527.586 136.344 527.164 135.719 526.773C134.704 526.136 133.706 525.472 132.695 524.83C131.982 524.378 131.27 523.926 130.558 523.474C130.303 523.313 129.929 522.956 129.63 522.887C129.474 522.787 129.312 522.689 129.135 522.599C127.978 522.006 126.44 521.687 124.521 521.643C122.603 521.599 120.397 521.855 117.904 522.412C114.118 523.258 111.359 524.64 109.627 526.557C107.894 528.475 107.304 530.665 107.854 533.128C108.157 534.48 108.899 535.423 109.902 536.33C111.051 537.368 112.448 538.647 113.599 539.678C112.686 539.179 111.105 539.073 109.861 539.352C108.569 539.641 107.606 540.203 106.973 541.038C106.34 541.874 106.167 542.938 106.456 544.229C106.585 544.808 106.83 545.356 107.189 545.829C108.301 547.292 110.196 548.12 111.73 549.093C112.841 549.799 113.935 550.533 115.089 551.17C117.053 552.253 118.982 552.92 121.258 552.984C123.677 553.051 126.099 552.682 128.453 552.156C132.028 551.357 134.781 550.126 136.713 548.464C137.823 547.509 138.775 546.334 139.271 544.942C139.799 543.46 139.877 542.11 139.156 540.692C138.102 538.618 136.155 537.572 134.273 536.378C133.023 535.585 131.773 534.792 130.524 533.998C130.611 534.042 130.695 534.087 130.787 534.127C131.992 534.647 133.344 534.738 134.847 534.402C136.319 534.073 137.394 533.486 138.073 532.64C138.872 531.645 139.006 530.317 138.435 529.177C138.234 528.776 137.945 528.427 137.61 528.115Z" stroke="#4969A2" stroke-miterlimit="10" stroke-linecap="round" stroke-linejoin="round"/>
<path d="M124.521 521.643C126.439 521.687 127.977 522.006 129.136 522.599C130.293 523.191 130.987 523.999 131.215 525.02C131.45 526.072 131.228 527.021 130.549 527.866C129.871 528.712 128.795 529.299 127.324 529.628C125.821 529.964 124.468 529.872 123.264 529.352C122.059 528.834 121.33 528.003 121.074 526.861C120.987 526.471 120.963 526.082 121.003 525.694C120.429 525.665 119.931 525.697 119.511 525.791C118.759 525.959 118.176 526.278 117.761 526.75C117.346 527.221 117.227 527.785 117.405 528.438C117.58 529.22 118.117 529.793 119.02 530.159C119.922 530.526 121.335 530.919 123.259 531.341C124.908 531.666 126.284 531.998 127.385 532.335C128.485 532.673 129.468 533.187 130.332 533.877C131.196 534.567 131.755 535.483 132.01 536.624C132.064 536.865 132.104 537.329 132.133 538.017C132.101 540.137 131.12 542.028 129.189 543.69C127.258 545.352 124.505 546.582 120.93 547.382C116.903 548.282 113.591 548.454 110.991 547.9C108.39 547.345 106.879 546.122 106.456 544.229C106.167 542.938 106.34 541.874 106.973 541.038C107.606 540.203 108.569 539.641 109.86 539.352C111.363 539.016 112.751 539.195 114.026 539.887C115.3 540.58 116.099 541.647 116.422 543.09C116.509 543.48 116.555 543.896 116.559 544.337C117.32 544.356 118.031 544.292 118.692 544.144C119.473 543.969 120.071 543.615 120.488 543.08C120.905 542.545 121.03 541.902 120.862 541.151C120.677 540.467 120.199 539.951 119.428 539.602C118.656 539.254 117.472 538.897 115.875 538.528C114.382 538.199 113.138 537.854 112.142 537.493C111.146 537.132 110.247 536.6 109.443 535.896C108.639 535.193 108.11 534.271 107.854 533.128C107.304 530.665 107.894 528.475 109.627 526.557C111.358 524.64 114.118 523.258 117.903 522.412C120.397 521.855 122.602 521.599 124.521 521.643Z" fill="#FAB690"/>
<path d="M124.521 521.643C126.439 521.687 127.977 522.006 129.136 522.599C130.293 523.191 130.987 523.999 131.215 525.02C131.45 526.072 131.228 527.021 130.549 527.866C129.871 528.712 128.795 529.299 127.324 529.628C125.821 529.964 124.468 529.872 123.264 529.352C122.059 528.834 121.33 528.003 121.074 526.861C120.987 526.471 120.963 526.082 121.003 525.694C120.429 525.665 119.931 525.697 119.511 525.791C118.759 525.959 118.176 526.278 117.761 526.75C117.346 527.221 117.227 527.785 117.405 528.438C117.58 529.22 118.117 529.793 119.02 530.159C119.922 530.526 121.335 530.919 123.259 531.341C124.908 531.666 126.284 531.998 127.385 532.335C128.485 532.673 129.468 533.187 130.332 533.877C131.196 534.567 131.755 535.483 132.01 536.624C132.064 536.865 132.104 537.329 132.133 538.017C132.101 540.137 131.12 542.028 129.189 543.69C127.258 545.352 124.505 546.582 120.93 547.382C116.903 548.282 113.591 548.454 110.991 547.9C108.39 547.345 106.879 546.122 106.456 544.229C106.167 542.938 106.34 541.874 106.973 541.038C107.606 540.203 108.569 539.641 109.86 539.352C111.363 539.016 112.751 539.195 114.026 539.887C115.3 540.58 116.099 541.647 116.422 543.09C116.509 543.48 116.555 543.896 116.559 544.337C117.32 544.356 118.031 544.292 118.692 544.144C119.473 543.969 120.071 543.615 120.488 543.08C120.905 542.545 121.03 541.902 120.862 541.151C120.677 540.467 120.199 539.951 119.428 539.602C118.656 539.254 117.472 538.897 115.875 538.528C114.382 538.199 113.138 537.854 112.142 537.493C111.146 537.132 110.247 536.6 109.443 535.896C108.639 535.193 108.11 534.271 107.854 533.128C107.304 530.665 107.894 528.475 109.627 526.557C111.358 524.64 114.118 523.258 117.903 522.412C120.397 521.855 122.602 521.599 124.521 521.643Z" stroke="#4969A2" stroke-miterlimit="10" stroke-linecap="round" stroke-linejoin="round"/>
<path d="M175.229 535.165C175.077 534.978 174.925 534.901 174.776 534.935C174.686 534.955 174.547 535.152 174.363 535.524C174.178 535.896 173.905 536.123 173.545 536.204C173.154 536.291 172.906 536.094 172.798 535.614C172.758 535.433 172.739 535.28 172.742 535.153L173.2 528.521C173.278 527.178 173.207 526.011 172.985 525.02C172.581 523.211 171.751 521.834 170.497 520.887L170.493 520.885C170.239 520.694 169.967 520.522 169.678 520.366L162.548 515.821C162.527 515.806 162.504 515.792 162.482 515.778L162.453 515.759L162.452 515.76C161.994 515.467 161.487 515.222 160.929 515.029C158.571 514.216 155.664 514.195 152.209 514.968C148.754 515.74 146.296 516.81 144.836 518.177C143.374 519.545 142.812 520.98 143.148 522.482C143.314 523.225 143.707 523.816 144.324 524.26L144.323 524.262L144.383 524.3C144.468 524.358 144.554 524.414 144.647 524.467L147.689 526.398C147.531 526.43 147.373 526.459 147.215 526.494C144.991 526.991 143.194 527.945 141.822 529.355C140.449 530.767 139.754 532.562 139.737 534.742C139.748 535.213 139.807 535.689 139.915 536.17C140.156 537.251 140.649 538.222 141.393 539.08C141.731 539.471 142.121 539.808 142.557 540.099L142.555 540.101L142.632 540.15C142.665 540.171 142.698 540.192 142.732 540.213L150.274 544.999C150.307 545.021 150.34 545.042 150.373 545.063L150.58 545.193L150.591 545.189C151.014 545.426 151.475 545.625 151.979 545.779C153.199 546.154 154.604 546.163 156.197 545.807C157.609 545.491 158.865 544.903 159.966 544.042C161.067 543.18 161.947 542.108 162.607 540.825C163.276 541.843 164.23 542.513 165.469 542.835C166.708 543.158 168.109 543.144 169.672 542.795C170.963 542.506 172.09 541.97 173.05 541.188C174.011 540.405 174.72 539.521 175.178 538.536C175.636 537.55 175.759 536.655 175.548 535.85C175.487 535.58 175.381 535.352 175.229 535.165Z" fill="#A8BCC0"/>
<path d="M175.229 535.165C175.077 534.978 174.925 534.901 174.776 534.935C174.686 534.955 174.547 535.152 174.363 535.524C174.178 535.896 173.905 536.123 173.545 536.204C173.154 536.291 172.906 536.094 172.798 535.614C172.758 535.433 172.739 535.28 172.742 535.153L173.2 528.521C173.278 527.178 173.207 526.011 172.985 525.02C172.581 523.211 171.751 521.834 170.497 520.887L170.493 520.885C170.239 520.694 169.967 520.522 169.678 520.366L162.548 515.821C162.527 515.806 162.504 515.792 162.482 515.778L162.453 515.759L162.452 515.76C161.994 515.467 161.487 515.222 160.929 515.029C158.571 514.216 155.664 514.195 152.209 514.968C148.754 515.74 146.296 516.81 144.836 518.177C143.374 519.545 142.812 520.98 143.148 522.482C143.314 523.225 143.707 523.816 144.324 524.26L144.323 524.262L144.383 524.3C144.468 524.358 144.554 524.414 144.647 524.467L147.689 526.398C147.531 526.43 147.373 526.459 147.215 526.494C144.991 526.991 143.194 527.945 141.822 529.355C140.449 530.767 139.754 532.562 139.737 534.742C139.748 535.213 139.807 535.689 139.915 536.17C140.156 537.251 140.649 538.222 141.393 539.08C141.731 539.471 142.121 539.808 142.557 540.099L142.555 540.101L142.632 540.15C142.665 540.171 142.698 540.192 142.732 540.213L150.274 544.999C150.307 545.021 150.34 545.042 150.373 545.063L150.58 545.193L150.591 545.189C151.014 545.426 151.475 545.625 151.979 545.779C153.199 546.154 154.604 546.163 156.197 545.807C157.609 545.491 158.865 544.903 159.966 544.042C161.067 543.18 161.947 542.108 162.607 540.825C163.276 541.843 164.23 542.513 165.469 542.835C166.708 543.158 168.109 543.144 169.672 542.795C170.963 542.506 172.09 541.97 173.05 541.188C174.011 540.405 174.72 539.521 175.178 538.536C175.636 537.55 175.759 536.655 175.548 535.85C175.487 535.58 175.381 535.352 175.229 535.165Z" stroke="#4969A2" stroke-miterlimit="10" stroke-linecap="round" stroke-linejoin="round"/>
<path d="M160.929 515.029C163.288 515.843 164.759 517.557 165.344 520.171C165.565 521.162 165.636 522.329 165.558 523.671L165.101 530.303C165.097 530.43 165.116 530.583 165.156 530.764C165.264 531.245 165.512 531.441 165.903 531.354C166.264 531.274 166.536 531.047 166.721 530.674C166.906 530.302 167.044 530.106 167.134 530.085C167.284 530.052 167.435 530.129 167.587 530.315C167.739 530.502 167.846 530.731 167.906 531.001C168.117 531.805 167.994 532.701 167.536 533.686C167.078 534.672 166.369 535.556 165.408 536.338C164.448 537.121 163.321 537.656 162.03 537.945C160.467 538.294 159.066 538.308 157.827 537.986C156.588 537.664 155.634 536.994 154.965 535.975C154.305 537.258 153.425 538.331 152.324 539.192C151.223 540.053 149.967 540.642 148.555 540.957C146.963 541.313 145.557 541.304 144.338 540.93C143.119 540.556 142.136 539.94 141.393 539.08C140.649 538.222 140.156 537.251 139.914 536.169C139.807 535.689 139.748 535.213 139.737 534.742C139.754 532.562 140.449 530.767 141.822 529.356C143.194 527.945 144.991 526.991 147.215 526.494C149.708 525.937 152.244 525.78 154.822 526.024L155.284 522.797C155.392 521.448 155.37 520.429 155.215 519.737C155.024 519.023 154.663 518.536 154.132 518.276C153.6 518.016 152.869 517.99 151.938 518.199C152.225 518.639 152.426 519.115 152.541 519.625C152.789 520.737 152.583 521.792 151.924 522.791C151.263 523.791 150.152 524.465 148.59 524.814C147.118 525.143 145.897 525.078 144.926 524.616C143.955 524.155 143.363 523.444 143.148 522.482C142.812 520.98 143.374 519.545 144.835 518.177C146.296 516.81 148.754 515.74 152.209 514.968C155.664 514.195 158.571 514.216 160.929 515.029ZM150.904 530.614C150.522 531.378 150.416 532.135 150.584 532.886C150.691 533.366 150.891 533.732 151.184 533.982C151.476 534.232 151.832 534.31 152.253 534.216C152.643 534.129 153.036 533.875 153.432 533.456C153.827 533.036 154.059 532.487 154.128 531.809L154.48 528.939C153.949 528.963 153.369 529.045 152.738 529.186C151.896 529.375 151.285 529.851 150.904 530.614Z" fill="#FAB690"/>
<path d="M160.929 515.029C163.288 515.843 164.759 517.557 165.344 520.171C165.565 521.162 165.636 522.329 165.558 523.671L165.101 530.303C165.097 530.43 165.116 530.583 165.156 530.764C165.264 531.245 165.512 531.441 165.903 531.354C166.264 531.274 166.536 531.047 166.721 530.674C166.906 530.302 167.044 530.106 167.134 530.085C167.284 530.052 167.435 530.129 167.587 530.315C167.739 530.502 167.846 530.731 167.906 531.001C168.117 531.805 167.994 532.701 167.536 533.686C167.078 534.672 166.369 535.556 165.408 536.338C164.448 537.121 163.321 537.656 162.03 537.945C160.467 538.294 159.066 538.308 157.827 537.986C156.588 537.664 155.634 536.994 154.965 535.975C154.305 537.258 153.425 538.331 152.324 539.192C151.223 540.053 149.967 540.642 148.555 540.957C146.963 541.313 145.557 541.304 144.338 540.93C143.119 540.556 142.136 539.94 141.393 539.08C140.649 538.222 140.156 537.251 139.914 536.169C139.807 535.689 139.748 535.213 139.737 534.742C139.754 532.562 140.449 530.767 141.822 529.356C143.194 527.945 144.991 526.991 147.215 526.494C149.708 525.937 152.244 525.78 154.822 526.024L155.284 522.797C155.392 521.448 155.37 520.429 155.215 519.737C155.024 519.023 154.663 518.536 154.132 518.276C153.6 518.016 152.869 517.99 151.938 518.199C152.225 518.639 152.426 519.115 152.541 519.625C152.789 520.737 152.583 521.792 151.924 522.791C151.263 523.791 150.152 524.465 148.59 524.814C147.118 525.143 145.897 525.078 144.926 524.616C143.955 524.155 143.363 523.444 143.148 522.482C142.812 520.98 143.374 519.545 144.835 518.177C146.296 516.81 148.754 515.74 152.209 514.968C155.664 514.195 158.571 514.216 160.929 515.029ZM150.904 530.614C150.522 531.378 150.416 532.135 150.584 532.886C150.691 533.366 150.891 533.732 151.184 533.982C151.476 534.232 151.832 534.31 152.253 534.216C152.643 534.129 153.036 533.875 153.432 533.456C153.827 533.036 154.059 532.487 154.128 531.809L154.48 528.939C153.949 528.963 153.369 529.045 152.738 529.186C151.896 529.375 151.285 529.851 150.904 530.614Z" stroke="#4969A2" stroke-miterlimit="10" stroke-linecap="round" stroke-linejoin="round"/>
<path d="M200.57 513.517C200.314 513.297 200.048 513.113 199.774 512.966L192.716 508.487C191.763 507.803 190.695 507.589 189.512 507.853C188.551 508.068 187.756 508.569 187.128 509.356C186.499 510.144 186.139 511.179 186.047 512.461C185.974 513.266 186.043 514.134 186.251 515.065C186.302 515.294 186.364 515.517 186.432 515.737L180.038 511.68C178.872 510.772 177.34 510.527 175.442 510.951C173.488 511.387 171.909 512.364 170.702 513.88C169.495 515.396 168.813 517.07 168.655 518.903C168.612 519.418 168.638 519.885 168.732 520.305C168.846 520.817 169.023 521.045 169.264 520.991C169.383 520.964 169.563 520.814 169.801 520.539C170.04 520.266 170.264 520.105 170.475 520.058C170.745 519.998 170.988 520.062 171.204 520.25C171.419 520.438 171.636 520.808 171.854 521.358L176.124 531.997C176.757 533.559 177.527 534.64 178.435 535.242C179.342 535.843 180.592 536.108 182.185 536.036C181.336 537.319 180.346 538.289 179.217 538.948L174.86 536.183C173.762 535.435 172.522 535.215 171.14 535.524C170.269 535.719 169.568 536.112 169.038 536.703C168.508 537.295 168.202 538.041 168.119 538.943C168.09 539.518 168.125 540.03 168.226 540.481C168.455 541.502 168.962 542.398 169.75 543.169C170.094 543.505 170.485 543.793 170.912 544.04C172.069 544.774 173.225 545.507 174.381 546.241C176.019 547.281 177.569 548.35 179.352 549.131C181.02 549.861 182.763 549.839 184.54 549.442C187.694 548.737 190.635 547.038 193.361 544.347C196.087 541.656 198.309 538.399 200.026 534.577C201.742 530.755 202.743 526.872 203.029 522.928C203.19 520.968 203.093 519.192 202.737 517.599C202.327 515.767 201.604 514.406 200.57 513.517Z" fill="#A8BCC0"/>
<path d="M200.57 513.517C200.314 513.297 200.048 513.113 199.774 512.966L192.716 508.487C191.763 507.803 190.695 507.589 189.512 507.853C188.551 508.068 187.756 508.569 187.128 509.356C186.499 510.144 186.139 511.179 186.047 512.461C185.974 513.266 186.043 514.134 186.251 515.065C186.302 515.294 186.364 515.517 186.432 515.737L180.038 511.68C178.872 510.772 177.34 510.527 175.442 510.951C173.488 511.387 171.909 512.364 170.702 513.88C169.495 515.396 168.813 517.07 168.655 518.903C168.612 519.418 168.638 519.885 168.732 520.305C168.846 520.817 169.023 521.045 169.264 520.991C169.383 520.964 169.563 520.814 169.801 520.539C170.04 520.266 170.264 520.105 170.475 520.058C170.745 519.998 170.988 520.062 171.204 520.25C171.419 520.438 171.636 520.808 171.854 521.358L176.124 531.997C176.757 533.559 177.527 534.64 178.435 535.242C179.342 535.843 180.592 536.108 182.185 536.036C181.336 537.319 180.346 538.289 179.217 538.948L174.86 536.183C173.762 535.435 172.522 535.215 171.14 535.524C170.269 535.719 169.568 536.112 169.038 536.703C168.508 537.295 168.202 538.041 168.119 538.943C168.09 539.518 168.125 540.03 168.226 540.481C168.455 541.502 168.962 542.398 169.75 543.169C170.094 543.505 170.485 543.793 170.912 544.04C172.069 544.774 173.225 545.507 174.381 546.241C176.019 547.281 177.569 548.35 179.352 549.131C181.02 549.861 182.763 549.839 184.54 549.442C187.694 548.737 190.635 547.038 193.361 544.347C196.087 541.656 198.309 538.399 200.026 534.577C201.742 530.755 202.743 526.872 203.029 522.928C203.19 520.968 203.093 519.192 202.737 517.599C202.327 515.767 201.604 514.406 200.57 513.517Z" stroke="#4969A2" stroke-miterlimit="10" stroke-linecap="round" stroke-linejoin="round"/>
<path d="M193.047 508.743C194.081 509.632 194.804 510.993 195.213 512.825C195.569 514.418 195.666 516.194 195.505 518.154C195.22 522.097 194.219 525.981 192.502 529.803C190.785 533.624 188.564 536.881 185.838 539.573C183.111 542.264 180.171 543.962 177.016 544.667C175.454 545.016 174.049 545.047 172.802 544.758C171.554 544.469 170.537 543.939 169.749 543.169C168.962 542.398 168.454 541.502 168.226 540.481C168.126 540.031 168.09 539.518 168.119 538.944C168.201 538.042 168.508 537.295 169.038 536.704C169.568 536.112 170.269 535.719 171.14 535.524C172.521 535.215 173.762 535.435 174.86 536.183C175.957 536.931 176.811 538.104 177.421 539.703C179.323 539.183 180.912 537.961 182.185 536.036C180.592 536.108 179.342 535.844 178.435 535.241C177.527 534.64 176.757 533.558 176.124 531.996L171.854 521.358C171.636 520.808 171.419 520.438 171.204 520.25C170.988 520.061 170.745 519.998 170.475 520.058C170.264 520.105 170.04 520.266 169.802 520.54C169.563 520.814 169.383 520.964 169.264 520.991C169.023 521.045 168.846 520.817 168.732 520.306C168.638 519.885 168.612 519.418 168.655 518.903C168.813 517.07 169.495 515.396 170.702 513.879C171.909 512.364 173.489 511.388 175.442 510.951C177.364 510.521 178.911 510.775 180.083 511.712C181.255 512.649 182.241 514.274 183.042 516.586L186.61 526.199C186.868 526.93 187.222 527.244 187.673 527.144C188.214 527.023 188.736 526.394 189.239 525.256C189.741 524.119 190.136 522.571 190.425 520.614C189.342 520.004 188.443 519.228 187.727 518.284C187.011 517.34 186.519 516.266 186.251 515.065C186.043 514.134 185.974 513.266 186.047 512.46C186.139 511.179 186.499 510.144 187.127 509.356C187.756 508.57 188.551 508.068 189.512 507.853C190.834 507.558 192.012 507.855 193.047 508.743Z" fill="#FAB690"/>
<path d="M193.047 508.743C194.081 509.632 194.804 510.993 195.213 512.825C195.569 514.418 195.666 516.194 195.505 518.154C195.22 522.097 194.219 525.981 192.502 529.803C190.785 533.624 188.564 536.881 185.838 539.573C183.111 542.264 180.171 543.962 177.016 544.667C175.454 545.016 174.049 545.047 172.802 544.758C171.554 544.469 170.537 543.939 169.749 543.169C168.962 542.398 168.454 541.502 168.226 540.481C168.126 540.031 168.09 539.518 168.119 538.944C168.201 538.042 168.508 537.295 169.038 536.704C169.568 536.112 170.269 535.719 171.14 535.524C172.521 535.215 173.762 535.435 174.86 536.183C175.957 536.931 176.811 538.104 177.421 539.703C179.323 539.183 180.912 537.961 182.185 536.036C180.592 536.108 179.342 535.844 178.435 535.241C177.527 534.64 176.757 533.558 176.124 531.996L171.854 521.358C171.636 520.808 171.419 520.438 171.204 520.25C170.988 520.061 170.745 519.998 170.475 520.058C170.264 520.105 170.04 520.266 169.802 520.54C169.563 520.814 169.383 520.964 169.264 520.991C169.023 521.045 168.846 520.817 168.732 520.306C168.638 519.885 168.612 519.418 168.655 518.903C168.813 517.07 169.495 515.396 170.702 513.879C171.909 512.364 173.489 511.388 175.442 510.951C177.364 510.521 178.911 510.775 180.083 511.712C181.255 512.649 182.241 514.274 183.042 516.586L186.61 526.199C186.868 526.93 187.222 527.244 187.673 527.144C188.214 527.023 188.736 526.394 189.239 525.256C189.741 524.119 190.136 522.571 190.425 520.614C189.342 520.004 188.443 519.228 187.727 518.284C187.011 517.34 186.519 516.266 186.251 515.065C186.043 514.134 185.974 513.266 186.047 512.46C186.139 511.179 186.499 510.144 187.127 509.356C187.756 508.57 188.551 508.068 189.512 507.853C190.834 507.558 192.012 507.855 193.047 508.743Z" stroke="#4969A2" stroke-miterlimit="10" stroke-linecap="round" stroke-linejoin="round"/>
<path d="M198.109 508.12L207.165 513.866L207.178 513.855C207.475 514.093 207.987 514.132 208.715 513.969C209.627 513.765 210.517 513.341 211.386 512.695C212.254 512.049 212.965 511.22 213.519 510.206C214.073 509.193 214.361 508.068 214.386 506.831C214.403 506.17 214.35 505.566 214.227 505.018C213.912 503.611 213.242 502.57 212.216 501.896L202.826 495.937L202.823 495.969C201.944 495.528 201.024 495.411 200.061 495.626C199.201 495.818 198.526 496.168 198.037 496.674C197.548 497.18 197.278 497.808 197.227 498.559C197.207 498.837 197.229 499.119 197.293 499.406C197.371 499.752 197.499 500.057 197.678 500.321L200.448 503.011" fill="#A8BCC0"/>
<path d="M198.109 508.12L207.165 513.866L207.178 513.855C207.475 514.093 207.987 514.132 208.715 513.969C209.627 513.765 210.517 513.341 211.386 512.695C212.254 512.049 212.965 511.22 213.519 510.206C214.073 509.193 214.361 508.068 214.386 506.831C214.403 506.17 214.35 505.566 214.227 505.018C213.912 503.611 213.242 502.57 212.216 501.896L202.826 495.937L202.823 495.969C201.944 495.528 201.024 495.411 200.061 495.626C199.201 495.818 198.526 496.168 198.037 496.673C197.548 497.18 197.278 497.808 197.227 498.559C197.207 498.837 197.229 499.119 197.293 499.406C197.371 499.752 197.499 500.057 197.678 500.321L200.448 503.011" stroke="#4969A2" stroke-miterlimit="10" stroke-linecap="round" stroke-linejoin="round"/>
<path d="M203.321 496.252C204.347 496.926 205.018 497.966 205.333 499.374C205.455 499.922 205.508 500.526 205.491 501.186C205.467 502.423 205.178 503.549 204.624 504.562C204.071 505.575 203.359 506.405 202.492 507.05C201.623 507.696 200.732 508.121 199.82 508.325C198.751 508.563 198.147 508.37 198.007 507.745C197.973 507.588 197.959 507.468 197.968 507.384C197.982 507.08 198.085 506.803 198.276 506.555C198.466 506.308 198.772 505.959 199.191 505.509C199.671 504.964 200.013 504.532 200.215 504.213C200.417 503.895 200.478 503.552 200.396 503.187C200.344 502.953 200.22 502.734 200.024 502.531C199.828 502.329 199.53 502.067 199.13 501.746C198.59 501.292 198.176 500.906 197.886 500.587C197.595 500.269 197.398 499.875 197.293 499.406C197.229 499.119 197.207 498.837 197.227 498.558C197.278 497.808 197.548 497.18 198.037 496.673C198.526 496.168 199.201 495.818 200.061 495.626C201.208 495.37 202.294 495.578 203.321 496.252Z" fill="#FAB690"/>
<path d="M203.321 496.252C204.347 496.926 205.018 497.966 205.333 499.374C205.455 499.922 205.508 500.526 205.491 501.186C205.467 502.423 205.178 503.549 204.624 504.562C204.071 505.575 203.359 506.405 202.492 507.05C201.623 507.696 200.732 508.121 199.82 508.325C198.751 508.563 198.147 508.37 198.007 507.745C197.973 507.588 197.959 507.468 197.968 507.384C197.982 507.08 198.085 506.803 198.276 506.555C198.466 506.308 198.772 505.959 199.191 505.509C199.671 504.964 200.013 504.532 200.215 504.213C200.417 503.895 200.478 503.552 200.396 503.187C200.344 502.953 200.22 502.734 200.024 502.531C199.828 502.329 199.53 502.067 199.13 501.746C198.59 501.292 198.176 500.906 197.886 500.587C197.595 500.269 197.398 499.875 197.293 499.406C197.229 499.119 197.207 498.837 197.227 498.558C197.278 497.808 197.548 497.18 198.037 496.673C198.526 496.168 199.201 495.818 200.061 495.626C201.208 495.37 202.294 495.578 203.321 496.252Z" stroke="#4969A2" stroke-miterlimit="10" stroke-linecap="round" stroke-linejoin="round"/>
<path d="M238.38 508.577C237.813 508.048 237.114 507.626 236.49 507.235C235.474 506.599 234.477 505.934 233.465 505.292C232.752 504.841 232.04 504.388 231.328 503.937C231.073 503.775 230.699 503.418 230.4 503.349C230.244 503.249 230.082 503.151 229.905 503.061C228.748 502.468 227.21 502.149 225.292 502.105C223.373 502.061 221.167 502.317 218.674 502.874C214.888 503.721 212.129 505.103 210.397 507.019C208.664 508.937 208.074 511.127 208.625 513.59C208.927 514.943 209.669 515.886 210.673 516.792C211.821 517.83 213.218 519.11 214.369 520.14C213.456 519.642 211.875 519.536 210.631 519.814C209.339 520.103 208.376 520.665 207.743 521.5C207.11 522.336 206.937 523.4 207.226 524.691C207.355 525.27 207.6 525.819 207.959 526.291C209.071 527.754 210.966 528.583 212.5 529.556C213.611 530.261 214.705 530.996 215.859 531.632C217.823 532.716 219.752 533.383 222.028 533.446C224.447 533.513 226.869 533.144 229.223 532.618C232.798 531.819 235.551 530.589 237.483 528.926C238.593 527.972 239.545 526.796 240.041 525.404C240.569 523.923 240.647 522.573 239.926 521.154C238.872 519.08 236.925 518.034 235.043 516.84C233.793 516.047 232.543 515.254 231.294 514.461C231.381 514.504 231.465 514.549 231.557 514.589C232.762 515.109 234.114 515.201 235.617 514.864C237.089 514.536 238.164 513.949 238.843 513.103C239.642 512.107 239.776 510.78 239.205 509.639C239.004 509.238 238.715 508.889 238.38 508.577Z" fill="#A8BCC0"/>
<path d="M238.38 508.577C237.813 508.048 237.114 507.626 236.49 507.235C235.474 506.599 234.477 505.934 233.465 505.292C232.752 504.841 232.04 504.388 231.328 503.937C231.073 503.775 230.699 503.418 230.4 503.349C230.244 503.249 230.082 503.151 229.905 503.061C228.748 502.468 227.21 502.149 225.292 502.105C223.373 502.061 221.167 502.317 218.674 502.874C214.888 503.721 212.129 505.103 210.397 507.019C208.664 508.937 208.074 511.127 208.625 513.59C208.927 514.943 209.669 515.886 210.673 516.792C211.821 517.83 213.218 519.11 214.369 520.14C213.456 519.642 211.875 519.536 210.631 519.814C209.339 520.103 208.376 520.665 207.743 521.5C207.11 522.336 206.937 523.4 207.226 524.691C207.355 525.27 207.6 525.819 207.959 526.291C209.071 527.754 210.966 528.583 212.5 529.556C213.611 530.261 214.705 530.996 215.859 531.632C217.823 532.716 219.752 533.383 222.028 533.446C224.447 533.513 226.869 533.144 229.223 532.618C232.798 531.819 235.551 530.589 237.483 528.926C238.593 527.972 239.545 526.796 240.041 525.404C240.569 523.923 240.647 522.573 239.926 521.154C238.872 519.08 236.925 518.034 235.043 516.84C233.793 516.047 232.543 515.254 231.294 514.461C231.381 514.504 231.465 514.549 231.557 514.589C232.762 515.109 234.114 515.201 235.617 514.864C237.089 514.536 238.164 513.949 238.843 513.103C239.642 512.107 239.776 510.78 239.205 509.639C239.004 509.238 238.715 508.889 238.38 508.577Z" stroke="#4969A2" stroke-miterlimit="10" stroke-linecap="round" stroke-linejoin="round"/>
<path d="M225.291 502.105C227.209 502.149 228.747 502.468 229.906 503.061C231.063 503.654 231.757 504.461 231.985 505.483C232.22 506.535 231.998 507.483 231.319 508.328C230.641 509.174 229.566 509.761 228.094 510.09C226.591 510.426 225.238 510.334 224.034 509.815C222.829 509.296 222.1 508.465 221.844 507.323C221.757 506.933 221.733 506.544 221.773 506.157C221.199 506.127 220.701 506.16 220.281 506.253C219.529 506.421 218.946 506.741 218.531 507.212C218.116 507.683 217.997 508.247 218.175 508.9C218.35 509.682 218.887 510.255 219.79 510.621C220.692 510.988 222.105 511.382 224.029 511.803C225.678 512.129 227.054 512.46 228.155 512.798C229.255 513.135 230.238 513.649 231.102 514.339C231.966 515.029 232.525 515.945 232.78 517.086C232.834 517.328 232.874 517.792 232.903 518.479C232.871 520.6 231.89 522.49 229.959 524.152C228.028 525.814 225.275 527.045 221.7 527.844C217.673 528.744 214.361 528.916 211.761 528.362C209.16 527.808 207.649 526.584 207.226 524.692C206.937 523.4 207.11 522.336 207.743 521.5C208.376 520.665 209.339 520.103 210.63 519.814C212.133 519.478 213.521 519.657 214.796 520.349C216.07 521.043 216.869 522.11 217.192 523.552C217.279 523.943 217.325 524.359 217.329 524.799C218.09 524.818 218.801 524.754 219.462 524.606C220.243 524.432 220.841 524.077 221.258 523.542C221.675 523.008 221.8 522.364 221.632 521.613C221.447 520.929 220.969 520.413 220.198 520.065C219.426 519.717 218.242 519.359 216.645 518.99C215.152 518.661 213.908 518.317 212.912 517.955C211.916 517.594 211.017 517.062 210.213 516.358C209.409 515.655 208.88 514.732 208.624 513.59C208.074 511.127 208.664 508.937 210.397 507.019C212.128 505.103 214.888 503.721 218.673 502.874C221.167 502.317 223.373 502.061 225.291 502.105Z" fill="#FAB690"/>
<path d="M225.291 502.105C227.209 502.149 228.747 502.468 229.906 503.061C231.063 503.654 231.757 504.461 231.985 505.483C232.22 506.535 231.998 507.483 231.319 508.328C230.641 509.174 229.566 509.761 228.094 510.09C226.591 510.426 225.238 510.334 224.034 509.815C222.829 509.296 222.1 508.465 221.844 507.323C221.757 506.933 221.733 506.544 221.773 506.157C221.199 506.127 220.701 506.16 220.281 506.253C219.529 506.421 218.946 506.741 218.531 507.212C218.116 507.683 217.997 508.247 218.175 508.9C218.35 509.682 218.887 510.255 219.79 510.621C220.692 510.988 222.105 511.382 224.029 511.803C225.678 512.129 227.054 512.46 228.155 512.798C229.255 513.135 230.238 513.649 231.102 514.339C231.966 515.029 232.525 515.945 232.78 517.086C232.834 517.328 232.874 517.792 232.903 518.479C232.871 520.6 231.89 522.49 229.959 524.152C228.028 525.814 225.275 527.045 221.7 527.844C217.673 528.744 214.361 528.916 211.761 528.362C209.16 527.808 207.649 526.584 207.226 524.692C206.937 523.4 207.11 522.336 207.743 521.5C208.376 520.665 209.339 520.103 210.63 519.814C212.133 519.478 213.521 519.657 214.796 520.349C216.07 521.043 216.869 522.11 217.192 523.552C217.279 523.943 217.325 524.359 217.329 524.799C218.09 524.818 218.801 524.754 219.462 524.606C220.243 524.432 220.841 524.077 221.258 523.542C221.675 523.008 221.8 522.364 221.632 521.613C221.447 520.929 220.969 520.413 220.198 520.065C219.426 519.717 218.242 519.359 216.645 518.99C215.152 518.661 213.908 518.317 212.912 517.955C211.916 517.594 211.017 517.062 210.213 516.358C209.409 515.655 208.88 514.732 208.624 513.59C208.074 511.127 208.664 508.937 210.397 507.019C212.128 505.103 214.888 503.721 218.673 502.874C221.167 502.317 223.373 502.061 225.291 502.105Z" stroke="#4969A2" stroke-miterlimit="10" stroke-linecap="round" stroke-linejoin="round"/>
<path d="M253.931 517.93C253.932 517.928 253.933 517.926 253.935 517.924C253.945 517.917 253.957 517.914 253.969 517.912C254.524 517.797 255.148 517.503 255.519 517.063C255.79 516.743 256.015 516.248 256.194 515.579L259.885 503.258C260.367 501.618 260.48 500.224 260.223 499.077C259.781 497.1 257.585 496.177 256.01 495.179C254.326 494.109 252.641 493.04 250.956 491.971C250.706 491.812 250.456 491.654 250.206 491.495C250.01 491.334 249.793 491.195 249.551 491.079C248.616 490.631 247.431 490.567 245.998 490.888C242.244 491.727 240.71 494.109 241.396 498.034L243.658 510.543C243.785 511.25 244.042 511.716 244.428 511.945L246.907 513.518C246.22 513.257 245.486 513.213 244.705 513.388C243.87 513.574 243.169 513.957 242.601 514.535C242.032 515.114 241.641 515.784 241.428 516.543C241.214 517.302 241.186 518.033 241.343 518.737C241.596 519.748 242.154 520.527 243.015 521.073C244.457 521.988 245.908 522.889 247.35 523.805C248.661 524.637 249.982 525.453 251.282 526.302C252.374 527.015 253.39 527.495 254.726 527.196C255.56 527.01 256.262 526.628 256.83 526.049C257.399 525.47 257.796 524.8 258.023 524.037C258.249 523.275 258.284 522.542 258.126 521.838C257.899 520.822 257.348 520.042 256.474 519.498C255.978 519.189 255.474 518.894 254.971 518.597C254.729 518.453 254.47 518.321 254.238 518.16C254.189 518.125 253.918 517.974 253.931 517.93Z" fill="#A8BCC0"/>
<path d="M253.931 517.93C253.932 517.928 253.933 517.926 253.935 517.924C253.945 517.917 253.957 517.914 253.969 517.912C254.524 517.797 255.148 517.503 255.519 517.063C255.79 516.743 256.015 516.248 256.194 515.579L259.885 503.258C260.367 501.618 260.48 500.224 260.223 499.077C259.781 497.1 257.585 496.177 256.01 495.179C254.326 494.109 252.641 493.04 250.956 491.971C250.706 491.812 250.456 491.654 250.206 491.495C250.01 491.334 249.793 491.195 249.551 491.079C248.616 490.631 247.431 490.567 245.998 490.888C242.244 491.727 240.71 494.109 241.396 498.034L243.658 510.543C243.785 511.25 244.042 511.716 244.428 511.945L246.907 513.518C246.22 513.257 245.486 513.213 244.705 513.388C243.87 513.574 243.169 513.957 242.601 514.535C242.032 515.114 241.641 515.784 241.428 516.543C241.214 517.302 241.186 518.033 241.343 518.737C241.596 519.748 242.154 520.527 243.015 521.073C244.457 521.988 245.908 522.889 247.35 523.805C248.661 524.637 249.982 525.453 251.282 526.302C252.374 527.015 253.39 527.495 254.726 527.196C255.56 527.01 256.262 526.628 256.83 526.049C257.399 525.47 257.796 524.8 258.023 524.037C258.249 523.275 258.284 522.542 258.126 521.838C257.899 520.822 257.348 520.042 256.474 519.498C255.978 519.189 255.474 518.894 254.971 518.597C254.729 518.453 254.47 518.321 254.238 518.16C254.189 518.125 253.918 517.974 253.931 517.93Z" stroke="#4969A2" stroke-miterlimit="10" stroke-linecap="round" stroke-linejoin="round"/>
<path d="M245.998 490.888C247.431 490.568 248.615 490.631 249.551 491.079C250.485 491.527 251.079 492.312 251.329 493.432C251.585 494.58 251.473 495.973 250.991 497.613L247.299 509.934C247.121 510.604 246.896 511.099 246.625 511.419C246.355 511.74 245.985 511.952 245.516 512.057C244.499 512.284 243.88 511.78 243.658 510.543L241.396 498.034C240.71 494.109 242.244 491.727 245.998 490.888ZM247.58 513.853C248.454 514.397 249.005 515.177 249.232 516.194C249.389 516.898 249.355 517.631 249.128 518.393C248.902 519.156 248.505 519.825 247.936 520.404C247.367 520.983 246.666 521.365 245.832 521.552C244.815 521.779 243.876 521.62 243.015 521.073C242.154 520.527 241.596 519.748 241.344 518.737C241.186 518.033 241.214 517.302 241.428 516.542C241.641 515.783 242.032 515.114 242.601 514.536C243.169 513.957 243.87 513.574 244.705 513.388C245.747 513.155 246.705 513.31 247.58 513.853Z" fill="#FAB690"/>
<path d="M245.998 490.888C247.431 490.568 248.615 490.631 249.551 491.079C250.485 491.527 251.079 492.312 251.329 493.432C251.585 494.58 251.473 495.973 250.991 497.613L247.299 509.934C247.121 510.604 246.896 511.099 246.625 511.419C246.355 511.74 245.985 511.952 245.516 512.057C244.499 512.284 243.88 511.78 243.658 510.543L241.396 498.034C240.71 494.109 242.244 491.727 245.998 490.888ZM247.58 513.853C248.454 514.397 249.005 515.177 249.232 516.194C249.389 516.898 249.355 517.631 249.128 518.393C248.902 519.156 248.505 519.825 247.936 520.404C247.367 520.983 246.666 521.365 245.832 521.552C244.815 521.779 243.876 521.62 243.015 521.073C242.154 520.527 241.596 519.748 241.344 518.737C241.186 518.033 241.214 517.302 241.428 516.542C241.641 515.783 242.032 515.114 242.601 514.536C243.169 513.957 243.87 513.574 244.705 513.388C245.747 513.155 246.705 513.31 247.58 513.853Z" stroke="#4969A2" stroke-miterlimit="10" stroke-linecap="round" stroke-linejoin="round"/>
<path d="M254.238 518.16L247.58 513.853" stroke="#4969A2" stroke-miterlimit="10" stroke-linecap="round" stroke-linejoin="round"/>
</g>
</svg>
