<svg width="159" height="148" viewBox="0 0 159 148" fill="none" xmlns="http://www.w3.org/2000/svg">
<mask id="mask0_1_434" style="mask-type:luminance" maskUnits="userSpaceOnUse" x="0" y="0" width="159" height="148">
<path d="M70.8643 0.573608C65.7774 2.17798 61.0918 4.78786 56.5619 7.53461C53.3165 9.34308 50.1994 11.3703 47.1948 13.5443C45.777 14.4353 44.3808 15.3581 43.0388 16.357C42.16 17.1319 41.3191 17.9426 40.5292 18.7383C31.6725 26.0415 23.8536 34.5873 17.7368 44.2579C14.6233 49.9967 11.4888 55.7541 8.79131 61.6957C7.15313 66.143 5.69094 70.6505 4.10613 75.1182C2.68509 78.7343 2.22268 82.6153 1.70854 86.4392C0.874572 88.9904 0.58572 91.6606 0.227201 94.3091C-0.0746875 97.3822 -0.0249877 100.48 0.0870494 103.563C0.473679 106.001 0.0446844 109.135 0.880684 113.811C1.18135 115.45 1.71423 117.052 2.32168 118.611C2.89735 120.713 3.44694 122.826 4.15216 124.89C4.82398 126.914 4.76775 126.305 5.86449 129.085C5.96797 129.44 6.2442 130.295 6.42957 130.782C6.61453 131.343 6.79135 131.909 7.1189 132.403C7.99076 133.713 8.99786 134.912 10.0897 136.037C11.4452 138.246 13.1489 140.261 15.1338 141.947C14.9582 141.809 14.9179 141.791 15.3049 142.122C16.8001 143.629 18.7166 144.572 20.6069 145.5C21.876 146.234 23.2323 146.71 24.6753 146.919C24.2321 146.822 23.8193 146.692 24.4199 146.856C24.5225 146.883 24.626 146.902 24.7275 146.927C24.8912 146.949 25.0493 146.985 25.2159 147C25.1288 147.002 24.9931 146.982 24.8501 146.954C28.2866 147.772 31.8506 147.952 35.3734 147.95C40.5137 147.828 45.4796 146.331 50.4923 145.367C52.6785 145.154 54.7069 144.269 56.8426 143.824C59.9951 143.094 63.2181 142.752 66.3788 142.052C71.1328 141.194 75.9243 140.546 80.6453 139.526C80.5802 139.531 80.5154 139.536 80.4502 139.541C86.4916 139.062 87.7073 138.529 93.2746 138.864C101.084 139.203 103.907 139.413 112.053 142.74C113.711 143.452 115.396 144.089 117.17 144.43C117.032 144.397 117.074 144.399 117.413 144.476C117.594 144.507 117.772 144.55 117.952 144.579C117.835 144.561 117.724 144.542 117.622 144.522C117.638 144.528 117.646 144.528 117.665 144.532C119.88 145.059 122.111 145.472 124.388 145.107C123.98 145.138 123.573 145.169 123.168 145.2C126.715 144.8 126.871 145.553 131.957 143.976C136.256 142.371 140.812 140.881 144.088 137.547C147.924 133.905 150.671 129.192 153.026 124.517C154.041 122.096 154.334 119.46 155.171 116.982C156.39 113.566 156.772 109.958 157.43 106.414C158.67 99.4058 158.441 92.2411 157.345 85.2284C156.88 81.1939 156.206 77.2102 155.046 73.3105C153.974 68.6253 153.377 63.8122 151.546 59.325C149.793 54.6003 146.831 50.4941 144.088 46.297C140.039 40.0005 135.506 34.0137 130.449 28.4709C124.173 21.7377 116.255 16.9294 108.738 11.7081C101.492 7.41565 94.1778 2.22404 85.6479 1.00102C84.2505 0.912613 82.8482 0.907715 81.4463 0.962723C81.197 0.897949 80.9485 0.826218 80.6995 0.763885C78.9094 0.281113 77.0659 0 75.2256 0C73.7602 0 72.2972 0.178024 70.8643 0.573608Z" fill="white"/>
</mask>
<g mask="url(#mask0_1_434)">
<path d="M155.737 116.508C155.494 116.345 155.156 116.326 154.892 116.461C154.206 116.779 153.537 117.158 152.943 117.63C152.791 117.973 151.976 118.21 151.263 118.631C150.139 119.264 149.074 119.995 147.902 120.545C145.056 122.028 143.123 122.804 140.178 123.506C137.841 124.126 136.716 124.946 134.525 125.251C131.011 125.812 126.817 125.893 123.375 125.027C119.931 124.094 116.784 122.171 113.611 119.747C107.221 114.655 100.092 110.397 92.3003 107.816C82.0642 104.546 71.0752 103.101 60.3698 104.381C51.1607 105.926 42.2096 109.057 34.1384 113.731C30.8197 115.554 27.1261 118.278 24.6711 120.108C21.0741 122.221 17.1927 124.785 13.931 126.023C10.9863 126.945 8.34099 126.41 5.55188 125.769C4.7334 125.571 3.92673 125.331 3.14247 125.026C3.11314 125.018 3.08135 125.023 3.05161 125.017C2.72283 124.651 2.12599 124.538 1.77358 124.98C1.45254 125.47 1.22154 126.054 1.1095 126.63C1.03739 127.396 1.51855 127.83 1.58129 128.139C2.21562 130.044 2.58106 132.046 3.63298 133.788C4.64498 135.728 5.63907 136.412 6.38584 138.425C6.66614 140.288 8.76306 143.859 10.6819 145.757C13.5204 148.828 17.8792 144.4 20.3783 142.725C24.3138 140.054 27.6452 136.831 31.3094 134.724C40.9914 129.018 50.6547 124.231 61.3618 121.914C69.7691 120.738 78.1262 120.371 86.9193 121.944C91.7731 122.253 95.6912 123.502 100.371 125.524C107.435 128.385 113.706 132.51 121.051 135.786C124.516 136.866 127.962 138.036 131.421 139.107C134.428 139.731 137.516 139.67 140.565 139.918C142.836 140.214 145.106 140.373 147.394 140.162C148.406 140.026 149.602 140.488 150.421 139.724C152.079 137.281 153.791 133.775 154.491 130.915C155.104 127.477 155.298 123.973 155.719 120.505C155.844 119.494 155.993 118.49 156.15 117.485C156.168 117.112 156.069 116.723 155.737 116.508Z" fill="#677733"/>
<path d="M23.0458 131.802C23.3401 131.873 23.3588 131.865 23.0458 131.802V131.802Z" fill="#FAF4D2"/>
<path d="M24.882 143.301C24.941 143.315 24.9975 143.326 25.0552 143.336C25.0149 143.328 24.9751 143.319 24.9336 143.309L24.882 143.301Z" fill="#FAF4D2"/>
<path d="M13.6054 133.848C12.8603 133.362 12.1787 132.793 11.4543 132.277C10.8705 131.879 10.2537 132.8 10.8493 133.184C11.6279 133.731 12.3543 134.353 13.1703 134.846C13.5101 135.123 14.1183 135.135 14.2092 134.617C14.3143 134.213 13.8955 134.017 13.6054 133.848Z" fill="#8CA05C"/>
<path d="M15.2364 129.453C15.0735 129.125 15.0572 128.644 14.6563 128.516C14.1821 128.337 13.7046 128.886 13.9486 129.328C14.4192 130.51 14.8592 131.737 15.5856 132.792C15.8993 133.164 16.563 132.934 16.5748 132.449C16.4733 131.909 15.6691 130.705 15.2364 129.453Z" fill="#8CA05C"/>
<path d="M18.3604 131.064C18.2023 129.839 18.1151 128.606 18.0068 127.376C17.977 127.237 17.8911 127.115 17.7721 127.036C17.3826 126.76 16.8118 127.145 16.9263 127.606C17.0078 128.6 17.0799 129.594 17.1789 130.584C17.3227 131.162 17.1386 131.95 17.601 132.382C17.8968 132.589 18.3368 132.434 18.4488 132.095C18.5291 131.755 18.3722 131.407 18.3604 131.064Z" fill="#8CA05C"/>
<path d="M31.5074 121.1C31.0336 120.891 30.5581 120.546 30.0371 120.505C29.4378 120.515 29.3294 121.425 29.9002 121.594C30.7411 121.89 30.8694 122.062 31.6019 122.354C31.8117 122.412 32.0476 122.301 32.1653 122.125C32.4909 121.609 31.9262 121.275 31.5074 121.1Z" fill="#8CA05C"/>
<path d="M33.2222 118.294C32.7647 117.853 31.9947 118.457 32.3011 119.007C32.7125 119.449 32.9639 120.52 33.7209 120.311C34.6575 119.832 33.6361 118.98 33.2222 118.294Z" fill="#8CA05C"/>
<path d="M37.318 116.504C37.1338 115.882 36.1361 116.027 36.1247 116.673C35.9287 118.397 35.5714 120.166 35.7152 121.898C35.8509 122.376 36.5598 122.45 36.8193 122.036C37.0149 121.702 36.8723 121.281 36.9207 120.911C36.9688 119.441 37.2956 117.954 37.318 116.504Z" fill="#8CA05C"/>
<path d="M55.2234 112.113C54.7683 111.456 54.3886 110.73 53.8957 110.106C53.4426 109.671 52.6795 110.269 52.9851 110.813C53.5384 111.617 54.0183 112.488 54.609 113.261C54.7174 113.368 54.8861 113.423 55.036 113.4C55.7718 113.322 55.6161 112.51 55.2234 112.113Z" fill="#8CA05C"/>
<path d="M57.4216 110.795C57.1939 110.328 57.0973 109.757 56.7637 109.357C56.318 108.927 55.5667 109.515 55.8686 110.052C56.2165 110.732 56.3909 111.535 56.8223 112.157C57.0998 112.43 57.6172 112.279 57.7284 111.915C57.8331 111.521 57.5267 111.164 57.4216 110.795Z" fill="#8CA05C"/>
<path d="M61.0893 108.01C60.5809 109.812 60.0541 111.608 59.5623 113.414C59.4511 113.719 59.6328 114.087 59.9477 114.187C60.5715 114.381 60.7935 113.73 60.8746 113.245C61.2971 111.741 61.7224 110.236 62.1473 108.732C62.6305 107.873 61.581 107.079 61.0893 108.01Z" fill="#8CA05C"/>
<path d="M78.5107 112.957C78.2773 112.134 78.1722 111.248 77.8572 110.457C77.5105 109.888 76.5637 110.296 76.7275 110.937C77.0436 111.791 76.9907 112.893 77.5627 113.6C77.9998 113.91 78.6391 113.474 78.5107 112.957Z" fill="#8CA05C"/>
<path d="M81.5981 111.273C81.6535 110.5 80.4272 110.43 80.393 111.204C80.3951 111.965 80.3376 112.751 80.446 113.501C80.5275 113.786 80.853 113.944 81.137 113.887C82.0369 113.589 81.4144 112.026 81.5981 111.273Z" fill="#8CA05C"/>
<path d="M85.6161 110.043C85.003 111.434 84.4566 112.85 83.9062 114.264C83.7718 114.63 84.057 115.041 84.446 115.058C84.7092 115.077 84.9736 114.899 85.0547 114.651C85.6055 113.237 86.1457 111.816 86.7577 110.427C87.0172 109.697 85.8552 109.306 85.6161 110.043Z" fill="#8CA05C"/>
<path d="M96.3125 114.564C96.3667 113.813 95.1758 113.745 95.1416 114.498C95.0141 115.557 94.9693 116.624 94.9126 117.691C94.8984 117.912 95.0271 118.151 95.2381 118.234C95.756 118.497 96.1593 117.948 96.0896 117.466C96.1568 116.498 96.1886 115.528 96.3125 114.564Z" fill="#8CA05C"/>
<path d="M99.0922 115.619C98.7406 115.199 97.9954 115.456 97.9812 116.002C97.9115 116.992 97.5355 117.998 97.5685 118.974C97.685 119.383 98.2606 119.517 98.565 119.229C98.9141 118.819 98.842 118.168 99.0567 117.322C99.0673 116.77 99.4552 116.105 99.0922 115.619Z" fill="#8CA05C"/>
<path d="M103.939 116.61C103.841 116.072 103.061 115.924 102.769 116.39C102.127 117.391 101.46 118.376 100.832 119.383C100.534 120.04 99.8528 120.636 99.8479 121.371C100.173 122.279 101.051 121.809 101.288 121.101C102.087 119.734 102.985 118.429 103.846 117.101C103.942 116.958 103.976 116.779 103.939 116.61Z" fill="#8CA05C"/>
<path d="M115.138 127.14C115.074 126.189 115.071 125.218 114.944 124.279C114.758 123.652 113.757 123.799 113.745 124.448C113.838 125.483 113.843 126.539 113.976 127.563C114.016 127.711 114.134 127.842 114.278 127.9C114.772 128.162 115.271 127.638 115.138 127.14Z" fill="#8CA05C"/>
<path d="M118.118 126.083C117.941 125.492 116.998 125.632 116.985 126.244C116.995 126.887 116.434 128.293 117.531 128.217C117.902 128.148 117.997 127.771 118.013 127.448C118.033 127 118.213 126.524 118.118 126.083Z" fill="#8CA05C"/>
<path d="M120.143 126.551C119.561 127.621 119.036 128.715 118.511 129.813C118.409 130.091 118.576 130.423 118.86 130.513C119.141 130.607 119.471 130.452 119.564 130.168C120.156 128.92 120.496 128.209 121.059 127.156C121.462 126.573 120.528 125.957 120.143 126.551Z" fill="#8CA05C"/>
<path d="M136.547 129.444C136.202 128.892 135.974 128.239 135.566 127.734C135.072 127.26 134.243 127.91 134.573 128.505C134.98 129.18 135.294 129.938 135.773 130.56C135.95 130.737 136.251 130.762 136.473 130.649C136.974 130.394 136.824 129.816 136.547 129.444Z" fill="#8CA05C"/>
<path d="M140.905 129.596C140.856 129.131 140.815 128.068 140.75 127.084C140.785 125.984 139.065 126.111 139.273 127.196C139.388 128.237 139.326 128.858 139.561 130.182C139.619 130.593 140.007 130.928 140.434 130.828C141.035 130.698 141.04 130.075 140.905 129.596Z" fill="#8CA05C"/>
<path d="M145.351 124.413C144.709 126.251 144.167 128.119 143.585 129.974C143.404 130.451 143.965 130.931 144.416 130.686C145.298 129.427 145.721 126.415 146.436 124.778C146.683 124.085 145.581 123.713 145.351 124.413Z" fill="#8CA05C"/>
<path d="M148.978 135.736C148.077 134.677 146.609 133.933 145.265 133.338C143.26 132.799 141.092 133.021 139.021 132.821C137.199 132.866 135.437 133.368 133.619 133.513C129.375 134.07 124.858 133.245 120.421 131.62C113.391 128.852 108.024 126.955 101.89 123.927C97.2534 122.358 94.7238 121.124 90.3417 119.522C87.6031 118.701 83.9768 117.718 81.8754 117.337C78.7489 116.845 75.5871 116.559 72.4573 116.057C63.8985 115.324 55.332 116.818 47.3574 119.277C37.1624 122.909 27.3337 129.812 19.4194 135.165C16.6433 136.762 15.0076 138.155 12.0018 139.487C10.9001 140.05 9.74309 140.551 8.61579 141.082C8.05561 141.227 7.49543 141.495 7.05909 141.856C7.04972 141.861 7.0379 141.865 7.02853 141.87C7.0155 141.883 7.0106 141.898 7.00001 141.911C6.63823 142.223 6.37261 142.591 6.27728 142.995C5.99657 143.323 5.90082 143.763 6.06012 144.159C6.28908 145.301 7.64413 145.787 8.6879 146.335C10.5229 147.501 12.3778 148.622 14.4617 149.442C16.1092 149.91 17.7731 150.391 19.4573 150.759C23.0942 151.069 26.7312 150.474 30.3518 150.282C33.0407 150.053 38.1659 150.138 41.6048 149.356C51.8543 147.353 61.989 144.801 72.4549 143.641C78.8435 143.04 84.1679 142.057 90.4538 142.872C94.1188 143.145 97.7899 144.544 101.905 145.253C104.786 145.882 107.555 146.828 110.407 147.539C113.067 148.146 115.772 148.592 118.448 149.143C123.794 150.022 129.317 149.904 134.598 148.941C138.066 148.298 141.943 148.315 144.926 146.533C146.616 144.988 148.126 143.207 149.193 141.291C150.358 139.56 149.963 137.495 148.978 135.736Z" fill="#8CA05C"/>
<path d="M116.422 139.153C116.512 139.174 116.674 139.208 116.874 139.244C116.795 139.226 116.729 139.212 116.667 139.198C116.586 139.183 116.502 139.168 116.422 139.153Z" fill="#FAF4D2"/>
<path d="M22.2522 143.338C21.2712 142.393 20.8996 142.253 19.9279 141.261C19.791 141.109 19.5926 141.012 19.3889 141.002C18.7175 140.941 18.2979 141.808 18.7603 142.293C19.9487 143.503 20.7179 143.929 21.6529 145.012C21.89 145.335 22.2958 145.617 22.7073 145.435C23.8806 144.895 22.8466 143.884 22.2522 143.338Z" fill="#677733"/>
<path d="M25.0412 139.76C24.4256 138.827 23.8381 137.876 23.2523 136.924C22.8265 136.063 21.4751 136.748 21.9233 137.596C22.6318 138.7 23.2796 139.868 24.0577 140.916C24.1934 141.052 24.4081 141.122 24.5979 141.093C25.2828 141.062 25.4706 140.213 25.0412 139.76Z" fill="#677733"/>
<path d="M29.0898 136.706C29.1029 136.498 29.0283 136.292 28.8906 136.137C28.4531 135.616 27.5225 135.936 27.5071 136.615C27.4602 137.983 27.4847 139.357 27.5095 140.726C27.4374 141.732 29.0344 141.824 29.0792 140.816C29.0581 139.447 29.0381 138.073 29.0898 136.706Z" fill="#677733"/>
<path d="M44.8502 125.508C44.343 124.879 43.89 124.142 43.2581 123.64C42.6425 123.296 41.9915 124.159 42.4775 124.662C43.0837 125.359 43.6577 126.083 44.1955 126.835C44.3112 126.963 44.4787 127.046 44.6522 127.054C45.6663 126.983 45.3774 126.015 44.8502 125.508Z" fill="#677733"/>
<path d="M48.4884 123.873C48.2998 123.326 48.2513 122.709 47.9967 122.193C47.6076 121.558 46.5508 122.014 46.7337 122.731C47.0437 123.533 47.2255 126.229 48.5626 125.004C48.8066 124.648 48.5744 124.243 48.4884 123.873Z" fill="#677733"/>
<path d="M53.057 120.77C53.1288 119.779 51.5545 119.69 51.5109 120.682C51.4095 121.934 51.3565 123.188 51.3068 124.441C51.2938 124.646 51.3671 124.851 51.5048 125.006C51.9355 125.52 52.8554 125.201 52.8709 124.531C52.9145 123.278 52.9625 122.022 53.057 120.77Z" fill="#677733"/>
<path d="M43.4952 139.211C43.1085 138.809 42.8242 138.261 42.3536 137.958C41.641 137.56 40.8841 138.558 41.4479 139.144C42.1295 139.724 42.9399 141.704 43.9502 140.602C44.3136 140.081 43.8231 139.598 43.4952 139.211Z" fill="#677733"/>
<path d="M48.3833 138.571C47.6476 136.598 46.9387 134.541 45.9951 132.679C45.4765 132.182 44.6046 132.864 44.9538 133.487C45.4081 134.664 46.3646 137.113 46.592 137.648C47.0259 138.563 46.8055 138.873 47.4048 139.597C48.0745 140.025 48.7573 139.213 48.3833 138.571Z" fill="#677733"/>
<path d="M51.6265 134.67C51.6937 133.745 50.2267 133.662 50.1855 134.588C50.287 135.805 49.7561 137.797 50.2043 138.797C52.0771 140.172 51.4424 135.652 51.6265 134.67Z" fill="#677733"/>
<path d="M68.1971 122.014C67.953 121.137 67.7204 120.255 67.5188 119.366C67.3493 118.519 66.0118 118.805 66.2065 119.648C66.4611 120.756 66.7345 121.862 67.0836 122.945C67.1378 123.194 67.3513 123.423 67.612 123.451C68.5259 123.572 68.4823 122.601 68.1971 122.014Z" fill="#677733"/>
<path d="M72.2651 122.347C72.3278 121.242 72.4089 120.139 72.4325 119.035C72.4961 118.167 71.1154 118.088 71.0775 118.958C71.0954 120.238 70.8286 121.541 70.9206 122.807C70.9667 122.974 71.1011 123.123 71.2616 123.188C71.8251 123.482 72.3498 122.902 72.2651 122.347Z" fill="#677733"/>
<path d="M76.1638 117.837C75.8196 118.808 75.5658 119.808 75.2818 120.798C75.2052 121.385 74.7958 122.008 75.0129 122.589C75.2134 123.002 75.8041 123.106 76.1427 122.8C76.5884 121.993 77.2145 119.184 77.56 118.013C77.5437 117.257 76.3798 117.117 76.1638 117.837Z" fill="#677733"/>
<path d="M61.8393 135.885C61.2437 135.25 60.877 134.005 60.0174 133.762C59.4205 133.706 59.0465 134.478 59.4584 134.909C60.4016 136.228 60.8253 136.825 61.6246 138.11C61.7896 138.447 62.239 138.591 62.5706 138.414C63.594 137.715 62.1799 136.623 61.8393 135.885Z" fill="#677733"/>
<path d="M66.4741 134.768C66.052 133.536 65.6743 132.269 65.1887 131.067C64.7996 130.424 63.7347 130.884 63.916 131.607C64.3665 132.997 64.8856 134.367 65.2734 135.776C65.381 136.379 66.2512 136.543 66.5767 136.022C66.8407 135.627 66.5706 135.176 66.4741 134.768Z" fill="#677733"/>
<path d="M69.1582 131.544C68.7797 132.822 68.4966 134.128 68.2065 135.427C67.9894 136.002 68.6628 136.579 69.2067 136.284C69.6573 136.051 69.6088 135.484 69.7359 135.058C69.9515 133.935 70.3369 132.829 70.5336 131.717C70.5198 130.971 69.3705 130.833 69.1582 131.544Z" fill="#677733"/>
<path d="M82.2975 135.217C82.104 133.966 81.9589 132.705 81.8212 131.446C81.7137 130.858 80.8659 130.699 80.5485 131.208C80.2926 131.745 80.5359 132.118 80.5652 133.009C80.7269 133.916 80.6666 134.917 80.9991 135.771C81.3975 136.425 82.4861 135.955 82.2975 135.217Z" fill="#677733"/>
<path d="M84.4474 132.329C83.8566 132.444 83.8481 133.09 83.78 133.566C83.7478 134.121 83.5474 134.714 83.6737 135.259C83.9059 136.041 85.1587 135.857 85.175 135.046C85.0984 134.177 85.9299 132.244 84.4474 132.329Z" fill="#677733"/>
<path d="M89.9843 132.962C88.7743 131.495 87.4299 135.271 86.8106 136.071C86.246 136.889 87.5562 137.753 88.0997 136.918C88.6729 135.741 89.5374 134.703 90.1045 133.543C90.1587 133.348 90.1114 133.119 89.9843 132.962Z" fill="#677733"/>
<path d="M85.2717 122.233C85.2008 121.975 84.9344 121.793 84.6692 121.778C84.03 121.748 83.88 122.402 83.9428 122.912C83.977 123.664 83.8462 124.445 83.9534 125.185C84.162 125.891 85.2884 125.725 85.3035 124.995C85.2917 124.079 85.3862 123.134 85.2717 122.233Z" fill="#677733"/>
<path d="M87.4417 122.774C86.9581 123.089 86.9133 123.763 86.6998 124.261C86.6195 124.601 86.4191 124.979 86.5971 125.32C86.8497 125.852 87.6987 125.789 87.8723 125.228C87.9713 124.573 88.3734 123.976 88.4418 123.333C88.4394 122.86 87.8523 122.55 87.4417 122.774Z" fill="#677733"/>
<path d="M92.8406 123.748C92.6035 123.033 91.6611 123.116 91.3051 123.691C90.4939 124.523 89.6787 125.355 88.8875 126.206C88.0654 126.908 89.2024 128.174 90.0022 127.447C90.916 126.402 91.9549 125.441 92.8051 124.356C92.9103 124.177 92.9233 123.936 92.8406 123.748Z" fill="#677733"/>
<path d="M99.4955 136.137C99.4438 135.583 99.3505 134.703 98.578 134.853C98.1217 134.949 97.9681 135.432 98.092 135.84C98.2688 136.978 98.3576 138.128 98.4517 139.277C98.611 140.113 98.3291 140.3 98.7218 141.161C99.0958 141.606 99.887 141.332 99.9033 140.753C99.7998 139.213 99.6805 137.672 99.4955 136.137Z" fill="#677733"/>
<path d="M104.167 136.982C103.773 136.598 103.042 136.807 102.883 137.323C102.446 138.446 102.113 139.611 101.943 140.803C101.93 141.02 102.009 141.242 102.155 141.403C102.614 141.95 103.593 141.611 103.611 140.898C103.715 140.076 103.959 139.089 104.406 137.835C104.509 137.542 104.424 137.173 104.167 136.982Z" fill="#677733"/>
<path d="M108.974 138.985C108.497 138.954 108.219 139.384 107.904 139.667C107.054 140.597 106.043 141.512 105.597 142.703C105.391 143.51 106.589 143.99 107.023 143.286C107.82 141.78 108.537 141.416 109.635 140.112C109.91 139.643 109.513 138.998 108.974 138.985Z" fill="#677733"/>
<path d="M102.046 127.701C101.925 127.266 101.312 127.122 100.986 127.429C100.495 128.121 100.876 129.247 100.831 130.069C100.769 130.939 102.147 131.017 102.184 130.147C102.09 129.338 102.163 128.5 102.046 127.701Z" fill="#677733"/>
<path d="M105.143 128.429C104.463 128.001 103.993 128.718 103.765 129.277C103.54 129.823 103.104 130.354 103.075 130.948C103.09 131.738 104.307 131.883 104.533 131.131C104.866 130.312 105.042 130.174 105.458 129.188C105.537 128.905 105.385 128.59 105.143 128.429Z" fill="#677733"/>
<path d="M108.603 131.015C108.64 130.543 108.168 130.152 107.707 130.254C107.12 130.56 106.661 131.136 106.221 131.669C106.11 131.769 106.012 131.883 105.935 132.006C105.919 132.025 105.904 132.045 105.889 132.062C105.88 132.076 105.88 132.093 105.873 132.109C105.826 132.194 105.785 132.278 105.76 132.36C105.599 132.982 106.403 133.446 106.89 133.066C106.951 133.036 107.011 133.004 107.066 132.95C107.536 132.292 108.379 131.799 108.603 131.015Z" fill="#677733"/>
<path d="M119.959 144.908C119.427 143.337 118.784 141.64 118.555 140.961C118.491 140.653 118.227 140.373 117.907 140.336C116.317 140.247 117.166 141.959 117.459 142.796C117.887 143.687 118.036 145.101 118.675 145.779C119.266 146.199 120.135 145.612 119.959 144.908Z" fill="#677733"/>
<path d="M123.09 144.95C122.873 143.917 122.683 142.877 122.612 141.823C122.485 141.135 121.497 140.952 121.127 141.544C120.85 142.19 121.056 142.004 121.052 142.816C121.18 143.735 121.222 144.737 121.582 145.592C122.044 146.353 123.31 145.808 123.09 144.95Z" fill="#677733"/>
<path d="M128.187 142.105C127.297 141.108 126.653 142.283 126.33 143.089C125.729 144.319 125.614 144.571 125.032 145.734C124.373 146.778 126.101 147.625 126.529 146.463C126.979 145.561 128.105 143.191 128.2 143.02C128.378 142.753 128.393 142.36 128.187 142.105Z" fill="#677733"/>
<path d="M139.031 143.852C138.69 143.425 137.909 142.067 137.351 141.046C137.208 140.769 136.885 140.569 136.57 140.617C134.704 140.955 137.051 143.537 137.46 144.436C138.031 145.81 139.821 145.103 139.031 143.852Z" fill="#677733"/>
<path d="M141.294 142.644C141.16 141.66 141.031 140.675 140.934 139.688C140.876 139.421 140.647 139.177 140.367 139.144C139.38 138.991 139.493 140.128 139.6 140.773C139.742 141.57 139.675 142.457 139.979 143.202C140.383 143.863 141.481 143.389 141.294 142.644Z" fill="#677733"/>
<path d="M143.661 139.967C143.226 140.921 142.886 141.915 142.513 142.894C142.445 143.101 142.461 143.334 142.562 143.529C142.863 144.165 143.877 144.091 144.083 143.419C144.384 142.609 144.668 141.792 144.991 140.988C145.813 139.837 144.342 138.693 143.661 139.967Z" fill="#677733"/>
</g>
</svg>
