<svg width="439" height="783" viewBox="0 0 439 783" fill="none" xmlns="http://www.w3.org/2000/svg">
<mask id="mask0_1_353" style="mask-type:luminance" maskUnits="userSpaceOnUse" x="0" y="0" width="440" height="783">
<path d="M0 0H440V782.222H0V0Z" fill="white"/>
</mask>
<g mask="url(#mask0_1_353)">
<path d="M130.636 364.779C130.452 364.145 129.723 362.691 129.541 362.635C129.344 362.226 129.018 361.885 128.374 361.718C128.28 361.656 128.167 361.638 128.059 361.67C127.679 361.695 127.161 361.833 127.025 362.153C122.366 364.391 117.595 366.824 114.435 370.911C111.491 375.059 108.96 379.559 107.429 384.382C107.038 385.751 106.436 387.201 106.521 388.309C106.827 389.007 107.564 388.555 108.037 388.3C108.791 387.878 109.59 387.545 110.361 387.158C112.705 386.082 114.628 385.834 116.997 384.834C119.4 383.813 121.188 382.411 122.744 381.261C124.805 379.599 126.277 378.116 127.587 375.945C128.482 374.404 129.522 372.915 130.031 371.198C130.298 370.095 130.862 369.082 131.104 367.976C131.23 366.901 130.96 365.805 130.636 364.779Z" fill="#FDCC7D"/>
<path d="M127.756 362.8C127.75 362.803 127.744 362.805 127.738 362.808C127.737 362.809 127.736 362.809 127.736 362.81C127.729 362.813 127.718 362.817 127.712 362.821C127.732 362.826 127.745 362.817 127.756 362.8Z" fill="#FDCC7D"/>
<path d="M143.198 373.848C143.13 372.215 142.721 370.457 142.008 368.974C141.69 368.386 141.134 367.888 140.472 367.69C140.023 367.546 139.578 367.738 139.609 367.703C139.539 367.7 139.475 367.72 139.409 367.743C139.425 367.741 139.439 367.74 139.453 367.74C139.437 367.742 139.42 367.743 139.404 367.746C139.361 367.761 139.318 367.778 139.277 367.793C139.3 367.77 139.335 367.758 139.368 367.75C139.244 367.769 139.141 367.808 139.058 367.86C139.013 367.869 138.971 367.886 138.925 367.899C138.678 367.862 138.425 367.865 138.187 367.921C136.674 368.022 135.387 368.841 134.267 369.765C132.655 371.027 131.381 372.58 130.347 374.281C128.558 376.867 127.297 379.875 126.45 382.752C125.596 385.484 125.672 388.384 125.698 391.211C125.848 393.05 125.653 394.789 126.319 396.868C126.759 397.839 127.687 397.957 128.227 396.974C128.245 396.848 129.275 396.057 129.783 395.637C133.468 392.761 137.138 389.712 139.675 385.797C141.892 382.217 143.514 378.081 143.198 373.848Z" fill="#FDCC7D"/>
<path d="M139.409 367.743C139.394 367.744 139.383 367.746 139.369 367.75C139.38 367.748 139.392 367.746 139.404 367.744C139.406 367.744 139.409 367.743 139.409 367.743Z" fill="#FDCC7D"/>
<path d="M160.047 403.975C159.829 402.644 159.674 401.522 159.665 399.893C159.695 395.07 159.487 390.236 158.77 385.456C158.64 384.573 158.658 383.673 158.376 382.443C158.033 380.852 157.394 379.336 156.883 377.789C156.568 376.987 156.26 376.124 155.905 375.28C155.484 373.556 154.851 371.808 153.352 370.734C153.35 370.726 153.338 370.712 153.287 370.671C152.963 370.277 152.527 369.936 152.003 369.84C150.737 369.383 149.695 370.153 149.039 371.143C148.862 371.137 148.688 371.203 148.582 371.374C147.29 373.592 146.042 375.922 145.644 378.465C145.287 380.143 145.705 382.518 145.836 383.637C146.247 386.682 147.118 389.71 148.371 392.536C149.735 395.119 151.387 397.555 153.157 399.897C153.79 400.759 154.436 401.611 155.101 402.451C155.535 403.063 155.984 403.664 156.526 404.19C156.547 404.215 156.575 404.231 156.6 404.256C157.165 404.901 157.744 405.534 158.362 406.137C158.713 406.519 159.253 406.793 159.777 406.59C160.793 406.156 160.058 404.781 160.047 403.975Z" fill="#FDCC7D"/>
<path d="M176.582 392.476C175.777 390.19 175.177 387.853 174.8 385.468C173.811 381.212 172.99 376.788 170.778 372.928C169.743 371.15 168.497 369.355 166.674 368.254C166.123 367.84 165.503 367.427 164.777 367.443C162.62 367.606 160.708 369.389 160.094 371.337C160.078 371.403 160.075 371.464 160.059 371.529C157.349 377.113 163.41 383.626 167.017 388.035C168.295 389.765 169.842 391.277 171.7 392.429C172.439 393.039 173.229 393.566 174.051 394.057C174.863 394.57 174.946 394.782 175.877 395.309C176.246 395.573 177.148 395.978 177.37 395.006C177.264 394.139 176.829 393.318 176.582 392.476Z" fill="#FDCC7D"/>
<path d="M130.329 350.603C130.334 350.393 130.247 350.184 130.04 350.06C128.565 348.733 126.751 347.856 124.937 347.038C123 346.153 120.932 345.544 118.774 345.635C116.077 345.359 113.43 345.918 110.824 346.511C106.903 347.353 102.807 348.747 99.4438 349.654C97.282 350.67 100.452 351.751 101.351 352.294C103.534 353.322 104.907 354.062 107.174 354.967C109.416 355.873 111.76 356.487 114.104 357.085C117.196 358.065 120.345 358.856 123.62 358.835C125.708 359.103 127.805 358.661 129.514 357.459C130.094 357.111 130.707 356.779 131.113 356.229C131.619 355.512 131.843 354.63 131.955 353.777C131.988 352.503 131.357 351.455 130.329 350.603Z" fill="#FDCC7D"/>
<path d="M107.265 364.126C107.228 364.121 107.188 364.116 107.151 364.115C108.893 364.209 110.638 364.216 112.381 364.087C113.214 364.004 114.046 363.898 114.876 363.785C114.635 363.86 114.352 363.932 113.948 364.015C111.592 364.228 109.823 364.477 107.265 364.126ZM116.435 361.082C115.82 360.767 115.135 360.565 114.462 360.416C113.117 360.119 111.767 359.848 110.38 359.872C110.204 359.866 110.032 359.863 109.857 359.858C109.644 359.84 109.43 359.807 109.217 359.793C106.627 359.624 104.054 360.277 101.63 361.093C100.859 361.423 98.6928 362.047 98.1632 362.361C97.8507 362.495 97.4853 362.664 97.4804 363.046C97.5509 364.028 98.9568 363.894 99.6914 364.098C100.866 364.257 102.327 364.556 103.904 364.925C106.823 365.502 109.835 365.796 112.794 365.398C114.007 365.391 115.381 365.026 116.02 364.749C116.69 364.459 117.414 364.234 117.998 363.795C119.653 362.324 118.13 361.511 116.435 361.082Z" fill="#FDCC7D"/>
<path d="M143.56 390.806C141.945 388.235 140.673 393.163 140.14 394.234C140.107 394.313 140.077 394.392 140.043 394.473C139.157 396.156 138.269 397.85 137.782 399.689C137.258 402.112 136.935 404.716 137.797 407.106C137.953 407.587 138.273 408.051 138.927 407.643C139.436 406.977 139.703 406.159 140.071 405.415C141.202 402.967 141.923 401.388 142.776 399.14C143.217 397.881 143.733 396.64 143.848 395.305C143.952 393.575 143.922 392.199 143.56 390.806Z" fill="#FDCC7D"/>
<path d="M170.8 398.074C170.377 397.265 169.894 396.605 169.295 395.886C169.027 395.447 168.418 394.704 168.569 394.916C168.355 394.556 168.112 394.211 167.761 393.961C167.647 393.883 167.545 393.831 167.441 393.768C167.204 393.407 166.954 393.04 166.536 392.857C166.103 392.546 165.433 392.771 165.407 393.317C165.405 393.343 165.419 393.359 165.42 393.383C165.192 393.798 165.056 394.335 165.057 394.663C165.073 396.139 165.084 397.606 165.32 399.068C165.596 400.208 165.872 400.716 166.099 401.43C166.393 402.477 168.025 405.953 169.207 407.15C169.295 407.244 169.411 407.31 169.53 407.364C169.538 407.371 169.54 407.378 169.548 407.386C169.976 407.87 170.791 407.589 170.878 406.979C171.104 405.757 171.177 404.515 171.266 403.279C171.452 401.534 171.576 399.72 170.8 398.074Z" fill="#FDCC7D"/>
<path d="M105.748 370.463C105.747 370.463 105.746 370.464 105.745 370.465C105.666 370.439 105.581 370.427 105.486 370.45C103.687 370.884 101.753 371.235 100.311 372.435C97.7482 374.794 97.0878 376.878 95.4142 379.713C95.3188 379.897 95.2304 380.087 95.2043 380.292C95.1738 380.671 95.571 380.956 95.9438 380.87C96.2681 380.758 96.5545 380.556 96.8788 380.433C97.7682 380.068 98.0371 379.939 99.3106 379.593C101.266 379.02 102.735 377.764 104.057 376.015C105.385 374.369 106.101 373.139 106.492 371.314C106.6 370.882 106.256 370.331 105.748 370.463Z" fill="#FDCC7D"/>
<path d="M95.4139 379.714C95.4033 379.733 95.3952 379.747 95.3859 379.764C95.332 379.885 95.3798 379.778 95.4139 379.714Z" fill="#FDCC7D"/>
<path d="M137.053 334.989C136.855 334.711 136.643 334.43 136.422 334.145C136.077 333.457 135.681 332.799 135.212 332.186C135.972 333.058 136.603 333.986 137.053 334.989ZM130.398 328.234C132.019 329.254 133.491 330.376 134.695 331.622C133.376 330.409 131.938 329.305 130.398 328.234ZM138.984 338.228C138.733 331.089 129.975 326.19 124.385 323.701C122.495 322.72 120.52 321.926 118.582 321.039C117.189 320.442 116.309 319.825 114.597 319.362C114.215 319.279 113.854 319.019 113.456 319.083C112.748 319.203 112.781 320.038 113.185 320.469C114.026 321.494 114.86 323.133 115.664 324.694C117.172 327.939 118.322 331.869 120.604 335.258C121.443 336.738 122.726 337.909 123.863 339.171C125.18 340.806 127.601 342.74 129.068 343.205C131.271 344.253 133.745 345.659 136.259 344.885C137.742 344.245 138.969 342.884 139.367 341.357C139.584 340.378 139.367 339.245 138.984 338.228Z" fill="#FDCC7D"/>
<path d="M119.017 340.954C119.042 339.986 118.708 339.102 118.194 338.286C116.955 334.133 114.403 333.15 109.941 331.007C108.594 330.352 105.775 329.063 103.907 328.26C103.306 327.999 102.666 327.839 102.034 327.662C101.779 327.573 101.485 327.501 101.229 327.626C100.41 328.168 101.441 328.978 101.942 329.349C102.59 329.871 103.206 330.362 103.988 331.133C107.172 334.453 110.18 338.828 113.391 341.461C114.125 341.945 114.986 342.326 115.877 342.5C116.049 342.59 116.22 342.681 116.398 342.761C117.067 342.963 117.848 342.656 118.227 342.102C118.621 341.814 118.928 341.43 119.017 340.954Z" fill="#FDCC7D"/>
<path d="M203.324 384.988C202.987 383.585 200.697 381.806 199.461 380.281C196.207 375.452 190.588 371.004 186.242 367.346C183.25 365.334 180.846 362.18 176.708 361.559C175.865 361.428 175.012 361.49 174.192 361.699C173.674 361.777 173.134 361.936 172.768 362.318C172.321 362.76 172.245 363.433 172.28 364.022C172.317 364.287 172.455 364.518 172.607 364.739C173.507 367.74 174.964 370.645 176.926 373.126C178.497 374.862 180.486 376.204 182.414 377.542C187.402 381.181 192.899 382.559 198.853 384.607C199.842 384.811 203.591 387.012 203.324 384.988Z" fill="#FDCC7D"/>
<path d="M191.644 395.961C190.463 392.689 188.278 388.769 186.201 386.562C185.21 385.164 183.979 383.915 182.55 382.931C181.822 382.38 180.844 381.837 179.933 381.684C179.474 381.771 179.299 382.003 179.322 382.322C179.151 382.409 179.034 382.58 179.091 382.817C180.106 386.636 182.12 390.094 184.979 392.916C186.219 394.246 188.755 395.474 189.899 396.04C190.279 396.207 190.603 396.52 191.018 396.595C191.386 396.648 191.735 396.321 191.644 395.961Z" fill="#FDCC7D"/>
<path d="M197.779 365.235C195.568 363.516 193.353 361.79 191.055 360.181C189.864 359.431 188.469 359.089 187.138 358.648C186.209 358.54 183.687 357.824 183.739 359.309C184.216 360.252 184.971 361.018 185.853 361.68C188.294 364.257 191.232 366.582 194.946 366.742C196.136 366.806 197.3 367.06 198.484 367.17C198.616 367.189 198.349 367.145 198.421 367.157C198.625 367.213 198.85 367.186 199.014 367.051C199.744 366.292 198.297 365.641 197.779 365.235Z" fill="#FDCC7D"/>
<path d="M206.441 346.645C203.756 346.112 201.792 345.953 199.279 345.7C194.557 345.16 190.604 344.047 185.721 344.003C182.164 344.073 178.45 344.464 175.15 345.788C173.47 346.633 171.982 347.784 170.459 348.864C170.358 348.951 170.295 349.077 170.288 349.207C170.278 349.352 170.336 349.476 170.432 349.568C170.116 349.914 169.88 350.322 169.897 350.794C169.899 351.492 170.321 352.121 170.528 352.778C170.819 353.602 171.325 354.345 172.08 354.84C172.765 355.289 173.584 355.425 174.392 355.529C176.692 355.779 178.094 355.587 180.354 355.275C184.011 354.748 187.576 353.75 191.172 352.926C195.232 351.931 199.133 350.419 203.167 349.346C204.643 348.841 206.674 348.766 207.93 347.96C208.746 346.918 207.196 346.766 206.441 346.645Z" fill="#FDCC7D"/>
<path d="M189.669 319.001C189.545 318.984 189.386 319.076 189.225 319.202C189.101 319.257 188.971 319.299 188.844 319.349C188.628 319.428 188.419 319.516 188.206 319.599C187.998 319.533 187.754 319.549 187.55 319.696C187.155 319.871 186.793 320.092 186.446 320.33C183.48 321.633 180.649 323.198 177.762 324.659C175.929 325.734 173.976 326.612 172.197 327.766C171.41 328.303 170.666 328.895 169.942 329.509C165.425 332.683 161.648 336.846 163.584 341.759C163.799 342.064 163.89 342.514 164.288 342.646C164.304 342.653 164.322 342.652 164.34 342.656C164.532 343.06 164.784 343.414 165.184 343.628C167.746 344.298 170.237 342.537 172.375 340.278C172.424 340.243 172.472 340.205 172.52 340.169C174.43 338.814 176.109 337.191 177.646 335.455C180.252 332.107 182.911 328.803 185.628 325.535C187.009 323.696 189.48 320.765 190 320.229V320.228C190.046 320.199 190.098 320.179 190.145 320.148C190.63 319.771 190.311 318.923 189.669 319.001Z" fill="#FDCC7D"/>
<path d="M160.607 313.078C160.62 313.029 160.64 312.984 160.652 312.933C160.717 312.371 159.966 311.996 159.534 312.388C159.459 312.555 159.402 312.737 159.346 312.917C159.336 312.924 159.316 312.919 159.308 312.927L159.304 312.925C159.306 312.907 159.313 312.872 159.319 312.836C159.337 312.804 159.355 312.768 159.362 312.755C159.35 312.77 159.341 312.784 159.33 312.799C159.336 312.773 159.335 312.775 159.326 312.803C159.298 312.836 159.276 312.87 159.25 312.902C159.082 312.859 158.875 312.887 158.613 313.008C158.066 313.688 157.981 313.81 157.302 314.425C153.005 317.983 148.766 323.311 146.471 327.922C145.765 329.274 145.533 330.931 145.904 332.41C146.224 333.362 146.678 334.265 147.144 335.162C147.276 335.645 147.428 336.118 147.782 336.495C147.816 336.525 147.852 336.548 147.884 336.577C147.997 336.787 148.132 336.976 148.37 337.061C148.442 337.087 148.515 337.097 148.585 337.096C151.445 338.899 154.201 336.671 155.745 333.963C156.697 332.399 157.57 329.159 157.902 327.216C158.436 325.13 158.919 323.028 159.218 320.899C160.134 318.477 160.193 315.827 160.572 313.284C160.579 313.249 160.582 313.231 160.586 313.209C160.593 313.182 160.605 313.144 160.617 313.08C160.614 313.08 160.61 313.078 160.607 313.078Z" fill="#FDCC7D"/>
<path d="M164.464 329.571C164.457 329.575 164.45 329.578 164.444 329.583C164.434 329.589 164.427 329.595 164.417 329.601C164.427 329.594 164.444 329.583 164.464 329.571Z" fill="#FDCC7D"/>
<path d="M172.539 317.374C172.209 317.405 171.148 318.16 171.301 318.075C169.411 319.197 167.457 320.334 165.998 321.971C164.483 324.068 163.568 326.591 162.872 329.034C162.88 329.366 163.22 329.52 163.501 329.459C163.729 329.718 164.138 329.793 164.443 329.584C164.511 329.541 164.574 329.496 164.641 329.451C164.646 329.449 164.671 329.436 164.724 329.402C164.844 329.342 164.969 329.292 165.086 329.228C165.726 328.867 166.208 328.321 166.723 327.816C167.854 326.721 168.405 326.034 169.338 324.894C170.778 322.918 171.75 320.454 172.706 318.725C172.846 318.482 173.016 318.253 173.107 317.986C173.233 317.657 172.896 317.288 172.539 317.374Z" fill="#FDCC7D"/>
<path d="M164.464 329.571C164.479 329.56 164.496 329.554 164.51 329.54C164.557 329.509 164.507 329.542 164.464 329.571Z" fill="#FDCC7D"/>
<path d="M141.886 326.101C142.049 325.875 142.149 325.605 142.144 325.304C142.14 325.027 142.106 324.752 142.091 324.474C142.358 322.005 142.349 319.475 141.936 317.042C140.983 314.318 138.892 311.434 137.398 309.604C136.326 309.016 135.872 310.08 136.145 310.969C136.294 311.78 136.231 311.867 136.325 313.051C136.526 314.876 136.518 316.703 136.402 318.529C136.561 320.015 136.722 320.708 136.915 322.033C137.269 323.729 137.933 325.696 139.544 326.646C140.11 326.955 140.842 326.868 141.39 326.533C141.623 326.493 141.831 326.336 141.886 326.101Z" fill="#FDCC7D"/>
<path d="M149.898 330.878C149.788 330.85 149.844 330.864 149.898 330.878V330.878Z" fill="#E1AA54"/>
<path d="M180.02 353.76C179.423 351.923 178.995 350.032 178.075 348.307C177.056 346.252 175.767 345.324 174.663 343.448C174.211 342.719 173.565 342.134 173.004 341.484C172.261 340.486 171.482 339.515 170.484 338.737C169.368 337.87 168.247 336.999 167.047 336.239C165.975 335.593 164.797 335.12 163.759 334.419C161.259 332.953 157.756 332.011 154.469 331.221C153.753 331.09 152.652 331.147 152.48 331.076C151.331 330.902 150.751 330.992 149.9 330.877C149.959 330.892 150.017 330.907 149.874 330.874C149.785 330.857 149.693 330.839 149.602 330.824C149.302 330.807 149.002 330.844 148.702 330.794C148.581 330.77 148.254 330.707 148.143 330.679C148.042 330.648 147.779 330.689 147.686 330.713C147.625 330.715 147.565 330.719 147.505 330.714C146.395 330.741 146.071 331.018 144.894 331.299C144.628 331.466 144.209 331.559 143.837 331.69C141.438 332.129 139.073 332.769 137.06 334.116C135.604 335.108 134.474 336.483 133.21 337.687C129.103 341.775 126.41 346.074 124.818 351.495C123.915 355.395 123.536 359.58 124.762 363.462C125.321 365.696 126.271 367.839 127.837 369.602C129.844 371.085 131.051 372.429 133.114 374.06C134.276 374.939 135.534 375.668 136.79 376.411C137.675 376.983 138.528 377.621 139.541 377.97C141.599 378.72 143.779 379.244 145.977 379.358C148.153 379.233 149.471 379.351 151.477 378.993C156.445 378.33 161.199 376.849 165.801 374.96C168.336 374.103 171.282 371.983 173.66 370.279C176.803 367.524 178.425 363.546 179.651 359.704C180.352 357.809 180.219 355.732 180.02 353.76Z" fill="#E1AA54"/>
<path d="M170.666 353.436C170.186 349.73 169.21 345.799 166.037 343.438C164.204 341.916 162.639 341.787 160.786 340.436C158.938 339.005 156.892 337.897 154.635 337.256C151.819 336.158 148.688 335.956 145.763 336.707C143.407 336.78 141.444 338.316 139.584 339.435C138.09 340.409 136.779 340.594 135.249 341.699C133.246 343.409 131.52 345.542 130.387 347.911C129.62 349.827 129.199 351.924 129.143 353.973C129.284 354.417 129.98 354.311 129.996 353.851C130.221 351.66 130.453 349.982 131.384 347.906C132.091 346.501 133.527 344.843 134.249 343.96C135.855 342.021 137.541 341.632 139.635 340.547C140.775 339.868 142.915 338.632 143.623 338.371C145.258 337.902 146.572 337.928 148.485 337.604C148.961 337.488 152.004 337.933 152.438 338.034C153.995 338.548 156.259 339.293 157.145 339.789C158.531 340.505 159.697 341.567 161.061 342.317C162.267 343.079 163.407 343.396 164.235 343.932C165.226 344.515 166.647 345.882 167.203 346.858C168.963 349.929 169.445 353.798 169.306 357.466C169.461 360.919 167.901 363.63 165.688 365.796C165.275 366.168 164.873 366.552 164.436 366.897C164.247 367.048 164.057 367.198 163.876 367.361C163.866 367.37 163.854 367.378 163.843 367.386C162.55 368.138 161.105 368.596 159.787 369.298C159.05 369.681 159.019 369.67 158.142 369.801C156.732 370.123 156.414 370.334 154.641 370.796C152.949 371.399 152.864 371.828 151.438 371.757C150.148 371.745 148.89 371.344 147.603 371.217C146.134 370.938 144.723 370.928 143.777 370.536C142.116 369.886 141.356 369.615 140.312 368.376C139.361 366.68 138.425 363.98 137.914 361.411C137.521 359.024 137.457 354.655 138.575 352.528C139.992 349.925 142.424 348.219 144.958 347.505C146.729 347.269 147.768 346.593 149.278 346.352C149.947 346.425 152.996 346.53 153.722 346.816C153.926 346.922 154.82 347.467 155.154 347.865C155.719 348.574 157.404 349.743 157.67 349.905C158.19 350.301 158.428 351.278 158.936 352.143C159.679 353.643 159.742 355.815 159.306 358.014C159.213 358.946 158.487 360.214 157.578 361.508C157.164 362.029 155.428 363.472 154.744 363.762C153.803 364.208 153.011 364.132 151.647 364.249C150.849 364.366 150.835 364.39 149.96 364.285C148.501 364.067 146.912 363.308 146.483 362.875C145.087 361.529 144.591 358.456 145.234 357.079C146.345 355.264 147.992 354.071 149.912 354.264C150.838 354.437 151.865 355.664 151.537 357.316C151.436 358.249 150.885 358.852 150.158 359.087C150.122 359.092 150.101 359.093 150.081 359.097C150.039 359.099 149.999 359.099 149.959 359.095C149.973 359.098 149.977 359.098 149.988 359.098C149.868 359.087 149.667 359.08 149.594 359.152C148.935 359.481 149.324 360.462 150.03 360.348C152.798 360.033 153.445 355.96 151.719 354.173C150.436 352.807 148.827 353.084 147.394 353.593C145.668 354.517 144.004 356.091 143.79 358.115C143.394 360.203 144.134 362.481 145.629 363.997C147.399 365.299 149.81 365.907 151.985 365.466C152.507 365.409 154.309 365.383 155.29 364.818C156.625 364.01 157.933 363.01 158.826 361.723C161.067 358.553 161.482 354.088 159.534 350.675C158.923 348.778 157.023 348.303 156.079 347.098C155.442 346.431 154.653 345.874 153.781 345.56C152.543 345.33 151.271 345.365 150.023 345.187C148.312 345.005 147.223 345.826 145.88 346.101C142.484 346.628 139.348 348.802 137.66 351.758C136.668 353.783 136.393 356.141 136.423 358.371C136.605 361.188 137.016 364.167 138.313 367.109C138.656 367.742 138.864 368.444 139.235 369.061C139.862 369.981 140.777 370.71 141.748 371.247C144.116 372.462 146.808 372.463 149.383 372.934C150.797 373.248 151.909 373.227 152.918 373.067C153.732 372.835 154.868 372.117 155.159 372.103C156.619 371.736 157.563 371.16 159.308 370.912C160.89 370.245 162.429 369.452 163.994 368.732C166.296 367.231 168.223 365.037 169.503 362.625C171.005 359.83 170.811 356.511 170.666 353.436Z" fill="#FDCC7D"/>
<path d="M89.4139 424.58C88.9303 425.234 89.303 426.262 90.2075 426.098C90.5224 426.033 90.7689 425.77 90.8394 425.462V425.46C90.8325 425.498 90.83 425.516 90.8504 425.441C90.9103 425.325 90.9681 425.209 91.0378 425.097C91.0814 425.017 91.1861 424.882 91.2549 424.796C91.3254 424.716 91.4012 424.639 91.4847 424.572C91.7206 424.419 92.1121 424.293 92.5224 424.577C92.5248 424.582 92.5285 424.584 92.5305 424.589C92.5733 424.677 92.5994 424.73 92.6169 424.763C92.6226 424.783 92.6275 424.795 92.6381 424.826C92.6556 424.897 92.6662 424.967 92.6768 425.037C92.6756 425.072 92.6723 425.109 92.6674 425.142C92.5285 425.865 91.2488 427.794 91.0671 428.014C89.5756 429.799 86.6366 430.684 85.5231 430.429C84.1599 430.247 83.1223 427.788 82.9512 426.631C82.8179 425.895 83.766 423.324 83.9501 422.881C84.6672 421.601 85.7191 420.541 86.6366 419.406C88.1839 417.494 90.0836 415.606 90.2702 413.026C90.3252 412.339 90.4919 411.655 90.3762 410.966C90.1863 410.13 89.6958 409.364 89.0672 408.781C87.9916 407.644 85.6718 407.274 84.8309 407.514C83.2803 407.442 80.899 408.574 80.635 410.939C80.4745 412.092 80.081 413.463 80.5487 414.56C80.9288 415.014 81.7318 414.732 81.7469 414.145C81.5819 410.906 82.4395 408.914 84.6056 408.909C86.476 408.575 88.5021 409.68 88.8867 411.09C89.013 411.709 88.7946 413.133 88.5799 413.888C87.7227 416.639 84.4264 419.099 82.6766 422.017C82.043 423.392 81.5016 424.877 81.3545 426.391C81.346 427.538 81.8483 428.63 82.3299 429.649C84.0312 433.191 87.9741 432.315 90.7029 430.535C92.4719 429.358 93.6994 427.4 94.315 425.406C94.6454 422.201 90.5106 421.874 89.4139 424.58Z" fill="white"/>
<path d="M98.8944 387.826C95.88 386.847 92.5331 386.553 89.3997 387.082C87.1671 387.72 85.5481 389.614 84.0717 391.293C83.2332 392.324 82.4465 393.433 81.9368 394.655C81.8933 394.807 81.9332 394.983 82.0301 395.105C82.2436 395.456 82.8095 395.445 83.0254 395.101C84.7117 392.031 87.2274 388.88 90.0341 388.252C94.34 387.899 99.4191 388.491 100.761 391.388C102.069 393.621 101.958 395.511 101.584 398.494C101.235 400.697 99.9732 402.157 97.0863 402.452C95.1784 403.003 93.3443 402.973 92.6676 402.602C90.1946 401.387 90.2382 399.246 91.066 397.515C91.7289 396.421 92.7266 396.193 94.111 396.611C94.7702 396.854 94.9564 396.959 95.1703 397.15C95.1735 397.155 95.1772 397.163 95.1817 397.168C95.1923 397.263 95.1947 397.267 95.1935 397.245C95.2065 397.448 95.2464 397.647 95.3927 397.8C95.7418 398.206 96.434 398.151 96.7233 397.707C97.4754 395.694 94.5555 394.791 93.0094 394.736C89.1907 394.67 87.665 399.957 89.9269 402.562C91.8136 404.802 94.7241 404.87 97.3552 404.098C98.511 403.887 99.6961 403.654 100.706 403.025C101.597 402.421 102.238 401.483 102.725 400.54C104.221 396.227 103.852 389.671 98.8944 387.826Z" fill="white"/>
<path d="M126.144 408.03C126.016 404.818 126.188 400.661 122.955 398.845C120.184 397.591 116.608 397.017 114.23 397.478C111.668 398.121 109.668 400.088 107.945 401.984C106.609 403.469 106.12 405.481 105.631 407.364C105.125 409.811 104.456 412.264 104.621 414.786C104.713 416.72 105.032 419.237 105.588 420.526C105.682 420.873 105.863 421.24 106.271 421.256C106.689 421.289 107.047 420.874 106.95 420.469C105.076 415.447 106.039 408.411 108.535 403.568C110.832 400.816 113.605 398.272 117.344 399.01C119.898 399.41 122.871 399.905 123.616 401.91C124.389 403.471 124.366 405.044 124.437 407.082C124.613 409.93 124.345 412.232 122.958 413.474C120.517 415.717 115.151 415.075 114.394 412.652C114.22 411.78 114.261 411.066 114.528 410.222C115.405 409.338 115.636 409.094 115.675 409.044C115.729 409.003 115.779 408.965 115.839 408.92C118.136 407.559 120.032 407.5 120.859 409.332C120.958 409.539 121.02 409.832 121.023 410.011C121.002 410.293 121.023 410.594 121.231 410.808C121.577 411.216 122.268 411.16 122.557 410.717C122.936 409.904 122.541 408.913 122.153 408.167C120.175 404.871 115.329 406.47 113.34 408.951C112.51 410.118 112.492 411.747 112.779 413.103C114.325 417.028 119.972 417.348 123.191 415.342C125.758 413.919 126.244 410.698 126.144 408.03Z" fill="white"/>
<path d="M154.146 406.971C150.747 403.261 145.248 407.261 142.449 409.903C142.084 410.51 141.203 410.98 141.244 411.734C141.348 412.294 142.153 412.446 142.457 411.962C144.599 409.049 149.753 406.121 151.942 407.169C153.226 408.091 154.702 409.982 154.935 411.396C155.597 413.71 153.332 415.948 151.241 415.944C149.501 415.839 149.405 414.855 150.376 413.814C150.489 413.744 150.614 413.685 150.74 413.638C150.904 413.607 151.22 413.537 151.371 413.501C151.686 413.49 152.024 413.517 152.268 413.281C152.676 412.936 152.618 412.252 152.173 411.963C151.584 411.665 150.836 411.895 150.229 412.057C149.377 412.303 148.686 412.977 148.366 413.794C147.389 416.041 149.23 417.734 151.471 417.605C153.912 417.421 156.244 415.541 156.619 413.089C157.034 410.726 155.705 408.624 154.146 406.971Z" fill="white"/>
<path d="M177.728 405.343C175.091 406.074 172.952 407.888 171.113 409.83C169.564 411.511 168.07 413.276 166.96 415.277C166.796 415.519 166.788 415.875 166.973 416.108C167.239 416.546 167.943 416.529 168.211 416.102C171.993 409.694 178.909 403.468 185.007 408.126C188.859 410.742 191.047 417.683 188.848 421.393C187.105 424.247 185.077 425.77 181.952 425.417C181.401 425.214 178.998 424.9 178.66 424.639C176.569 423.264 176.08 422.518 176.588 419.805C176.76 418.463 178.463 416.987 180.396 417.194C181.14 417.23 182.084 417.493 182.496 417.727C182.527 417.759 182.558 417.792 182.586 417.827C182.676 417.972 182.76 418.126 182.827 418.283C183.018 418.71 182.922 419.057 182.981 420.138C183.361 421.133 184.722 420.665 184.646 419.668C184.769 418.184 184.198 416.337 182.573 415.951C179.654 414.791 175.699 416.03 174.988 419.319C174.651 420.89 174.474 422.605 175.483 423.983C176.674 425.926 179.053 426.659 180.519 426.776C182.918 427.579 185.516 427.039 187.488 425.495C196.471 419.128 188.471 402.047 177.728 405.343Z" fill="white"/>
<path d="M215.227 368.157C213.464 365.46 209.904 366.461 207.202 366.617C206.397 366.779 205.248 366.853 204.794 367.607C204.58 368.17 205.24 368.735 205.772 368.447C207.518 367.706 212.548 367.4 213.334 368.261C215.637 370.433 215.538 373.866 213.789 376.394C212.698 378.161 209.287 378.876 207.783 378.096C207.07 377.831 207.381 375.481 208.834 374.912C209.119 374.776 209.976 374.668 210.287 374.813C210.573 374.858 210.492 375.085 211.169 375.039C212.412 374.552 211.75 373.373 210.602 373.179C209.287 372.883 207.788 373.281 206.898 374.31C205.846 375.387 205.44 377.058 206 378.469C206.454 379.617 207.812 379.942 208.932 380.021C211.19 380.199 213.51 379.369 214.924 377.568C217.013 374.939 217.297 370.887 215.227 368.157Z" fill="white"/>
<path d="M209.338 408.054C206.961 408.019 204.828 410.085 205.28 412.495C205.784 413.988 207.519 414.732 208.993 414.892C209.705 414.916 210.457 414.937 211.156 414.819C211.798 414.638 211.897 413.7 211.339 413.355C210.519 413.015 209.559 413.388 208.691 413.174C208.527 413.117 208.091 412.976 207.943 412.935C207.714 412.817 207.275 412.49 207.143 412.391C207.084 412.338 207.026 412.277 206.984 412.228C206.957 412.182 206.934 412.136 206.916 412.087C206.801 411.48 207.308 410.326 207.988 410.063C207.961 410.018 209.328 409.652 209.164 409.716C209.275 409.717 209.389 409.737 209.501 409.756C209.787 409.815 210.71 410.197 210.898 410.267C213.681 411.695 214.247 415.029 212.691 416.635C211.298 417.894 211.248 417.845 209.384 418.378C207.153 418.923 206.405 418.731 204.098 417.917C198.56 416.026 196.881 408.65 199.558 402.902C201.381 398.865 206.881 397.527 211.51 398.689C211.766 398.706 212.205 399.158 212.903 399.406C213.745 399.627 214.249 398.382 213.511 397.936C211.962 396.803 209.972 396.707 208.115 396.698C204.232 396.555 200.244 398.221 198.327 401.706C195.307 407.248 196.172 415.873 202.31 418.932C204.735 420.194 207.549 420.792 210.198 419.888C217.614 418.108 216.363 409.185 209.338 408.054Z" fill="white"/>
<path d="M213.877 429.205C212.249 424.924 206.464 424.522 202.94 426.642C200.396 428.319 199.185 431.375 198.349 434.178C198.319 434.712 197.953 435.35 198.341 435.813C198.742 436.287 199.589 435.995 199.607 435.374C200.168 432.523 201.685 428.831 204.211 427.641C206.594 426.51 210.091 426.603 211.544 428.499C213.844 430.841 211.68 434.692 208.958 434.786C208.831 434.787 208.701 434.776 208.575 434.76C208.558 434.754 208.539 434.748 208.525 434.743C208.515 434.73 208.505 434.719 208.496 434.708C208.102 434.047 208.605 433.54 210.696 433.084C211.375 433.121 212 432.511 211.661 431.841C211.159 430.991 209.992 431.564 209.25 431.74C208.15 432.084 206.891 432.745 206.718 433.995C206.53 437.383 210.443 436.704 212.199 435.108C213.911 433.776 214.574 431.227 213.877 429.205Z" fill="white"/>
<path d="M222.064 385.338C220.994 384.848 219.779 385.187 218.713 385.52C217.297 386.002 216.185 386.585 215.674 387.682C215.507 388.347 216.485 388.737 216.844 388.161C217.383 387.28 219.519 386.316 221.207 386.412C221.666 386.385 222.759 387.44 222.907 388.142C223 390.538 221.734 393.642 219.968 393.453C219.534 393.403 219.497 393.037 219.998 392.681C220.152 392.41 222.055 392.624 221.533 391.243C221.218 390.613 220.435 390.801 219.884 390.949C218.894 391.225 218.036 392.075 218.012 393.132C217.987 395.075 220.531 395.428 221.802 394.395C223.391 393.358 223.963 391.39 224.133 389.603C224.633 387.91 223.643 386.063 222.064 385.338Z" fill="white"/>
<path d="M93.0685 371.119C93.0448 370.352 92.9259 369.456 92.3054 368.931C91.6674 368.537 90.8066 368.501 90.0932 368.691C88.8441 369.121 88.3112 370.468 87.7522 371.548C86.9606 373.407 86.0444 375.321 86.0081 377.372C85.7417 378.296 86.9443 378.787 87.1615 377.788C87.1305 375.352 88.7606 371.846 89.8349 370.264C90.3645 369.548 91.1687 369.844 91.46 369.853C91.8691 369.923 91.8173 371.985 91.6523 373.663C91.6356 373.665 91.6189 373.657 91.6038 373.661C90.6603 374.047 90.4374 375.311 90.5438 376.218C90.677 376.75 91.218 377.114 91.7652 377.013C92.1665 376.906 92.4834 376.561 92.5828 376.164C93.1121 374.527 93.1003 372.817 93.0685 371.119Z" fill="white"/>
</g>
</svg>
